<?xml version="1.0" encoding="utf-8" standalone="no"?>
<!DOCTYPE svg PUBLIC "-//W3C//DTD SVG 1.1//EN"
  "http://www.w3.org/Graphics/SVG/1.1/DTD/svg11.dtd">
<!-- Created with matplotlib (http://matplotlib.org/) -->
<svg height="576pt" version="1.1" viewBox="0 0 576 576" width="576pt" xmlns="http://www.w3.org/2000/svg" xmlns:xlink="http://www.w3.org/1999/xlink">
 <defs>
  <style type="text/css">
*{stroke-linecap:butt;stroke-linejoin:round;}
  </style>
 </defs>
 <g id="figure_1">
  <g id="patch_1">
   <path d="M 0 576 
L 576 576 
L 576 0 
L 0 0 
z
" style="fill:#ffffff;"/>
  </g>
  <g id="axes_1">
   <g id="patch_2">
    <path d="M 72 504 
L 518.4 504 
L 518.4 69.12 
L 72 69.12 
z
" style="fill:#ffffff;"/>
   </g>
   <g id="PathCollection_1">
    <defs>
     <path d="M 0 3 
C 0.795609 3 1.55874 2.683901 2.12132 2.12132 
C 2.683901 1.55874 3 0.795609 3 0 
C 3 -0.795609 2.683901 -1.55874 2.12132 -2.12132 
C 1.55874 -2.683901 0.795609 -3 0 -3 
C -0.795609 -3 -1.55874 -2.683901 -2.12132 -2.12132 
C -2.683901 -1.55874 -3 -0.795609 -3 0 
C -3 0.795609 -2.683901 1.55874 -2.12132 2.12132 
C -1.55874 2.683901 -0.795609 3 0 3 
z
" id="m9bec1f5e81" style="stroke:#ff0000;stroke-opacity:0.5;"/>
    </defs>
    <g clip-path="url(#p0a3c3bca3f)">
     <use style="fill:#ff0000;fill-opacity:0.5;stroke:#ff0000;stroke-opacity:0.5;" x="238.835445" xlink:href="#m9bec1f5e81" y="265.407457"/>
     <use style="fill:#ff0000;fill-opacity:0.5;stroke:#ff0000;stroke-opacity:0.5;" x="391.171954" xlink:href="#m9bec1f5e81" y="84.511619"/>
     <use style="fill:#ff0000;fill-opacity:0.5;stroke:#ff0000;stroke-opacity:0.5;" x="280.969613" xlink:href="#m9bec1f5e81" y="178.166496"/>
     <use style="fill:#ff0000;fill-opacity:0.5;stroke:#ff0000;stroke-opacity:0.5;" x="306.42851" xlink:href="#m9bec1f5e81" y="331.459694"/>
     <use style="fill:#ff0000;fill-opacity:0.5;stroke:#ff0000;stroke-opacity:0.5;" x="77.431053" xlink:href="#m9bec1f5e81" y="78.637811"/>
     <use style="fill:#ff0000;fill-opacity:0.5;stroke:#ff0000;stroke-opacity:0.5;" x="113.073431" xlink:href="#m9bec1f5e81" y="487.596767"/>
     <use style="fill:#ff0000;fill-opacity:0.5;stroke:#ff0000;stroke-opacity:0.5;" x="491.574469" xlink:href="#m9bec1f5e81" y="347.741508"/>
     <use style="fill:#ff0000;fill-opacity:0.5;stroke:#ff0000;stroke-opacity:0.5;" x="305.391766" xlink:href="#m9bec1f5e81" y="435.077938"/>
     <use style="fill:#ff0000;fill-opacity:0.5;stroke:#ff0000;stroke-opacity:0.5;" x="402.623" xlink:href="#m9bec1f5e81" y="459.924332"/>
     <use style="fill:#ff0000;fill-opacity:0.5;stroke:#ff0000;stroke-opacity:0.5;" x="284.538788" xlink:href="#m9bec1f5e81" y="278.979142"/>
     <use style="fill:#ff0000;fill-opacity:0.5;stroke:#ff0000;stroke-opacity:0.5;" x="109.264584" xlink:href="#m9bec1f5e81" y="364.839399"/>
     <use style="fill:#ff0000;fill-opacity:0.5;stroke:#ff0000;stroke-opacity:0.5;" x="323.161424" xlink:href="#m9bec1f5e81" y="497.943015"/>
    </g>
   </g>
   <g id="PathCollection_2">
    <defs>
     <path d="M 0 -3 
L -3 3 
L 3 3 
z
" id="m0139ade95c" style="stroke:#008000;stroke-opacity:0.5;"/>
    </defs>
    <g clip-path="url(#p0a3c3bca3f)">
     <use style="fill:#008000;fill-opacity:0.5;stroke:#008000;stroke-opacity:0.5;" x="518.320164" xlink:href="#m0139ade95c" y="188.594634"/>
     <use style="fill:#008000;fill-opacity:0.5;stroke:#008000;stroke-opacity:0.5;" x="72.199411" xlink:href="#m0139ade95c" y="224.524859"/>
     <use style="fill:#008000;fill-opacity:0.5;stroke:#008000;stroke-opacity:0.5;" x="213.210853" xlink:href="#m0139ade95c" y="69.230222"/>
     <use style="fill:#008000;fill-opacity:0.5;stroke:#008000;stroke-opacity:0.5;" x="397.939232" xlink:href="#m0139ade95c" y="225.592234"/>
     <use style="fill:#008000;fill-opacity:0.5;stroke:#008000;stroke-opacity:0.5;" x="517.039129" xlink:href="#m0139ade95c" y="503.76348"/>
     <use style="fill:#008000;fill-opacity:0.5;stroke:#008000;stroke-opacity:0.5;" x="512.90989" xlink:href="#m0139ade95c" y="69.160841"/>
     <use style="fill:#008000;fill-opacity:0.5;stroke:#008000;stroke-opacity:0.5;" x="171.791523" xlink:href="#m0139ade95c" y="180.936296"/>
     <use style="fill:#008000;fill-opacity:0.5;stroke:#008000;stroke-opacity:0.5;" x="204.880973" xlink:href="#m0139ade95c" y="407.305982"/>
     <use style="fill:#008000;fill-opacity:0.5;stroke:#008000;stroke-opacity:0.5;" x="221.492027" xlink:href="#m0139ade95c" y="503.757398"/>
     <use style="fill:#008000;fill-opacity:0.5;stroke:#008000;stroke-opacity:0.5;" x="396.304928" xlink:href="#m0139ade95c" y="358.568554"/>
     <use style="fill:#008000;fill-opacity:0.5;stroke:#008000;stroke-opacity:0.5;" x="147.72517" xlink:href="#m0139ade95c" y="275.66474"/>
     <use style="fill:#008000;fill-opacity:0.5;stroke:#008000;stroke-opacity:0.5;" x="300.759609" xlink:href="#m0139ade95c" y="88.056492"/>
     <use style="fill:#008000;fill-opacity:0.5;stroke:#008000;stroke-opacity:0.5;" x="517.219662" xlink:href="#m0139ade95c" y="270.291904"/>
     <use style="fill:#008000;fill-opacity:0.5;stroke:#008000;stroke-opacity:0.5;" x="74.933858" xlink:href="#m0139ade95c" y="298.471476"/>
     <use style="fill:#008000;fill-opacity:0.5;stroke:#008000;stroke-opacity:0.5;" x="375.116343" xlink:href="#m0139ade95c" y="155.812881"/>
     <use style="fill:#008000;fill-opacity:0.5;stroke:#008000;stroke-opacity:0.5;" x="443.771959" xlink:href="#m0139ade95c" y="295.842253"/>
     <use style="fill:#008000;fill-opacity:0.5;stroke:#008000;stroke-opacity:0.5;" x="175.054708" xlink:href="#m0139ade95c" y="347.654233"/>
     <use style="fill:#008000;fill-opacity:0.5;stroke:#008000;stroke-opacity:0.5;" x="464.24693" xlink:href="#m0139ade95c" y="225.405773"/>
     <use style="fill:#008000;fill-opacity:0.5;stroke:#008000;stroke-opacity:0.5;" x="358.4153" xlink:href="#m0139ade95c" y="405.704405"/>
     <use style="fill:#008000;fill-opacity:0.5;stroke:#008000;stroke-opacity:0.5;" x="240.751687" xlink:href="#m0139ade95c" y="451.384626"/>
     <use style="fill:#008000;fill-opacity:0.5;stroke:#008000;stroke-opacity:0.5;" x="226.929334" xlink:href="#m0139ade95c" y="165.387443"/>
     <use style="fill:#008000;fill-opacity:0.5;stroke:#008000;stroke-opacity:0.5;" x="267.354436" xlink:href="#m0139ade95c" y="128.874487"/>
     <use style="fill:#008000;fill-opacity:0.5;stroke:#008000;stroke-opacity:0.5;" x="345.725647" xlink:href="#m0139ade95c" y="114.096537"/>
     <use style="fill:#008000;fill-opacity:0.5;stroke:#008000;stroke-opacity:0.5;" x="272.157725" xlink:href="#m0139ade95c" y="495.486453"/>
     <use style="fill:#008000;fill-opacity:0.5;stroke:#008000;stroke-opacity:0.5;" x="171.512138" xlink:href="#m0139ade95c" y="231.417464"/>
     <use style="fill:#008000;fill-opacity:0.5;stroke:#008000;stroke-opacity:0.5;" x="345.036725" xlink:href="#m0139ade95c" y="69.534733"/>
     <use style="fill:#008000;fill-opacity:0.5;stroke:#008000;stroke-opacity:0.5;" x="430.806478" xlink:href="#m0139ade95c" y="176.940316"/>
    </g>
   </g>
   <g id="PathCollection_3">
    <defs>
     <path d="M -3 0 
L 3 0 
M 0 3 
L 0 -3 
" id="m0f0c5456df" style="stroke:#008000;stroke-opacity:0.5;stroke-width:1.5;"/>
    </defs>
    <g clip-path="url(#p0a3c3bca3f)">
     <use style="fill:#008000;fill-opacity:0.5;stroke:#008000;stroke-opacity:0.5;stroke-width:1.5;" x="335.592116" xlink:href="#m0f0c5456df" y="240.931737"/>
     <use style="fill:#008000;fill-opacity:0.5;stroke:#008000;stroke-opacity:0.5;stroke-width:1.5;" x="238.359425" xlink:href="#m0f0c5456df" y="354.499661"/>
     <use style="fill:#008000;fill-opacity:0.5;stroke:#008000;stroke-opacity:0.5;stroke-width:1.5;" x="206.484988" xlink:href="#m0f0c5456df" y="197.756487"/>
     <use style="fill:#008000;fill-opacity:0.5;stroke:#008000;stroke-opacity:0.5;stroke-width:1.5;" x="434.04122" xlink:href="#m0f0c5456df" y="335.066062"/>
     <use style="fill:#008000;fill-opacity:0.5;stroke:#008000;stroke-opacity:0.5;stroke-width:1.5;" x="387.442547" xlink:href="#m0f0c5456df" y="190.513911"/>
     <use style="fill:#008000;fill-opacity:0.5;stroke:#008000;stroke-opacity:0.5;stroke-width:1.5;" x="195.720281" xlink:href="#m0f0c5456df" y="374.849415"/>
     <use style="fill:#008000;fill-opacity:0.5;stroke:#008000;stroke-opacity:0.5;stroke-width:1.5;" x="249.974944" xlink:href="#m0f0c5456df" y="398.022207"/>
     <use style="fill:#008000;fill-opacity:0.5;stroke:#008000;stroke-opacity:0.5;stroke-width:1.5;" x="478.390092" xlink:href="#m0f0c5456df" y="284.94526"/>
     <use style="fill:#008000;fill-opacity:0.5;stroke:#008000;stroke-opacity:0.5;stroke-width:1.5;" x="337.740475" xlink:href="#m0f0c5456df" y="429.255982"/>
     <use style="fill:#008000;fill-opacity:0.5;stroke:#008000;stroke-opacity:0.5;stroke-width:1.5;" x="430.56735" xlink:href="#m0f0c5456df" y="220.60155"/>
     <use style="fill:#008000;fill-opacity:0.5;stroke:#008000;stroke-opacity:0.5;stroke-width:1.5;" x="383.686776" xlink:href="#m0f0c5456df" y="387.53074"/>
     <use style="fill:#008000;fill-opacity:0.5;stroke:#008000;stroke-opacity:0.5;stroke-width:1.5;" x="148.57358" xlink:href="#m0f0c5456df" y="247.241727"/>
     <use style="fill:#008000;fill-opacity:0.5;stroke:#008000;stroke-opacity:0.5;stroke-width:1.5;" x="222.360418" xlink:href="#m0f0c5456df" y="385.314939"/>
     <use style="fill:#008000;fill-opacity:0.5;stroke:#008000;stroke-opacity:0.5;stroke-width:1.5;" x="248.716797" xlink:href="#m0f0c5456df" y="147.486003"/>
     <use style="fill:#008000;fill-opacity:0.5;stroke:#008000;stroke-opacity:0.5;stroke-width:1.5;" x="401.464613" xlink:href="#m0f0c5456df" y="205.563028"/>
     <use style="fill:#008000;fill-opacity:0.5;stroke:#008000;stroke-opacity:0.5;stroke-width:1.5;" x="185.549086" xlink:href="#m0f0c5456df" y="211.163221"/>
     <use style="fill:#008000;fill-opacity:0.5;stroke:#008000;stroke-opacity:0.5;stroke-width:1.5;" x="112.820923" xlink:href="#m0f0c5456df" y="282.165943"/>
     <use style="fill:#008000;fill-opacity:0.5;stroke:#008000;stroke-opacity:0.5;stroke-width:1.5;" x="448.769523" xlink:href="#m0f0c5456df" y="318.672419"/>
     <use style="fill:#008000;fill-opacity:0.5;stroke:#008000;stroke-opacity:0.5;stroke-width:1.5;" x="334.997416" xlink:href="#m0f0c5456df" y="189.024774"/>
     <use style="fill:#008000;fill-opacity:0.5;stroke:#008000;stroke-opacity:0.5;stroke-width:1.5;" x="289.959947" xlink:href="#m0f0c5456df" y="467.342442"/>
     <use style="fill:#008000;fill-opacity:0.5;stroke:#008000;stroke-opacity:0.5;stroke-width:1.5;" x="137.298828" xlink:href="#m0f0c5456df" y="340.204525"/>
     <use style="fill:#008000;fill-opacity:0.5;stroke:#008000;stroke-opacity:0.5;stroke-width:1.5;" x="229.811811" xlink:href="#m0f0c5456df" y="423.312441"/>
     <use style="fill:#008000;fill-opacity:0.5;stroke:#008000;stroke-opacity:0.5;stroke-width:1.5;" x="286.062644" xlink:href="#m0f0c5456df" y="110.9477"/>
     <use style="fill:#008000;fill-opacity:0.5;stroke:#008000;stroke-opacity:0.5;stroke-width:1.5;" x="373.60846" xlink:href="#m0f0c5456df" y="175.906026"/>
     <use style="fill:#008000;fill-opacity:0.5;stroke:#008000;stroke-opacity:0.5;stroke-width:1.5;" x="418.962558" xlink:href="#m0f0c5456df" y="352.811191"/>
     <use style="fill:#008000;fill-opacity:0.5;stroke:#008000;stroke-opacity:0.5;stroke-width:1.5;" x="466.391114" xlink:href="#m0f0c5456df" y="303.300504"/>
     <use style="fill:#008000;fill-opacity:0.5;stroke:#008000;stroke-opacity:0.5;stroke-width:1.5;" x="376.411102" xlink:href="#m0f0c5456df" y="271.336407"/>
     <use style="fill:#008000;fill-opacity:0.5;stroke:#008000;stroke-opacity:0.5;stroke-width:1.5;" x="362.81962" xlink:href="#m0f0c5456df" y="215.914124"/>
     <use style="fill:#008000;fill-opacity:0.5;stroke:#008000;stroke-opacity:0.5;stroke-width:1.5;" x="206.84399" xlink:href="#m0f0c5456df" y="385.208847"/>
    </g>
   </g>
   <g id="matplotlib.axis_1">
    <g id="xtick_1">
     <g id="line2d_1">
      <defs>
       <path d="M 0 0 
L 0 3.5 
" id="m50dbec45af" style="stroke:#000000;stroke-width:0.8;"/>
      </defs>
      <g>
       <use style="stroke:#000000;stroke-width:0.8;" x="72" xlink:href="#m50dbec45af" y="504"/>
      </g>
     </g>
     <g id="text_1">
      <!-- $-5$ -->
      <defs>
       <path d="M 65.90625 23 
C 67.59375 23 69.40625 23 69.40625 25 
C 69.40625 27 67.59375 27 65.90625 27 
L 11.796875 27 
C 10.09375 27 8.296875 27 8.296875 25 
C 8.296875 23 10.09375 23 11.796875 23 
z
" id="CMSY10-0"/>
       <path d="M 11.40625 57.6875 
C 12.40625 57.28125 16.5 56 20.703125 56 
C 30 56 35.09375 61.109375 38 64.0625 
C 38 64.953125 38 65.5 37.40625 65.5 
C 37.296875 65.5 37.09375 65.5 36.296875 65.046875 
C 32.796875 63.40625 28.703125 62.078125 23.703125 62.078125 
C 20.703125 62.078125 16.203125 62.484375 11.296875 64.671875 
C 10.203125 65.171875 10 65.171875 9.90625 65.171875 
C 9.40625 65.171875 9.296875 65.0625 9.296875 63.078125 
L 9.296875 34.421875 
C 9.296875 32.640625 9.296875 32.140625 10.296875 32.140625 
C 10.796875 32.140625 11 32.34375 11.5 33.03125 
C 14.703125 37.515625 19.09375 39.40625 24.09375 39.40625 
C 27.59375 39.40625 35.09375 37.21875 35.09375 20.140625 
C 35.09375 16.953125 35.09375 11.171875 32.09375 6.578125 
C 29.59375 2.484375 25.703125 0.390625 21.40625 0.390625 
C 14.796875 0.390625 8.09375 5 6.296875 12.71875 
C 6.703125 12.609375 7.5 12.421875 7.90625 12.421875 
C 9.203125 12.421875 11.703125 13.125 11.703125 16.21875 
C 11.703125 18.90625 9.796875 20 7.90625 20 
C 5.59375 20 4.09375 18.59375 4.09375 15.796875 
C 4.09375 7.09375 11 -2 21.59375 -2 
C 31.90625 -2 41.703125 6.875 41.703125 19.75 
C 41.703125 31.71875 33.90625 41 24.203125 41 
C 19.09375 41 14.796875 39.109375 11.40625 35.53125 
z
" id="CMR17-53"/>
      </defs>
      <g transform="translate(64.42426 519.517984)scale(0.12 -0.12)">
       <use transform="scale(0.996264)" xlink:href="#CMSY10-0"/>
       <use transform="translate(77.487468 0)scale(0.996264)" xlink:href="#CMR17-53"/>
      </g>
     </g>
    </g>
    <g id="xtick_2">
     <g id="line2d_2">
      <g>
       <use style="stroke:#000000;stroke-width:0.8;" x="116.64" xlink:href="#m50dbec45af" y="504"/>
      </g>
     </g>
     <g id="text_2">
      <!-- $-4$ -->
      <defs>
       <path d="M 33.59375 64.40625 
C 33.59375 66.5 33.5 66.5 31.703125 66.5 
L 2 19.59375 
L 2 17 
L 27.796875 17 
L 27.796875 7.140625 
C 27.796875 3.5 27.59375 2.5 20.59375 2.5 
L 18.703125 2.5 
L 18.703125 0 
C 21.90625 0 27.296875 0 30.703125 0 
C 34.09375 0 39.5 0 42.703125 0 
L 42.703125 2.5 
L 40.796875 2.5 
C 33.796875 2.5 33.59375 3.5 33.59375 7.140625 
L 33.59375 17 
L 43.796875 17 
L 43.796875 19.59375 
L 33.59375 19.59375 
z
M 28.09375 57.859375 
L 28.09375 19.59375 
L 4 19.59375 
z
" id="CMR17-52"/>
      </defs>
      <g transform="translate(109.06426 519.517984)scale(0.12 -0.12)">
       <use transform="scale(0.996264)" xlink:href="#CMSY10-0"/>
       <use transform="translate(77.487468 0)scale(0.996264)" xlink:href="#CMR17-52"/>
      </g>
     </g>
    </g>
    <g id="xtick_3">
     <g id="line2d_3">
      <g>
       <use style="stroke:#000000;stroke-width:0.8;" x="161.28" xlink:href="#m50dbec45af" y="504"/>
      </g>
     </g>
     <g id="text_3">
      <!-- $-3$ -->
      <defs>
       <path d="M 22.09375 33.703125 
C 31 33.703125 34.90625 25.96875 34.90625 17.03125 
C 34.90625 5 28.5 0.390625 22.703125 0.390625 
C 17.40625 0.390625 8.796875 3.03125 6.09375 10.828125 
C 6.59375 10.625 7.09375 10.625 7.59375 10.625 
C 10 10.625 11.796875 12.21875 11.796875 14.8125 
C 11.796875 17.703125 9.59375 19 7.59375 19 
C 5.90625 19 3.296875 18.203125 3.296875 14.46875 
C 3.296875 5.234375 12.296875 -2 22.90625 -2 
C 34 -2 42.5 6.71875 42.5 16.953125 
C 42.5 26.671875 34.5 33.703125 25 34.796875 
C 32.59375 36.375 39.90625 43.0625 39.90625 52.015625 
C 39.90625 59.6875 32 65.296875 23 65.296875 
C 13.90625 65.296875 5.90625 59.828125 5.90625 52.015625 
C 5.90625 48.59375 8.5 48 9.796875 48 
C 11.90625 48 13.703125 49.296875 13.703125 51.890625 
C 13.703125 54.46875 11.90625 55.765625 9.796875 55.765625 
C 9.40625 55.765625 8.90625 55.765625 8.5 55.578125 
C 11.40625 61.859375 19.296875 63 22.796875 63 
C 26.296875 63 32.90625 61.328125 32.90625 51.875 
C 32.90625 49.109375 32.5 44.1875 29.09375 39.84375 
C 26.09375 36 22.703125 36 19.40625 35.6875 
C 18.90625 35.6875 16.59375 35.453125 16.203125 35.453125 
C 15.5 35.359375 15.09375 35.265625 15.09375 34.5 
C 15.09375 33.796875 15.203125 33.703125 17.203125 33.703125 
z
" id="CMR17-51"/>
      </defs>
      <g transform="translate(153.70426 519.517984)scale(0.12 -0.12)">
       <use transform="scale(0.996264)" xlink:href="#CMSY10-0"/>
       <use transform="translate(77.487468 0)scale(0.996264)" xlink:href="#CMR17-51"/>
      </g>
     </g>
    </g>
    <g id="xtick_4">
     <g id="line2d_4">
      <g>
       <use style="stroke:#000000;stroke-width:0.8;" x="205.92" xlink:href="#m50dbec45af" y="504"/>
      </g>
     </g>
     <g id="text_4">
      <!-- $-2$ -->
      <defs>
       <path d="M 41.703125 15.453125 
L 39.90625 15.453125 
C 38.90625 8.375 38.09375 7.171875 37.703125 6.5625 
C 37.203125 5.765625 30 5.765625 28.59375 5.765625 
L 9.40625 5.765625 
C 13 9.671875 20 16.75 28.5 24.953125 
C 34.59375 30.734375 41.703125 37.53125 41.703125 47.421875 
C 41.703125 59.21875 32.296875 66 21.796875 66 
C 10.796875 66 4.09375 56.3125 4.09375 47.34375 
C 4.09375 43.4375 7 42.9375 8.203125 42.9375 
C 9.203125 42.9375 12.203125 43.546875 12.203125 47.03125 
C 12.203125 50.109375 9.59375 51 8.203125 51 
C 7.59375 51 7 50.90625 6.59375 50.703125 
C 8.5 59.21875 14.296875 63.40625 20.40625 63.40625 
C 29.09375 63.40625 34.796875 56.515625 34.796875 47.421875 
C 34.796875 38.734375 29.703125 31.25 24 24.75 
L 4.09375 2.28125 
L 4.09375 0 
L 39.296875 0 
z
" id="CMR17-50"/>
      </defs>
      <g transform="translate(198.34426 519.517984)scale(0.12 -0.12)">
       <use transform="scale(0.996264)" xlink:href="#CMSY10-0"/>
       <use transform="translate(77.487468 0)scale(0.996264)" xlink:href="#CMR17-50"/>
      </g>
     </g>
    </g>
    <g id="xtick_5">
     <g id="line2d_5">
      <g>
       <use style="stroke:#000000;stroke-width:0.8;" x="250.56" xlink:href="#m50dbec45af" y="504"/>
      </g>
     </g>
     <g id="text_5">
      <!-- $-1$ -->
      <defs>
       <path d="M 26.59375 63.40625 
C 26.59375 65.5 26.5 65.5 25.09375 65.5 
C 21.203125 61.1875 15.296875 59.796875 9.703125 59.796875 
C 9.40625 59.796875 8.90625 59.796875 8.796875 59.5 
C 8.703125 59.296875 8.703125 59.09375 8.703125 57 
C 11.796875 57 17 57.59375 21 59.984375 
L 21 7.203125 
C 21 3.6875 20.796875 2.5 12.203125 2.5 
L 9.203125 2.5 
L 9.203125 0 
C 14 0 19 0 23.796875 0 
C 28.59375 0 33.59375 0 38.40625 0 
L 38.40625 2.5 
L 35.40625 2.5 
C 26.796875 2.5 26.59375 3.59375 26.59375 7.15625 
z
" id="CMR17-49"/>
      </defs>
      <g transform="translate(242.98426 519.517984)scale(0.12 -0.12)">
       <use transform="scale(0.996264)" xlink:href="#CMSY10-0"/>
       <use transform="translate(77.487468 0)scale(0.996264)" xlink:href="#CMR17-49"/>
      </g>
     </g>
    </g>
    <g id="xtick_6">
     <g id="line2d_6">
      <g>
       <use style="stroke:#000000;stroke-width:0.8;" x="295.2" xlink:href="#m50dbec45af" y="504"/>
      </g>
     </g>
     <g id="text_6">
      <!-- $0$ -->
      <defs>
       <path d="M 42 31.640625 
C 42 37.75 41.90625 48.125 37.703125 56.109375 
C 34 63.109375 28.09375 65.59375 22.90625 65.59375 
C 18.09375 65.59375 12 63.40625 8.203125 56.203125 
C 4.203125 48.71875 3.796875 39.4375 3.796875 31.640625 
C 3.796875 25.953125 3.90625 17.28125 7 9.671875 
C 11.296875 -0.609375 19 -2 22.90625 -2 
C 27.5 -2 34.5 -0.109375 38.59375 9.375 
C 41.59375 16.28125 42 24.359375 42 31.640625 
z
M 22.90625 -0.40625 
C 16.5 -0.40625 12.703125 5.078125 11.296875 12.6875 
C 10.203125 18.5625 10.203125 27.15625 10.203125 32.75 
C 10.203125 40.4375 10.203125 46.828125 11.5 52.921875 
C 13.40625 61.390625 19 64 22.90625 64 
C 27 64 32.296875 61.296875 34.203125 53.125 
C 35.5 47.4375 35.59375 40.734375 35.59375 32.75 
C 35.59375 26.25 35.59375 18.265625 34.40625 12.375 
C 32.296875 1.484375 26.40625 -0.40625 22.90625 -0.40625 
z
" id="CMR17-48"/>
      </defs>
      <g transform="translate(292.273505 519.517984)scale(0.12 -0.12)">
       <use transform="scale(0.996264)" xlink:href="#CMR17-48"/>
      </g>
     </g>
    </g>
    <g id="xtick_7">
     <g id="line2d_7">
      <g>
       <use style="stroke:#000000;stroke-width:0.8;" x="339.84" xlink:href="#m50dbec45af" y="504"/>
      </g>
     </g>
     <g id="text_7">
      <!-- $1$ -->
      <g transform="translate(336.913505 519.517984)scale(0.12 -0.12)">
       <use transform="scale(0.996264)" xlink:href="#CMR17-49"/>
      </g>
     </g>
    </g>
    <g id="xtick_8">
     <g id="line2d_8">
      <g>
       <use style="stroke:#000000;stroke-width:0.8;" x="384.48" xlink:href="#m50dbec45af" y="504"/>
      </g>
     </g>
     <g id="text_8">
      <!-- $2$ -->
      <g transform="translate(381.553505 519.517984)scale(0.12 -0.12)">
       <use transform="scale(0.996264)" xlink:href="#CMR17-50"/>
      </g>
     </g>
    </g>
    <g id="xtick_9">
     <g id="line2d_9">
      <g>
       <use style="stroke:#000000;stroke-width:0.8;" x="429.12" xlink:href="#m50dbec45af" y="504"/>
      </g>
     </g>
     <g id="text_9">
      <!-- $3$ -->
      <g transform="translate(426.193505 519.517984)scale(0.12 -0.12)">
       <use transform="scale(0.996264)" xlink:href="#CMR17-51"/>
      </g>
     </g>
    </g>
    <g id="xtick_10">
     <g id="line2d_10">
      <g>
       <use style="stroke:#000000;stroke-width:0.8;" x="473.76" xlink:href="#m50dbec45af" y="504"/>
      </g>
     </g>
     <g id="text_10">
      <!-- $4$ -->
      <g transform="translate(470.833505 519.517984)scale(0.12 -0.12)">
       <use transform="scale(0.996264)" xlink:href="#CMR17-52"/>
      </g>
     </g>
    </g>
    <g id="xtick_11">
     <g id="line2d_11">
      <g>
       <use style="stroke:#000000;stroke-width:0.8;" x="518.4" xlink:href="#m50dbec45af" y="504"/>
      </g>
     </g>
     <g id="text_11">
      <!-- $5$ -->
      <g transform="translate(515.473505 519.517984)scale(0.12 -0.12)">
       <use transform="scale(0.996264)" xlink:href="#CMR17-53"/>
      </g>
     </g>
    </g>
    <g id="text_12">
     <!-- \theta_{1} -->
     <defs>
      <path d="M 44.296875 50 
C 44.296875 60.15625 41.09375 70 32.90625 70 
C 18.90625 70 4 40.859375 4 19 
C 4 14.421875 5 -1 15.5 -1 
C 29.09375 -1 44.296875 27.4375 44.296875 50 
z
M 14 36 
C 15.5 41.859375 17.59375 50.21875 21.59375 57.265625 
C 24.90625 63.234375 28.40625 68 32.796875 68 
C 36.09375 68 38.296875 65.21875 38.296875 55.6875 
C 38.296875 52.09375 38 47.140625 35.09375 36 
z
M 34.40625 33.015625 
C 31.90625 23.28125 29.796875 17 26.203125 10.734375 
C 23.296875 5.671875 19.796875 1 15.59375 1 
C 12.5 1 10 3.390625 10 13.21875 
C 10 19.6875 11.59375 26.453125 13.203125 33.015625 
z
" id="CMMI12-18"/>
     </defs>
     <g transform="translate(288.773682 537.421671)scale(0.16 -0.16)">
      <use transform="translate(0 14.943915)scale(0.996264)" xlink:href="#CMMI12-18"/>
      <use transform="translate(45.45979 0)scale(0.697382)" xlink:href="#CMR17-49"/>
     </g>
    </g>
   </g>
   <g id="matplotlib.axis_2">
    <g id="ytick_1">
     <g id="line2d_12">
      <defs>
       <path d="M 0 0 
L -3.5 0 
" id="m2f676bfaa0" style="stroke:#000000;stroke-width:0.8;"/>
      </defs>
      <g>
       <use style="stroke:#000000;stroke-width:0.8;" x="72" xlink:href="#m2f676bfaa0" y="504"/>
      </g>
     </g>
     <g id="text_13">
      <!-- $-5$ -->
      <g transform="translate(49.84852 508.258992)scale(0.12 -0.12)">
       <use transform="scale(0.996264)" xlink:href="#CMSY10-0"/>
       <use transform="translate(77.487468 0)scale(0.996264)" xlink:href="#CMR17-53"/>
      </g>
     </g>
    </g>
    <g id="ytick_2">
     <g id="line2d_13">
      <g>
       <use style="stroke:#000000;stroke-width:0.8;" x="72" xlink:href="#m2f676bfaa0" y="460.512"/>
      </g>
     </g>
     <g id="text_14">
      <!-- $-4$ -->
      <g transform="translate(49.84852 464.770992)scale(0.12 -0.12)">
       <use transform="scale(0.996264)" xlink:href="#CMSY10-0"/>
       <use transform="translate(77.487468 0)scale(0.996264)" xlink:href="#CMR17-52"/>
      </g>
     </g>
    </g>
    <g id="ytick_3">
     <g id="line2d_14">
      <g>
       <use style="stroke:#000000;stroke-width:0.8;" x="72" xlink:href="#m2f676bfaa0" y="417.024"/>
      </g>
     </g>
     <g id="text_15">
      <!-- $-3$ -->
      <g transform="translate(49.84852 421.282992)scale(0.12 -0.12)">
       <use transform="scale(0.996264)" xlink:href="#CMSY10-0"/>
       <use transform="translate(77.487468 0)scale(0.996264)" xlink:href="#CMR17-51"/>
      </g>
     </g>
    </g>
    <g id="ytick_4">
     <g id="line2d_15">
      <g>
       <use style="stroke:#000000;stroke-width:0.8;" x="72" xlink:href="#m2f676bfaa0" y="373.536"/>
      </g>
     </g>
     <g id="text_16">
      <!-- $-2$ -->
      <g transform="translate(49.84852 377.794992)scale(0.12 -0.12)">
       <use transform="scale(0.996264)" xlink:href="#CMSY10-0"/>
       <use transform="translate(77.487468 0)scale(0.996264)" xlink:href="#CMR17-50"/>
      </g>
     </g>
    </g>
    <g id="ytick_5">
     <g id="line2d_16">
      <g>
       <use style="stroke:#000000;stroke-width:0.8;" x="72" xlink:href="#m2f676bfaa0" y="330.048"/>
      </g>
     </g>
     <g id="text_17">
      <!-- $-1$ -->
      <g transform="translate(49.84852 334.306992)scale(0.12 -0.12)">
       <use transform="scale(0.996264)" xlink:href="#CMSY10-0"/>
       <use transform="translate(77.487468 0)scale(0.996264)" xlink:href="#CMR17-49"/>
      </g>
     </g>
    </g>
    <g id="ytick_6">
     <g id="line2d_17">
      <g>
       <use style="stroke:#000000;stroke-width:0.8;" x="72" xlink:href="#m2f676bfaa0" y="286.56"/>
      </g>
     </g>
     <g id="text_18">
      <!-- $0$ -->
      <g transform="translate(59.14701 290.818992)scale(0.12 -0.12)">
       <use transform="scale(0.996264)" xlink:href="#CMR17-48"/>
      </g>
     </g>
    </g>
    <g id="ytick_7">
     <g id="line2d_18">
      <g>
       <use style="stroke:#000000;stroke-width:0.8;" x="72" xlink:href="#m2f676bfaa0" y="243.072"/>
      </g>
     </g>
     <g id="text_19">
      <!-- $1$ -->
      <g transform="translate(59.14701 247.330992)scale(0.12 -0.12)">
       <use transform="scale(0.996264)" xlink:href="#CMR17-49"/>
      </g>
     </g>
    </g>
    <g id="ytick_8">
     <g id="line2d_19">
      <g>
       <use style="stroke:#000000;stroke-width:0.8;" x="72" xlink:href="#m2f676bfaa0" y="199.584"/>
      </g>
     </g>
     <g id="text_20">
      <!-- $2$ -->
      <g transform="translate(59.14701 203.842992)scale(0.12 -0.12)">
       <use transform="scale(0.996264)" xlink:href="#CMR17-50"/>
      </g>
     </g>
    </g>
    <g id="ytick_9">
     <g id="line2d_20">
      <g>
       <use style="stroke:#000000;stroke-width:0.8;" x="72" xlink:href="#m2f676bfaa0" y="156.096"/>
      </g>
     </g>
     <g id="text_21">
      <!-- $3$ -->
      <g transform="translate(59.14701 160.354992)scale(0.12 -0.12)">
       <use transform="scale(0.996264)" xlink:href="#CMR17-51"/>
      </g>
     </g>
    </g>
    <g id="ytick_10">
     <g id="line2d_21">
      <g>
       <use style="stroke:#000000;stroke-width:0.8;" x="72" xlink:href="#m2f676bfaa0" y="112.608"/>
      </g>
     </g>
     <g id="text_22">
      <!-- $4$ -->
      <g transform="translate(59.14701 116.866992)scale(0.12 -0.12)">
       <use transform="scale(0.996264)" xlink:href="#CMR17-52"/>
      </g>
     </g>
    </g>
    <g id="ytick_11">
     <g id="line2d_22">
      <g>
       <use style="stroke:#000000;stroke-width:0.8;" x="72" xlink:href="#m2f676bfaa0" y="69.12"/>
      </g>
     </g>
     <g id="text_23">
      <!-- $5$ -->
      <g transform="translate(59.14701 73.378992)scale(0.12 -0.12)">
       <use transform="scale(0.996264)" xlink:href="#CMR17-53"/>
      </g>
     </g>
    </g>
    <g id="text_24">
     <!-- \theta_{2} -->
     <g transform="translate(42.453339 292.986318)rotate(-90)scale(0.16 -0.16)">
      <use transform="translate(0 14.943915)scale(0.996264)" xlink:href="#CMMI12-18"/>
      <use transform="translate(45.45979 0)scale(0.697382)" xlink:href="#CMR17-50"/>
     </g>
    </g>
   </g>
   <g id="LineCollection_1">
    <path clip-path="url(#p0a3c3bca3f)" d="M 261.39148 504 
L 263.952 501.505558 
L 265.85548 499.6512 
L 268.416 497.156758 
L 270.31948 495.3024 
L 272.88 492.807958 
L 274.78348 490.9536 
L 277.344 488.459158 
L 279.24748 486.6048 
L 281.808 484.110358 
L 283.71148 482.256 
L 286.272 479.761558 
L 288.17548 477.9072 
L 290.736 475.412758 
L 292.63948 473.5584 
L 295.2 471.063958 
L 297.10348 469.2096 
L 299.664 466.715158 
L 301.56748 464.8608 
L 304.128 462.366358 
L 306.03148 460.512 
L 308.592 458.017558 
L 310.49548 456.1632 
L 313.056 453.668758 
L 314.95948 451.8144 
L 317.52 449.319958 
L 319.42348 447.4656 
L 321.984 444.971158 
L 323.88748 443.1168 
L 326.448 440.622358 
L 328.35148 438.768 
L 330.912 436.273558 
L 332.81548 434.4192 
L 335.376 431.924758 
L 337.27948 430.0704 
L 339.84 427.575958 
L 341.74348 425.7216 
L 344.304 423.227158 
L 346.20748 421.3728 
L 348.768 418.878358 
L 350.67148 417.024 
L 353.232 414.529558 
L 355.13548 412.6752 
L 357.696 410.180758 
L 359.59948 408.3264 
L 362.16 405.831958 
L 364.06348 403.9776 
L 366.624 401.483158 
L 368.52748 399.6288 
L 371.088 397.134358 
L 372.99148 395.28 
L 375.552 392.785558 
L 377.45548 390.9312 
L 380.016 388.436758 
L 381.91948 386.5824 
L 384.48 384.087958 
L 386.38348 382.2336 
L 388.944 379.739158 
L 390.84748 377.8848 
L 393.408 375.390358 
L 395.31148 373.536 
L 397.872 371.041558 
L 399.77548 369.1872 
L 402.336 366.692758 
L 404.23948 364.8384 
L 406.8 362.343958 
L 408.70348 360.4896 
L 411.264 357.995158 
L 413.16748 356.1408 
L 415.728 353.646358 
L 417.63148 351.792 
L 420.192 349.297558 
L 422.09548 347.4432 
L 424.656 344.948758 
L 426.55948 343.0944 
L 429.12 340.599958 
L 431.02348 338.7456 
L 433.584 336.251158 
L 435.48748 334.3968 
L 438.048 331.902358 
L 439.95148 330.048 
L 442.512 327.553558 
L 444.41548 325.6992 
L 446.976 323.204758 
L 448.87948 321.3504 
L 451.44 318.855958 
L 453.34348 317.0016 
L 455.904 314.507158 
L 457.80748 312.6528 
L 460.368 310.158358 
L 462.27148 308.304 
L 464.832 305.809558 
L 466.73548 303.9552 
L 469.296 301.460758 
L 471.19948 299.6064 
L 473.76 297.111958 
L 475.66348 295.2576 
L 478.224 292.763158 
L 480.12748 290.9088 
L 482.688 288.414358 
L 484.59148 286.56 
L 487.152 284.065558 
L 489.05548 282.2112 
L 491.616 279.716758 
L 493.51948 277.8624 
L 496.08 275.367958 
L 497.98348 273.5136 
L 500.544 271.019158 
L 502.44748 269.1648 
L 505.008 266.670358 
L 506.91148 264.816 
L 509.472 262.321558 
L 511.37548 260.4672 
L 513.936 257.972758 
" style="fill:none;stroke:#0000ff;"/>
    <path clip-path="url(#p0a3c3bca3f)" d="M 72 340.534475 
L 76.464 340.429572 
L 80.928 340.383084 
L 85.392 340.397519 
L 89.856 340.475532 
L 94.32 340.619934 
L 98.784 340.833704 
L 103.248 341.120001 
L 107.712 341.482181 
L 112.176 341.923808 
L 116.64 342.448676 
L 121.104 343.06082 
L 121.320344 343.0944 
L 125.568 343.775739 
L 130.032 344.589413 
L 134.496 345.506381 
L 138.96 346.532094 
L 142.539416 347.4432 
L 143.424 347.676571 
L 147.888 348.961218 
L 152.352 350.376752 
L 156.42432 351.792 
L 156.816 351.933473 
L 161.28 353.66826 
L 165.744 355.563077 
L 167.011647 356.1408 
L 170.208 357.659698 
L 174.672 359.955199 
L 175.644885 360.4896 
L 179.136 362.494705 
L 182.92365 364.8384 
L 183.6 365.276905 
L 188.064 368.359112 
L 189.189512 369.1872 
L 192.528 371.769905 
L 194.671945 373.536 
L 196.992 375.550879 
L 199.525214 377.8848 
L 201.456 379.765759 
L 203.851746 382.2336 
L 205.92 384.493783 
L 207.732879 386.5824 
L 210.384 389.834734 
L 211.234025 390.9312 
L 214.397879 395.28 
L 214.848 395.938896 
L 217.25378 399.6288 
L 219.312 403.029822 
L 219.860557 403.9776 
L 222.216867 408.3264 
L 223.776 411.440266 
L 224.369026 412.6752 
L 226.314038 417.024 
L 228.094779 421.3728 
L 228.24 421.754372 
L 229.692738 425.7216 
L 231.14577 430.0704 
L 232.464446 434.4192 
L 232.704 435.280956 
L 233.639241 438.768 
L 234.692126 443.1168 
L 235.633384 447.4656 
L 236.468612 451.8144 
L 237.168 455.952439 
L 237.20247 456.1632 
L 237.83083 460.512 
L 238.369601 464.8608 
L 238.822927 469.2096 
L 239.194701 473.5584 
L 239.488582 477.9072 
L 239.708015 482.256 
L 239.856242 486.6048 
L 239.936321 490.9536 
L 239.951139 495.3024 
L 239.903419 499.6512 
L 239.795738 504 
" style="fill:none;stroke:#0000ff;"/>
    <path clip-path="url(#p0a3c3bca3f)" d="M 513.936 232.690428 
L 509.472 232.736916 
L 505.008 232.722481 
L 500.544 232.644468 
L 496.08 232.500066 
L 491.616 232.286296 
L 487.152 231.999999 
L 482.688 231.637819 
L 478.224 231.196192 
L 473.76 230.671324 
L 469.296 230.05918 
L 469.079656 230.0256 
L 464.832 229.344261 
L 460.368 228.530587 
L 455.904 227.613619 
L 451.44 226.587906 
L 447.860584 225.6768 
L 446.976 225.443429 
L 442.512 224.158782 
L 438.048 222.743248 
L 433.97568 221.328 
L 433.584 221.186527 
L 429.12 219.45174 
L 424.656 217.556923 
L 423.388353 216.9792 
L 420.192 215.460302 
L 415.728 213.164801 
L 414.755115 212.6304 
L 411.264 210.625295 
L 407.47635 208.2816 
L 406.8 207.843095 
L 402.336 204.760888 
L 401.210488 203.9328 
L 397.872 201.350095 
L 395.728055 199.584 
L 393.408 197.569121 
L 390.874786 195.2352 
L 388.944 193.354241 
L 386.548254 190.8864 
L 384.48 188.626217 
L 382.667121 186.5376 
L 380.016 183.285266 
L 379.165975 182.1888 
L 376.002121 177.84 
L 375.552 177.181104 
L 373.14622 173.4912 
L 371.088 170.090178 
L 370.539443 169.1424 
L 368.183133 164.7936 
L 366.624 161.679734 
L 366.030974 160.4448 
L 364.085962 156.096 
L 362.305221 151.7472 
L 362.16 151.365628 
L 360.707262 147.3984 
L 359.25423 143.0496 
L 357.935554 138.7008 
L 357.696 137.839044 
L 356.760759 134.352 
L 355.707874 130.0032 
L 354.766616 125.6544 
L 353.931388 121.3056 
L 353.232 117.167561 
L 353.19753 116.9568 
L 352.56917 112.608 
L 352.030399 108.2592 
L 351.577073 103.9104 
L 351.205299 99.5616 
L 350.911418 95.2128 
L 350.691985 90.864 
L 350.543758 86.5152 
L 350.463679 82.1664 
L 350.448861 77.8176 
L 350.496581 73.4688 
" style="fill:none;stroke:#0000ff;"/>
    <path clip-path="url(#p0a3c3bca3f)" d="M 324.54452 73.4688 
L 321.984 75.963242 
L 320.08052 77.8176 
L 317.52 80.312042 
L 315.61652 82.1664 
L 313.056 84.660842 
L 311.15252 86.5152 
L 308.592 89.009642 
L 306.68852 90.864 
L 304.128 93.358442 
L 302.22452 95.2128 
L 299.664 97.707242 
L 297.76052 99.5616 
L 295.2 102.056042 
L 293.29652 103.9104 
L 290.736 106.404842 
L 288.83252 108.2592 
L 286.272 110.753642 
L 284.36852 112.608 
L 281.808 115.102442 
L 279.90452 116.9568 
L 277.344 119.451242 
L 275.44052 121.3056 
L 272.88 123.800042 
L 270.97652 125.6544 
L 268.416 128.148842 
L 266.51252 130.0032 
L 263.952 132.497642 
L 262.04852 134.352 
L 259.488 136.846442 
L 257.58452 138.7008 
L 255.024 141.195242 
L 253.12052 143.0496 
L 250.56 145.544042 
L 248.65652 147.3984 
L 246.096 149.892842 
L 244.19252 151.7472 
L 241.632 154.241642 
L 239.72852 156.096 
L 237.168 158.590442 
L 235.26452 160.4448 
L 232.704 162.939242 
L 230.80052 164.7936 
L 228.24 167.288042 
L 226.33652 169.1424 
L 223.776 171.636842 
L 221.87252 173.4912 
L 219.312 175.985642 
L 217.40852 177.84 
L 214.848 180.334442 
L 212.94452 182.1888 
L 210.384 184.683242 
L 208.48052 186.5376 
L 205.92 189.032042 
L 204.01652 190.8864 
L 201.456 193.380842 
L 199.55252 195.2352 
L 196.992 197.729642 
L 195.08852 199.584 
L 192.528 202.078442 
L 190.62452 203.9328 
L 188.064 206.427242 
L 186.16052 208.2816 
L 183.6 210.776042 
L 181.69652 212.6304 
L 179.136 215.124842 
L 177.23252 216.9792 
L 174.672 219.473642 
L 172.76852 221.328 
L 170.208 223.822442 
L 168.30452 225.6768 
L 165.744 228.171242 
L 163.84052 230.0256 
L 161.28 232.520042 
L 159.37652 234.3744 
L 156.816 236.868842 
L 154.91252 238.7232 
L 152.352 241.217642 
L 150.44852 243.072 
L 147.888 245.566442 
L 145.98452 247.4208 
L 143.424 249.915242 
L 141.52052 251.7696 
L 138.96 254.264042 
L 137.05652 256.1184 
L 134.496 258.612842 
L 132.59252 260.4672 
L 130.032 262.961642 
L 128.12852 264.816 
L 125.568 267.310442 
L 123.66452 269.1648 
L 121.104 271.659242 
L 119.20052 273.5136 
L 116.64 276.008042 
L 114.73652 277.8624 
L 112.176 280.356842 
L 110.27252 282.2112 
L 107.712 284.705642 
L 105.80852 286.56 
L 103.248 289.054442 
L 101.34452 290.9088 
L 98.784 293.403242 
L 96.88052 295.2576 
L 94.32 297.752042 
L 92.41652 299.6064 
L 89.856 302.100842 
L 87.95252 303.9552 
L 85.392 306.449642 
L 83.48852 308.304 
L 80.928 310.798442 
L 79.02452 312.6528 
L 76.464 315.147242 
L 74.56052 317.0016 
L 72 319.496042 
" style="fill:none;stroke:#0000ff;"/>
   </g>
   <g id="LineCollection_2">
    <path clip-path="url(#p0a3c3bca3f)" d="M 263.895155 504 
L 263.952 503.92406 
L 267.076232 499.6512 
L 268.416 497.988641 
L 270.549405 495.3024 
L 272.88 492.605113 
L 274.296747 490.9536 
L 277.344 487.639 
L 278.293606 486.6048 
L 281.808 482.975966 
L 282.50775 482.256 
L 286.272 478.525491 
L 286.900526 477.9072 
L 290.736 474.218547 
L 291.42964 473.5584 
L 295.2 470.003342 
L 296.052584 469.2096 
L 299.664 465.84097 
L 300.7297 464.8608 
L 304.128 461.701679 
L 305.426216 460.512 
L 308.592 457.561993 
L 310.113209 456.1632 
L 313.056 453.4028 
L 314.767966 451.8144 
L 317.52 449.20852 
L 319.374312 447.4656 
L 321.984 444.967422 
L 323.923212 443.1168 
L 326.448 440.672877 
L 328.413392 438.768 
L 330.912 436.324953 
L 332.851411 434.4192 
L 335.376 431.931403 
L 337.250646 430.0704 
L 339.84 427.507131 
L 341.629168 425.7216 
L 344.304 423.071769 
L 346.006891 421.3728 
L 348.768 418.645868 
L 350.402582 417.024 
L 353.232 414.246807 
L 354.831102 412.6752 
L 357.696 409.885606 
L 359.30112 408.3264 
L 362.16 405.565317 
L 363.813511 403.9776 
L 366.624 401.281073 
L 368.360828 399.6288 
L 371.088 397.021447 
L 372.92836 395.28 
L 375.552 392.770745 
L 377.497033 390.9312 
L 380.016 388.511949 
L 382.047839 386.5824 
L 384.48 384.230135 
L 386.566655 382.2336 
L 388.944 379.915955 
L 391.047903 377.8848 
L 393.408 375.568295 
L 395.495724 373.536 
L 397.872 371.194803 
L 399.922151 369.1872 
L 402.336 366.809301 
L 404.342761 364.8384 
L 406.8 362.426469 
L 408.771113 360.4896 
L 411.264 358.055941 
L 413.213846 356.1408 
L 415.728 353.698597 
L 417.668399 351.792 
L 420.192 349.346706 
L 422.124563 347.4432 
L 424.656 344.98764 
L 426.569377 343.0944 
L 429.12 340.609471 
L 430.993214 338.7456 
L 433.584 336.206416 
L 435.394404 334.3968 
L 438.048 331.782317 
L 439.780805 330.048 
L 442.512 327.35087 
L 444.168226 325.6992 
L 446.976 322.9322 
L 448.576517 321.3504 
L 451.44 318.54662 
L 453.024119 317.0016 
L 455.904 314.207555 
L 457.521679 312.6528 
L 460.368 309.915834 
L 462.065674 308.304 
L 464.832 305.656767 
L 466.634041 303.9552 
L 469.296 301.400258 
L 471.186844 299.6064 
L 473.76 297.103754 
L 475.674258 295.2576 
L 478.224 292.718395 
L 480.050815 290.9088 
L 482.688 288.199827 
L 484.290682 286.56 
L 487.152 283.525141 
L 488.397823 282.2112 
L 491.616 278.714132 
L 492.408624 277.8624 
L 496.08 273.845503 
L 496.389671 273.5136 
L 500.44 269.1648 
L 500.544 269.054898 
L 504.689497 264.816 
L 505.008 264.499963 
L 509.270878 260.4672 
L 509.472 260.284434 
L 513.936 256.476497 
" style="fill:none;stroke:#ff0000;stroke-dasharray:3.7,1.6;stroke-dashoffset:0;"/>
    <path clip-path="url(#p0a3c3bca3f)" d="M 72 341.232524 
L 76.464 340.522085 
L 80.928 339.921646 
L 85.392 339.447581 
L 89.856 339.115726 
L 94.32 338.94064 
L 98.784 338.934703 
L 103.248 339.107122 
L 107.712 339.462902 
L 112.176 340.001915 
L 116.64 340.718247 
L 121.104 341.599998 
L 125.568 342.629725 
L 127.377729 343.0944 
L 130.032 343.800425 
L 134.496 345.080614 
L 138.96 346.43634 
L 142.15695 347.4432 
L 143.424 347.858449 
L 147.888 349.347437 
L 152.352 350.875042 
L 154.975615 351.792 
L 156.816 352.466927 
L 161.28 354.147846 
L 165.744 355.921999 
L 166.269448 356.1408 
L 170.208 357.875061 
L 174.672 360.012693 
L 175.594546 360.4896 
L 179.136 362.426997 
L 183.129075 364.8384 
L 183.6 365.138313 
L 188.064 368.222482 
L 189.345069 369.1872 
L 192.528 371.693072 
L 194.698014 373.536 
L 196.992 375.561402 
L 199.462184 377.8848 
L 201.456 379.829568 
L 203.793074 382.2336 
L 205.92 384.507712 
L 207.772302 386.5824 
L 210.384 389.64714 
L 211.431651 390.9312 
L 214.774834 395.28 
L 214.848 395.381819 
L 217.765434 399.6288 
L 219.312 402.095152 
L 220.437953 403.9776 
L 222.785448 408.3264 
L 223.776 410.380467 
L 224.8304 412.6752 
L 226.605955 417.024 
L 228.177114 421.3728 
L 228.24 421.566354 
L 229.535483 425.7216 
L 230.768135 430.0704 
L 231.912916 434.4192 
L 232.704 437.581106 
L 232.991629 438.768 
L 234.015544 443.1168 
L 235.024826 447.4656 
L 236.024 451.8144 
L 237.007459 456.1632 
L 237.168 456.889836 
L 237.935169 460.512 
L 238.807035 464.8608 
L 239.606476 469.2096 
L 240.314841 473.5584 
L 240.919568 477.9072 
L 241.415597 482.256 
L 241.632 484.644823 
L 241.796955 486.6048 
L 242.07323 490.9536 
L 242.266158 495.3024 
L 242.389487 499.6512 
L 242.457168 504 
" style="fill:none;stroke:#ff0000;stroke-dasharray:3.7,1.6;stroke-dashoffset:0;"/>
    <path clip-path="url(#p0a3c3bca3f)" d="M 513.936 231.068316 
L 509.472 231.062888 
L 505.008 231.043345 
L 500.544 231.002339 
L 496.08 230.931078 
L 491.616 230.819468 
L 487.152 230.65643 
L 482.688 230.430412 
L 478.224 230.13004 
L 476.992819 230.0256 
L 473.76 229.746016 
L 469.296 229.267489 
L 464.832 228.685632 
L 460.368 227.994033 
L 455.904 227.187925 
L 451.44 226.263747 
L 448.904306 225.6768 
L 446.976 225.209718 
L 442.512 224.013345 
L 438.048 222.679 
L 433.958655 221.328 
L 433.584 221.196394 
L 429.12 219.51396 
L 424.656 217.660327 
L 423.127062 216.9792 
L 420.192 215.580517 
L 415.728 213.278987 
L 414.54581 212.6304 
L 411.264 210.711127 
L 407.390922 208.2816 
L 406.8 207.888417 
L 402.336 204.761158 
L 401.217382 203.9328 
L 397.872 201.320553 
L 395.766141 199.584 
L 393.408 197.535594 
L 390.896528 195.2352 
L 388.944 193.346913 
L 386.532706 190.8864 
L 384.48 188.663377 
L 382.622186 186.5376 
L 380.016 183.351038 
L 379.117089 182.1888 
L 375.979567 177.84 
L 375.552 177.205983 
L 373.179728 173.4912 
L 371.088 169.946996 
L 370.637392 169.1424 
L 368.347681 164.7936 
L 366.624 161.276706 
L 366.235682 160.4448 
L 364.304573 156.096 
L 362.493604 151.7472 
L 362.16 150.913292 
L 360.818985 147.3984 
L 359.252343 143.0496 
L 357.787408 138.7008 
L 357.696 138.416292 
L 356.452031 134.352 
L 355.2331 130.0032 
L 354.13718 125.6544 
L 353.232 121.589764 
L 353.171486 121.3056 
L 352.348725 116.9568 
L 351.658776 112.608 
L 351.098773 108.2592 
L 350.663241 103.9104 
L 350.344873 99.5616 
L 350.135321 95.2128 
L 350.025875 90.864 
L 350.007992 86.5152 
L 350.073657 82.1664 
L 350.215607 77.8176 
L 350.42743 73.4688 
" style="fill:none;stroke:#ff0000;stroke-dasharray:3.7,1.6;stroke-dashoffset:0;"/>
    <path clip-path="url(#p0a3c3bca3f)" d="M 324.942028 73.4688 
L 321.984 76.831842 
L 321.107436 77.8176 
L 317.52 81.606633 
L 316.988378 82.1664 
L 313.056 86.061171 
L 312.601207 86.5152 
L 308.592 90.29248 
L 307.997599 90.864 
L 304.128 94.391461 
L 303.255428 95.2128 
L 299.664 98.435385 
L 298.459598 99.5616 
L 295.2 102.484478 
L 293.682208 103.9104 
L 290.736 106.580927 
L 288.970509 108.2592 
L 286.272 110.749187 
L 284.344876 112.608 
L 281.808 114.997158 
L 279.803722 116.9568 
L 277.344 119.318253 
L 275.33091 121.3056 
L 272.88 123.694609 
L 270.902663 125.6544 
L 268.416 128.101514 
L 266.492985 130.0032 
L 263.952 132.512724 
L 262.077824 134.352 
L 259.488 136.905889 
L 257.638692 138.7008 
L 255.024 141.267125 
L 253.166118 143.0496 
L 250.56 145.593918 
L 248.662564 147.3984 
L 246.096 149.895866 
L 244.143386 151.7472 
L 241.632 154.192979 
L 239.633939 156.096 
L 237.168 158.511243 
L 235.161981 160.4448 
L 232.704 162.875311 
L 230.747273 164.7936 
L 228.24 167.299225 
L 226.392918 169.1424 
L 223.776 171.77836 
L 222.082786 173.4912 
L 219.312 176.287567 
L 217.786098 177.84 
L 214.848 180.788742 
L 213.46673 182.1888 
L 210.384 185.245034 
L 209.093517 186.5376 
L 205.92 189.63392 
L 204.648636 190.8864 
L 201.456 193.952846 
L 200.132301 195.2352 
L 196.992 198.217019 
L 195.562771 199.584 
L 192.528 202.453048 
L 190.971517 203.9328 
L 188.064 206.691924 
L 186.394588 208.2816 
L 183.6 210.962584 
L 181.862586 212.6304 
L 179.136 215.285742 
L 177.392136 216.9792 
L 174.672 219.667696 
L 172.98097 221.328 
L 170.208 224.095478 
L 168.607501 225.6768 
L 165.744 228.536689 
L 164.234834 230.0256 
L 161.28 232.947344 
L 159.819047 234.3744 
L 156.816 237.286918 
L 155.321333 238.7232 
L 152.352 241.533961 
L 150.722068 243.072 
L 147.888 245.69419 
L 146.031962 247.4208 
L 143.424 249.798255 
L 141.293769 251.7696 
L 138.96 253.892874 
L 136.571225 256.1184 
L 134.496 258.030766 
L 131.929413 260.4672 
L 130.032 262.262179 
L 127.416306 264.816 
L 125.568 266.627644 
L 123.053087 269.1648 
L 121.104 271.15031 
L 118.833982 273.5136 
L 116.64 275.827237 
L 114.731257 277.8624 
L 112.176 280.621658 
L 110.700539 282.2112 
L 107.712 285.461028 
L 106.683816 286.56 
L 103.248 290.246082 
L 102.609829 290.9088 
L 98.784 294.87146 
L 98.393172 295.2576 
L 94.32 299.250628 
L 93.934628 299.6064 
L 89.856 303.333518 
L 89.126357 303.9552 
L 85.392 307.109507 
L 83.866038 308.304 
L 80.928 310.597462 
L 78.082335 312.6528 
L 76.464 313.830358 
L 72 316.842141 
" style="fill:none;stroke:#ff0000;stroke-dasharray:3.7,1.6;stroke-dashoffset:0;"/>
   </g>
   <g id="patch_3">
    <path d="M 72 504 
L 72 69.12 
" style="fill:none;stroke:#000000;stroke-linecap:square;stroke-linejoin:miter;stroke-width:0.8;"/>
   </g>
   <g id="patch_4">
    <path d="M 518.4 504 
L 518.4 69.12 
" style="fill:none;stroke:#000000;stroke-linecap:square;stroke-linejoin:miter;stroke-width:0.8;"/>
   </g>
   <g id="patch_5">
    <path d="M 72 504 
L 518.4 504 
" style="fill:none;stroke:#000000;stroke-linecap:square;stroke-linejoin:miter;stroke-width:0.8;"/>
   </g>
   <g id="patch_6">
    <path d="M 72 69.12 
L 518.4 69.12 
" style="fill:none;stroke:#000000;stroke-linecap:square;stroke-linejoin:miter;stroke-width:0.8;"/>
   </g>
   <g id="legend_1">
    <g id="patch_7">
     <path d="M 352.607406 149.143369 
L 511.4 149.143369 
Q 513.4 149.143369 513.4 147.143369 
L 513.4 76.12 
Q 513.4 74.12 511.4 74.12 
L 352.607406 74.12 
Q 350.607406 74.12 350.607406 76.12 
L 350.607406 147.143369 
Q 350.607406 149.143369 352.607406 149.143369 
z
" style="fill:#ffffff;opacity:0.8;stroke:#cccccc;stroke-linejoin:miter;"/>
    </g>
    <g id="line2d_23">
     <path d="M 354.607406 81.902687 
L 374.607406 81.902687 
" style="fill:none;stroke:#0000ff;"/>
    </g>
    <g id="text_25">
     <!-- Original limit-state function -->
     <defs>
      <path d="M 38.90625 74.21875 
C 18 74.21875 3.796875 58.84375 3.796875 36.109375 
C 3.796875 13.359375 18 -2 39 -2 
C 47.796875 -2 55.703125 0.6875 61.59375 5.671875 
C 69.5 12.359375 74.203125 23.625 74.203125 35.5 
C 74.203125 58.953125 60.296875 74.21875 38.90625 74.21875 
z
M 38.90625 66 
C 54.703125 66 64.90625 54.046875 64.90625 35.703125 
C 64.90625 18.171875 54.40625 6.203125 39 6.203125 
C 23.5 6.203125 13.09375 18.171875 13.09375 36.109375 
C 13.09375 54.046875 23.5 66 38.90625 66 
z
" id="Nimbus_Sans_L_Regular-79"/>
      <path d="M 6.90625 52.484375 
L 6.90625 0 
L 15.296875 0 
L 15.296875 27.203125 
C 15.296875 34.703125 17.203125 39.609375 21.203125 42.5 
C 23.796875 44.40625 26.296875 45 32.09375 45 
L 32.09375 53.625 
C 30.703125 53.8125 30 53.8125 28.90625 53.8125 
C 23.5 53.8125 19.40625 50.625 14.59375 42.90625 
L 14.59375 52.484375 
z
" id="Nimbus_Sans_L_Regular-114"/>
      <path d="M 15 52.484375 
L 6.703125 52.484375 
L 6.703125 0 
L 15 0 
z
M 15 73 
L 6.59375 73 
L 6.59375 62.484375 
L 15 62.484375 
z
" id="Nimbus_Sans_L_Regular-105"/>
      <path d="M 41.203125 52.203125 
L 41.203125 44.59375 
C 37 50.8125 31.90625 53.71875 25.203125 53.71875 
C 11.90625 53.71875 2.90625 42.0625 2.90625 25 
C 2.90625 16.375 5.203125 9.34375 9.5 4.3125 
C 13.40625 -0.109375 19 -2.703125 24.5 -2.703125 
C 31.09375 -2.703125 35.703125 0.09375 40.40625 6.703125 
L 40.40625 4.03125 
C 40.40625 -3 39.5 -7.265625 37.40625 -10.140625 
C 35.203125 -13.1875 30.90625 -14.984375 25.796875 -14.984375 
C 22 -14.984375 18.59375 -14 16.296875 -12.234375 
C 14.40625 -10.75 13.59375 -9.375 13.09375 -6.34375 
L 4.59375 -6.34375 
C 5.5 -16.140625 13.203125 -22 25.5 -22 
C 33.296875 -22 40 -19.484375 43.40625 -15.296875 
C 47.40625 -10.484375 48.90625 -3.890625 48.90625 8.40625 
L 48.90625 52.203125 
z
M 26.09375 46 
C 35.09375 46 40.40625 38.359375 40.40625 25.203125 
C 40.40625 12.625 35 5 26.203125 5 
C 17.09375 5 11.59375 12.75 11.59375 25.5 
C 11.59375 38.15625 17.203125 46 26.09375 46 
z
" id="Nimbus_Sans_L_Regular-103"/>
      <path d="M 7 52.484375 
L 7 0 
L 15.40625 0 
L 15.40625 28.953125 
C 15.40625 39.671875 21 46.6875 29.59375 46.6875 
C 36.203125 46.6875 40.40625 42.671875 40.40625 36.359375 
L 40.40625 0 
L 48.703125 0 
L 48.703125 39.671875 
C 48.703125 48.390625 42.203125 54 32.09375 54 
C 24.296875 54 19.296875 50.984375 14.703125 43.6875 
L 14.703125 52.484375 
z
" id="Nimbus_Sans_L_Regular-110"/>
      <path d="M 53.5 5.203125 
C 52.59375 5 52.203125 5 51.703125 5 
C 48.796875 5 47.203125 6.484375 47.203125 9.078125 
L 47.203125 39.765625 
C 47.203125 49.015625 40.40625 54 27.5 54 
C 19.90625 54 13.59375 51.8125 10.09375 47.90625 
C 7.703125 45.203125 6.703125 42.21875 6.5 37.03125 
L 14.90625 37.03125 
C 15.59375 43.390625 19.40625 46.28125 27.203125 46.28125 
C 34.703125 46.28125 38.90625 43.484375 38.90625 38.515625 
L 38.90625 36.328125 
C 38.90625 32.828125 36.796875 31.34375 30.203125 30.546875 
C 18.40625 29.0625 16.59375 28.65625 13.40625 27.359375 
C 7.296875 24.875 4.203125 20.1875 4.203125 13.421875 
C 4.203125 3.96875 10.796875 -2 21.40625 -2 
C 28 -2 33.296875 0.296875 39.203125 5.703125 
C 39.796875 0.390625 42.40625 -2 47.796875 -2 
C 49.5 -2 50.796875 -1.8125 53.5 -1.09375 
z
M 38.90625 16.75 
C 38.90625 13.953125 38.09375 12.265625 35.59375 9.984375 
C 32.203125 6.890625 28.09375 5.3125 23.203125 5.3125 
C 16.703125 5.3125 12.90625 8.390625 12.90625 13.65625 
C 12.90625 19.140625 16.59375 21.921875 25.5 23.21875 
C 34.296875 24.40625 36.09375 24.8125 38.90625 26.09375 
z
" id="Nimbus_Sans_L_Regular-97"/>
      <path d="M 15.203125 73 
L 6.796875 73 
L 6.796875 -0.03125 
L 15.203125 -0.03125 
z
" id="Nimbus_Sans_L_Regular-108"/>
      <path d="M 7 52.484375 
L 7 0 
L 15.40625 0 
L 15.40625 32.953125 
C 15.40625 40.578125 20.90625 46.6875 27.703125 46.6875 
C 33.90625 46.6875 37.40625 42.875 37.40625 36.15625 
L 37.40625 0 
L 45.796875 0 
L 45.796875 32.953125 
C 45.796875 40.578125 51.296875 46.6875 58.09375 46.6875 
C 64.203125 46.6875 67.796875 42.78125 67.796875 36.15625 
L 67.796875 0 
L 76.203125 0 
L 76.203125 39.375 
C 76.203125 48.78125 70.796875 54 61 54 
C 54 54 49.796875 51.890625 44.90625 45.984375 
C 41.796875 51.59375 37.59375 54 30.796875 54 
C 23.796875 54 19.203125 51.390625 14.703125 45.078125 
L 14.703125 52.484375 
z
" id="Nimbus_Sans_L_Regular-109"/>
      <path d="M 25.40625 52.8125 
L 16.796875 52.8125 
L 16.796875 67 
L 8.5 67 
L 8.5 52.8125 
L 1.40625 52.8125 
L 1.40625 46 
L 8.5 46 
L 8.5 6.3125 
C 8.5 1 12.09375 -2 18.59375 -2 
C 20.59375 -2 22.59375 -1.8125 25.40625 -1.296875 
L 25.40625 5.71875 
C 24.296875 5.40625 23 5.3125 21.40625 5.3125 
C 17.796875 5.3125 16.796875 6.3125 16.796875 10.015625 
L 16.796875 46 
L 25.40625 46 
z
" id="Nimbus_Sans_L_Regular-116"/>
      <path d="M 28.40625 31.203125 
L 4.59375 31.203125 
L 4.59375 24 
L 28.40625 24 
z
" id="Nimbus_Sans_L_Regular-45"/>
      <path d="M 43.796875 37.921875 
C 43.703125 48.203125 36.90625 54 24.796875 54 
C 12.59375 54 4.703125 47.71875 4.703125 38.0625 
C 4.703125 29.890625 8.90625 26.015625 21.296875 23.03125 
L 29.09375 21.140625 
C 34.90625 19.734375 37.203125 17.65625 37.203125 13.875 
C 37.203125 9 32.296875 5.703125 25 5.703125 
C 20.5 5.703125 16.703125 7 14.59375 9.1875 
C 13.296875 10.6875 12.703125 12.171875 12.203125 15.84375 
L 3.40625 15.84375 
C 3.796875 3.765625 10.59375 -2 24.296875 -2 
C 37.5 -2 45.90625 4.453125 45.90625 14.515625 
C 45.90625 22.28125 41.5 26.578125 31.09375 29.0625 
L 23.09375 30.953125 
C 16.296875 32.53125 13.40625 34.734375 13.40625 38.40625 
C 13.40625 43.1875 17.703125 46.28125 24.5 46.28125 
C 31.203125 46.28125 34.796875 43.390625 35 37.921875 
z
" id="Nimbus_Sans_L_Regular-115"/>
      <path d="M 51.296875 23.890625 
C 51.296875 31.78125 50.703125 36.53125 49.203125 40.375 
C 45.796875 48.859375 37.796875 54 28 54 
C 13.40625 54 4 42.84375 4 25.703125 
C 4 8.546875 13.09375 -2 27.796875 -2 
C 39.796875 -2 48.09375 4.84375 50.203125 16.3125 
L 41.796875 16.3125 
C 39.5 9.34375 34.796875 5.703125 28.09375 5.703125 
C 22.796875 5.703125 18.296875 8.125 15.5 12.578125 
C 13.5 15.59375 12.796875 18.640625 12.703125 23.890625 
z
M 12.90625 31 
C 13.59375 40.265625 19.5 46.28125 27.90625 46.28125 
C 36.09375 46.28125 42.40625 39.53125 42.40625 31 
C 42.40625 31 42.40625 31 42.296875 31 
z
" id="Nimbus_Sans_L_Regular-101"/>
      <path d="M 25.796875 52 
L 17.09375 52 
L 17.09375 60.25 
C 17.09375 63.78125 19.09375 65.59375 22.90625 65.59375 
C 23.59375 65.59375 23.90625 65.59375 25.796875 65.59375 
L 25.796875 72.5 
C 23.90625 72.90625 22.796875 73 21.09375 73 
C 13.40625 73 8.796875 68.5625 8.796875 60.984375 
L 8.796875 52 
L 1.796875 52 
L 1.796875 45.1875 
L 8.796875 45.1875 
L 8.796875 -0.40625 
L 17.09375 -0.40625 
L 17.09375 45.1875 
L 25.796875 45.1875 
z
" id="Nimbus_Sans_L_Regular-102"/>
      <path d="M 48.203125 0.515625 
L 48.203125 53 
L 39.90625 53 
L 39.90625 23.109375 
C 39.90625 12.34375 34.296875 5.3125 25.59375 5.3125 
C 19 5.3125 14.796875 9.328125 14.796875 15.671875 
L 14.796875 53 
L 6.5 53 
L 6.5 12.375 
C 6.5 3.625 13 -2 23.203125 -2 
C 30.90625 -2 35.796875 0.703125 40.703125 7.625 
L 40.703125 0.515625 
z
" id="Nimbus_Sans_L_Regular-117"/>
      <path d="M 47.09375 34.9375 
C 46.703125 40.03125 45.59375 43.328125 43.59375 46.21875 
C 40 51.109375 33.703125 54 26.40625 54 
C 12.296875 54 3.09375 42.84375 3.09375 25.5 
C 3.09375 8.65625 12.09375 -2 26.296875 -2 
C 38.796875 -2 46.703125 5.46875 47.703125 18.234375 
L 39.296875 18.234375 
C 37.90625 9.875 33.59375 5.703125 26.5 5.703125 
C 17.296875 5.703125 11.796875 13.171875 11.796875 25.5 
C 11.796875 38.53125 17.203125 46.28125 26.296875 46.28125 
C 33.296875 46.28125 37.703125 42.203125 38.703125 34.9375 
z
" id="Nimbus_Sans_L_Regular-99"/>
      <path d="M 27.203125 54 
C 12.5 54 3.59375 43.53125 3.59375 25.984375 
C 3.59375 8.453125 12.40625 -2 27.296875 -2 
C 42 -2 51 8.453125 51 25.59375 
C 51 43.625 42.296875 54 27.203125 54 
z
M 27.296875 46.28125 
C 36.703125 46.28125 42.296875 38.625 42.296875 25.703125 
C 42.296875 13.453125 36.5 5.703125 27.296875 5.703125 
C 18 5.703125 12.296875 13.359375 12.296875 25.984375 
C 12.296875 38.53125 18 46.28125 27.296875 46.28125 
z
" id="Nimbus_Sans_L_Regular-111"/>
     </defs>
     <g transform="translate(382.607406 85.402687)scale(0.1 -0.1)">
      <use transform="scale(0.996264)" xlink:href="#Nimbus_Sans_L_Regular-79"/>
      <use transform="translate(77.50837 0)scale(0.996264)" xlink:href="#Nimbus_Sans_L_Regular-114"/>
      <use transform="translate(112.176977 0)scale(0.996264)" xlink:href="#Nimbus_Sans_L_Regular-105"/>
      <use transform="translate(134.293762 0)scale(0.996264)" xlink:href="#Nimbus_Sans_L_Regular-103"/>
      <use transform="translate(189.685439 0)scale(0.996264)" xlink:href="#Nimbus_Sans_L_Regular-105"/>
      <use transform="translate(211.802223 0)scale(0.996264)" xlink:href="#Nimbus_Sans_L_Regular-110"/>
      <use transform="translate(267.1939 0)scale(0.996264)" xlink:href="#Nimbus_Sans_L_Regular-97"/>
      <use transform="translate(322.585577 0)scale(0.996264)" xlink:href="#Nimbus_Sans_L_Regular-108"/>
      <use transform="translate(372.397531 0)scale(0.996264)" xlink:href="#Nimbus_Sans_L_Regular-108"/>
      <use transform="translate(394.514315 0)scale(0.996264)" xlink:href="#Nimbus_Sans_L_Regular-105"/>
      <use transform="translate(416.6311 0)scale(0.996264)" xlink:href="#Nimbus_Sans_L_Regular-109"/>
      <use transform="translate(499.61953 0)scale(0.996264)" xlink:href="#Nimbus_Sans_L_Regular-105"/>
      <use transform="translate(521.736314 0)scale(0.996264)" xlink:href="#Nimbus_Sans_L_Regular-116"/>
      <use transform="translate(549.431484 0)scale(0.996264)" xlink:href="#Nimbus_Sans_L_Regular-45"/>
      <use transform="translate(582.606713 0)scale(0.996264)" xlink:href="#Nimbus_Sans_L_Regular-115"/>
      <use transform="translate(632.419914 0)scale(0.996264)" xlink:href="#Nimbus_Sans_L_Regular-116"/>
      <use transform="translate(660.115084 0)scale(0.996264)" xlink:href="#Nimbus_Sans_L_Regular-97"/>
      <use transform="translate(715.506761 0)scale(0.996264)" xlink:href="#Nimbus_Sans_L_Regular-116"/>
      <use transform="translate(743.20193 0)scale(0.996264)" xlink:href="#Nimbus_Sans_L_Regular-101"/>
      <use transform="translate(826.288777 0)scale(0.996264)" xlink:href="#Nimbus_Sans_L_Regular-102"/>
      <use transform="translate(853.983946 0)scale(0.996264)" xlink:href="#Nimbus_Sans_L_Regular-117"/>
      <use transform="translate(909.375623 0)scale(0.996264)" xlink:href="#Nimbus_Sans_L_Regular-110"/>
      <use transform="translate(964.7673 0)scale(0.996264)" xlink:href="#Nimbus_Sans_L_Regular-99"/>
      <use transform="translate(1014.580501 0)scale(0.996264)" xlink:href="#Nimbus_Sans_L_Regular-116"/>
      <use transform="translate(1042.27567 0)scale(0.996264)" xlink:href="#Nimbus_Sans_L_Regular-105"/>
      <use transform="translate(1064.392455 0)scale(0.996264)" xlink:href="#Nimbus_Sans_L_Regular-111"/>
      <use transform="translate(1119.784132 0)scale(0.996264)" xlink:href="#Nimbus_Sans_L_Regular-110"/>
     </g>
    </g>
    <g id="line2d_24">
     <path d="M 354.607406 96.307361 
L 374.607406 96.307361 
" style="fill:none;stroke:#ff0000;stroke-dasharray:3.7,1.6;stroke-dashoffset:0;"/>
    </g>
    <g id="text_26">
     <!-- Surrogate limit-state function -->
     <defs>
      <path d="M 59.59375 52.109375 
C 59.5 66.484375 49.703125 74.8125 32.90625 74.8125 
C 16.90625 74.8125 7 66.5625 7 53.28125 
C 7 44.328125 11.703125 38.703125 21.296875 36.1875 
L 39.40625 31.359375 
C 48.59375 28.9375 52.796875 25.21875 52.796875 19.484375 
C 52.796875 15.546875 50.703125 11.53125 47.59375 9.328125 
C 44.703125 7.3125 40.09375 6.203125 34.203125 6.203125 
C 26.296875 6.203125 20.90625 8.125 17.40625 12.34375 
C 14.703125 15.5625 13.5 19.09375 13.59375 23.609375 
L 4.796875 23.609375 
C 4.90625 16.890625 6.203125 12.46875 9.09375 8.4375 
C 14.09375 1.609375 22.5 -2 33.59375 -2 
C 42.296875 -2 49.40625 0.015625 54.09375 3.625 
C 59 7.546875 62.09375 14.078125 62.09375 20.421875 
C 62.09375 29.46875 56.5 36.109375 46.59375 38.828125 
L 28.296875 43.765625 
C 19.5 46.171875 16.296875 48.984375 16.296875 54.625 
C 16.296875 62.0625 22.796875 67 32.59375 67 
C 44.203125 67 50.703125 61.671875 50.796875 52.109375 
z
" id="Nimbus_Sans_L_Regular-83"/>
     </defs>
     <g transform="translate(382.607406 99.807361)scale(0.1 -0.1)">
      <use transform="scale(0.996264)" xlink:href="#Nimbus_Sans_L_Regular-83"/>
      <use transform="translate(66.450031 0)scale(0.996264)" xlink:href="#Nimbus_Sans_L_Regular-117"/>
      <use transform="translate(121.841708 0)scale(0.996264)" xlink:href="#Nimbus_Sans_L_Regular-114"/>
      <use transform="translate(155.016938 0)scale(0.996264)" xlink:href="#Nimbus_Sans_L_Regular-114"/>
      <use transform="translate(188.192168 0)scale(0.996264)" xlink:href="#Nimbus_Sans_L_Regular-111"/>
      <use transform="translate(243.583845 0)scale(0.996264)" xlink:href="#Nimbus_Sans_L_Regular-103"/>
      <use transform="translate(298.975521 0)scale(0.996264)" xlink:href="#Nimbus_Sans_L_Regular-97"/>
      <use transform="translate(354.367198 0)scale(0.996264)" xlink:href="#Nimbus_Sans_L_Regular-116"/>
      <use transform="translate(382.062368 0)scale(0.996264)" xlink:href="#Nimbus_Sans_L_Regular-101"/>
      <use transform="translate(465.149215 0)scale(0.996264)" xlink:href="#Nimbus_Sans_L_Regular-108"/>
      <use transform="translate(487.265999 0)scale(0.996264)" xlink:href="#Nimbus_Sans_L_Regular-105"/>
      <use transform="translate(509.382783 0)scale(0.996264)" xlink:href="#Nimbus_Sans_L_Regular-109"/>
      <use transform="translate(592.371214 0)scale(0.996264)" xlink:href="#Nimbus_Sans_L_Regular-105"/>
      <use transform="translate(614.487998 0)scale(0.996264)" xlink:href="#Nimbus_Sans_L_Regular-116"/>
      <use transform="translate(642.183167 0)scale(0.996264)" xlink:href="#Nimbus_Sans_L_Regular-45"/>
      <use transform="translate(675.358397 0)scale(0.996264)" xlink:href="#Nimbus_Sans_L_Regular-115"/>
      <use transform="translate(725.171598 0)scale(0.996264)" xlink:href="#Nimbus_Sans_L_Regular-116"/>
      <use transform="translate(752.866767 0)scale(0.996264)" xlink:href="#Nimbus_Sans_L_Regular-97"/>
      <use transform="translate(808.258444 0)scale(0.996264)" xlink:href="#Nimbus_Sans_L_Regular-116"/>
      <use transform="translate(835.953614 0)scale(0.996264)" xlink:href="#Nimbus_Sans_L_Regular-101"/>
      <use transform="translate(919.04046 0)scale(0.996264)" xlink:href="#Nimbus_Sans_L_Regular-102"/>
      <use transform="translate(946.73563 0)scale(0.996264)" xlink:href="#Nimbus_Sans_L_Regular-117"/>
      <use transform="translate(1002.127307 0)scale(0.996264)" xlink:href="#Nimbus_Sans_L_Regular-110"/>
      <use transform="translate(1057.518984 0)scale(0.996264)" xlink:href="#Nimbus_Sans_L_Regular-99"/>
      <use transform="translate(1107.332184 0)scale(0.996264)" xlink:href="#Nimbus_Sans_L_Regular-116"/>
      <use transform="translate(1135.027354 0)scale(0.996264)" xlink:href="#Nimbus_Sans_L_Regular-105"/>
      <use transform="translate(1157.144138 0)scale(0.996264)" xlink:href="#Nimbus_Sans_L_Regular-111"/>
      <use transform="translate(1212.535815 0)scale(0.996264)" xlink:href="#Nimbus_Sans_L_Regular-110"/>
     </g>
    </g>
    <g id="PathCollection_4">
     <g>
      <use style="fill:#ff0000;fill-opacity:0.5;stroke:#ff0000;stroke-opacity:0.5;" x="364.607406" xlink:href="#m9bec1f5e81" y="111.587035"/>
     </g>
    </g>
    <g id="text_27">
     <!-- Support points: Initial -->
     <defs>
      <path d="M 5.40625 -22 
L 13.796875 -22 
L 13.796875 5 
C 18.203125 -0.421875 23.09375 -2.8125 29.90625 -2.8125 
C 43.40625 -2.8125 52.296875 8.15625 52.296875 24.984375 
C 52.296875 42.71875 43.703125 53.8125 29.796875 53.8125 
C 22.703125 53.8125 17 50.59375 13.09375 44.390625 
L 13.09375 52.328125 
L 5.40625 52.328125 
z
M 28.40625 46 
C 37.59375 46 43.59375 37.8125 43.59375 25.1875 
C 43.59375 13.171875 37.5 5 28.40625 5 
C 19.59375 5 13.796875 13.078125 13.796875 25.5 
C 13.796875 37.921875 19.59375 46 28.40625 46 
z
" id="Nimbus_Sans_L_Regular-112"/>
      <path d="M 21.40625 10.421875 
L 11 10.421875 
L 11 0 
L 21.40625 0 
z
M 21.40625 52.40625 
L 11 52.40625 
L 11 42 
L 21.40625 42 
z
" id="Nimbus_Sans_L_Regular-58"/>
      <path d="M 19.40625 73 
L 10 73 
L 10 -0.03125 
L 19.40625 -0.03125 
z
" id="Nimbus_Sans_L_Regular-73"/>
     </defs>
     <g transform="translate(382.607406 114.212035)scale(0.1 -0.1)">
      <use transform="scale(0.996264)" xlink:href="#Nimbus_Sans_L_Regular-83"/>
      <use transform="translate(66.450031 0)scale(0.996264)" xlink:href="#Nimbus_Sans_L_Regular-117"/>
      <use transform="translate(121.841708 0)scale(0.996264)" xlink:href="#Nimbus_Sans_L_Regular-112"/>
      <use transform="translate(177.233385 0)scale(0.996264)" xlink:href="#Nimbus_Sans_L_Regular-112"/>
      <use transform="translate(232.625062 0)scale(0.996264)" xlink:href="#Nimbus_Sans_L_Regular-111"/>
      <use transform="translate(288.016739 0)scale(0.996264)" xlink:href="#Nimbus_Sans_L_Regular-114"/>
      <use transform="translate(325.176067 0)scale(0.996264)" xlink:href="#Nimbus_Sans_L_Regular-116"/>
      <use transform="translate(380.566406 0)scale(0.996264)" xlink:href="#Nimbus_Sans_L_Regular-112"/>
      <use transform="translate(435.958083 0)scale(0.996264)" xlink:href="#Nimbus_Sans_L_Regular-111"/>
      <use transform="translate(491.34976 0)scale(0.996264)" xlink:href="#Nimbus_Sans_L_Regular-105"/>
      <use transform="translate(513.466545 0)scale(0.996264)" xlink:href="#Nimbus_Sans_L_Regular-110"/>
      <use transform="translate(568.858221 0)scale(0.996264)" xlink:href="#Nimbus_Sans_L_Regular-116"/>
      <use transform="translate(596.553391 0)scale(0.996264)" xlink:href="#Nimbus_Sans_L_Regular-115"/>
      <use transform="translate(646.366592 0)scale(0.996264)" xlink:href="#Nimbus_Sans_L_Regular-58"/>
      <use transform="translate(708.331413 0)scale(0.996264)" xlink:href="#Nimbus_Sans_L_Regular-73"/>
      <use transform="translate(736.026582 0)scale(0.996264)" xlink:href="#Nimbus_Sans_L_Regular-110"/>
      <use transform="translate(791.418259 0)scale(0.996264)" xlink:href="#Nimbus_Sans_L_Regular-105"/>
      <use transform="translate(813.535044 0)scale(0.996264)" xlink:href="#Nimbus_Sans_L_Regular-116"/>
      <use transform="translate(841.230213 0)scale(0.996264)" xlink:href="#Nimbus_Sans_L_Regular-105"/>
      <use transform="translate(863.346998 0)scale(0.996264)" xlink:href="#Nimbus_Sans_L_Regular-97"/>
      <use transform="translate(918.738675 0)scale(0.996264)" xlink:href="#Nimbus_Sans_L_Regular-108"/>
     </g>
    </g>
    <g id="PathCollection_5">
     <g>
      <use style="fill:#008000;fill-opacity:0.5;stroke:#008000;stroke-opacity:0.5;" x="364.607406" xlink:href="#m0139ade95c" y="125.991709"/>
     </g>
    </g>
    <g id="text_28">
     <!-- Support points: Stage 1 -->
     <defs>
      <path d="M 25.90625 50.59375 
L 25.90625 0 
L 34.703125 0 
L 34.703125 71.015625 
L 28.90625 71.015625 
C 25.796875 60.109375 23.796875 58.609375 10.203125 56.90625 
L 10.203125 50.59375 
z
" id="Nimbus_Sans_L_Regular-49"/>
     </defs>
     <g transform="translate(382.607406 128.616709)scale(0.1 -0.1)">
      <use transform="scale(0.996264)" xlink:href="#Nimbus_Sans_L_Regular-83"/>
      <use transform="translate(66.450031 0)scale(0.996264)" xlink:href="#Nimbus_Sans_L_Regular-117"/>
      <use transform="translate(121.841708 0)scale(0.996264)" xlink:href="#Nimbus_Sans_L_Regular-112"/>
      <use transform="translate(177.233385 0)scale(0.996264)" xlink:href="#Nimbus_Sans_L_Regular-112"/>
      <use transform="translate(232.625062 0)scale(0.996264)" xlink:href="#Nimbus_Sans_L_Regular-111"/>
      <use transform="translate(288.016739 0)scale(0.996264)" xlink:href="#Nimbus_Sans_L_Regular-114"/>
      <use transform="translate(325.176067 0)scale(0.996264)" xlink:href="#Nimbus_Sans_L_Regular-116"/>
      <use transform="translate(380.566406 0)scale(0.996264)" xlink:href="#Nimbus_Sans_L_Regular-112"/>
      <use transform="translate(435.958083 0)scale(0.996264)" xlink:href="#Nimbus_Sans_L_Regular-111"/>
      <use transform="translate(491.34976 0)scale(0.996264)" xlink:href="#Nimbus_Sans_L_Regular-105"/>
      <use transform="translate(513.466545 0)scale(0.996264)" xlink:href="#Nimbus_Sans_L_Regular-110"/>
      <use transform="translate(568.858221 0)scale(0.996264)" xlink:href="#Nimbus_Sans_L_Regular-116"/>
      <use transform="translate(596.553391 0)scale(0.996264)" xlink:href="#Nimbus_Sans_L_Regular-115"/>
      <use transform="translate(646.366592 0)scale(0.996264)" xlink:href="#Nimbus_Sans_L_Regular-58"/>
      <use transform="translate(708.331413 0)scale(0.996264)" xlink:href="#Nimbus_Sans_L_Regular-83"/>
      <use transform="translate(774.781444 0)scale(0.996264)" xlink:href="#Nimbus_Sans_L_Regular-116"/>
      <use transform="translate(802.476614 0)scale(0.996264)" xlink:href="#Nimbus_Sans_L_Regular-97"/>
      <use transform="translate(857.868291 0)scale(0.996264)" xlink:href="#Nimbus_Sans_L_Regular-103"/>
      <use transform="translate(913.259968 0)scale(0.996264)" xlink:href="#Nimbus_Sans_L_Regular-101"/>
      <use transform="translate(996.346814 0)scale(0.996264)" xlink:href="#Nimbus_Sans_L_Regular-49"/>
     </g>
    </g>
    <g id="PathCollection_6">
     <g>
      <use style="fill:#008000;fill-opacity:0.5;stroke:#008000;stroke-opacity:0.5;stroke-width:1.5;" x="364.607406" xlink:href="#m0f0c5456df" y="140.396383"/>
     </g>
    </g>
    <g id="text_29">
     <!-- Support points: Stage 2 -->
     <defs>
      <path d="M 50.59375 8.71875 
L 13.296875 8.71875 
C 14.203125 14.53125 17.40625 18.234375 26.09375 23.34375 
L 36.09375 28.75 
C 46 34.15625 51.09375 41.453125 51.09375 50.171875 
C 51.09375 56.078125 48.703125 61.59375 44.5 65.390625 
C 40.296875 69.203125 35.09375 71 28.40625 71 
C 19.40625 71 12.703125 67.796875 8.796875 61.796875 
C 6.296875 57.984375 5.203125 53.578125 5 46.359375 
L 13.796875 46.359375 
C 14.09375 51.171875 14.703125 54.078125 15.90625 56.375 
C 18.203125 60.6875 22.796875 63.296875 28.09375 63.296875 
C 36.09375 63.296875 42.09375 57.578125 42.09375 49.96875 
C 42.09375 44.359375 38.796875 39.546875 32.5 35.953125 
L 23.296875 30.75 
C 8.5 22.34375 4.203125 15.625 3.40625 0 
L 50.59375 0 
z
" id="Nimbus_Sans_L_Regular-50"/>
     </defs>
     <g transform="translate(382.607406 143.021383)scale(0.1 -0.1)">
      <use transform="scale(0.996264)" xlink:href="#Nimbus_Sans_L_Regular-83"/>
      <use transform="translate(66.450031 0)scale(0.996264)" xlink:href="#Nimbus_Sans_L_Regular-117"/>
      <use transform="translate(121.841708 0)scale(0.996264)" xlink:href="#Nimbus_Sans_L_Regular-112"/>
      <use transform="translate(177.233385 0)scale(0.996264)" xlink:href="#Nimbus_Sans_L_Regular-112"/>
      <use transform="translate(232.625062 0)scale(0.996264)" xlink:href="#Nimbus_Sans_L_Regular-111"/>
      <use transform="translate(288.016739 0)scale(0.996264)" xlink:href="#Nimbus_Sans_L_Regular-114"/>
      <use transform="translate(325.176067 0)scale(0.996264)" xlink:href="#Nimbus_Sans_L_Regular-116"/>
      <use transform="translate(380.566406 0)scale(0.996264)" xlink:href="#Nimbus_Sans_L_Regular-112"/>
      <use transform="translate(435.958083 0)scale(0.996264)" xlink:href="#Nimbus_Sans_L_Regular-111"/>
      <use transform="translate(491.34976 0)scale(0.996264)" xlink:href="#Nimbus_Sans_L_Regular-105"/>
      <use transform="translate(513.466545 0)scale(0.996264)" xlink:href="#Nimbus_Sans_L_Regular-110"/>
      <use transform="translate(568.858221 0)scale(0.996264)" xlink:href="#Nimbus_Sans_L_Regular-116"/>
      <use transform="translate(596.553391 0)scale(0.996264)" xlink:href="#Nimbus_Sans_L_Regular-115"/>
      <use transform="translate(646.366592 0)scale(0.996264)" xlink:href="#Nimbus_Sans_L_Regular-58"/>
      <use transform="translate(708.331413 0)scale(0.996264)" xlink:href="#Nimbus_Sans_L_Regular-83"/>
      <use transform="translate(774.781444 0)scale(0.996264)" xlink:href="#Nimbus_Sans_L_Regular-116"/>
      <use transform="translate(802.476614 0)scale(0.996264)" xlink:href="#Nimbus_Sans_L_Regular-97"/>
      <use transform="translate(857.868291 0)scale(0.996264)" xlink:href="#Nimbus_Sans_L_Regular-103"/>
      <use transform="translate(913.259968 0)scale(0.996264)" xlink:href="#Nimbus_Sans_L_Regular-101"/>
      <use transform="translate(996.346814 0)scale(0.996264)" xlink:href="#Nimbus_Sans_L_Regular-50"/>
     </g>
    </g>
   </g>
  </g>
 </g>
 <defs>
  <clipPath id="p0a3c3bca3f">
   <rect height="434.88" width="446.4" x="72" y="69.12"/>
  </clipPath>
 </defs>
</svg>
