<?xml version="1.0" encoding="utf-8" standalone="no"?>
<!DOCTYPE svg PUBLIC "-//W3C//DTD SVG 1.1//EN"
  "http://www.w3.org/Graphics/SVG/1.1/DTD/svg11.dtd">
<!-- Created with matplotlib (http://matplotlib.org/) -->
<svg height="432pt" version="1.1" viewBox="0 0 576 432" width="576pt" xmlns="http://www.w3.org/2000/svg" xmlns:xlink="http://www.w3.org/1999/xlink">
 <defs>
  <style type="text/css">
*{stroke-linecap:butt;stroke-linejoin:round;}
  </style>
 </defs>
 <g id="figure_1">
  <g id="patch_1">
   <path d="M 0 432 
L 576 432 
L 576 0 
L 0 0 
z
" style="fill:#ffffff;"/>
  </g>
  <g id="axes_1">
   <g id="patch_2">
    <path d="M 72 378 
L 518.4 378 
L 518.4 51.84 
L 72 51.84 
z
" style="fill:#ffffff;"/>
   </g>
   <g id="PathCollection_1">
    <defs>
     <path d="M 0 3 
C 0.795609 3 1.55874 2.683901 2.12132 2.12132 
C 2.683901 1.55874 3 0.795609 3 0 
C 3 -0.795609 2.683901 -1.55874 2.12132 -2.12132 
C 1.55874 -2.683901 0.795609 -3 0 -3 
C -0.795609 -3 -1.55874 -2.683901 -2.12132 -2.12132 
C -2.683901 -1.55874 -3 -0.795609 -3 0 
C -3 0.795609 -2.683901 1.55874 -2.12132 2.12132 
C -1.55874 2.683901 -0.795609 3 0 3 
z
" id="md0ce796da9" style="stroke:#ff0000;stroke-opacity:0.5;"/>
    </defs>
    <g clip-path="url(#p400aea1b63)">
     <use style="fill:#ff0000;fill-opacity:0.5;stroke:#ff0000;stroke-opacity:0.5;" x="347.149885" xlink:href="#md0ce796da9" y="330.013298"/>
     <use style="fill:#ff0000;fill-opacity:0.5;stroke:#ff0000;stroke-opacity:0.5;" x="137.672925" xlink:href="#md0ce796da9" y="241.591689"/>
     <use style="fill:#ff0000;fill-opacity:0.5;stroke:#ff0000;stroke-opacity:0.5;" x="110.158991" xlink:href="#md0ce796da9" y="360.966776"/>
     <use style="fill:#ff0000;fill-opacity:0.5;stroke:#ff0000;stroke-opacity:0.5;" x="105.793844" xlink:href="#md0ce796da9" y="220.059607"/>
     <use style="fill:#ff0000;fill-opacity:0.5;stroke:#ff0000;stroke-opacity:0.5;" x="170.097017" xlink:href="#md0ce796da9" y="254.077873"/>
     <use style="fill:#ff0000;fill-opacity:0.5;stroke:#ff0000;stroke-opacity:0.5;" x="201.599267" xlink:href="#md0ce796da9" y="118.162602"/>
     <use style="fill:#ff0000;fill-opacity:0.5;stroke:#ff0000;stroke-opacity:0.5;" x="326.903814" xlink:href="#md0ce796da9" y="157.347615"/>
     <use style="fill:#ff0000;fill-opacity:0.5;stroke:#ff0000;stroke-opacity:0.5;" x="182.262904" xlink:href="#md0ce796da9" y="143.712639"/>
     <use style="fill:#ff0000;fill-opacity:0.5;stroke:#ff0000;stroke-opacity:0.5;" x="104.686521" xlink:href="#md0ce796da9" y="170.83498"/>
     <use style="fill:#ff0000;fill-opacity:0.5;stroke:#ff0000;stroke-opacity:0.5;" x="424.680107" xlink:href="#md0ce796da9" y="139.703628"/>
     <use style="fill:#ff0000;fill-opacity:0.5;stroke:#ff0000;stroke-opacity:0.5;" x="275.206512" xlink:href="#md0ce796da9" y="303.518466"/>
     <use style="fill:#ff0000;fill-opacity:0.5;stroke:#ff0000;stroke-opacity:0.5;" x="171.261689" xlink:href="#md0ce796da9" y="295.898634"/>
    </g>
   </g>
   <g id="PathCollection_2">
    <defs>
     <path d="M 0 -3 
L -3 3 
L 3 3 
z
" id="mf7008ecf2a" style="stroke:#008000;stroke-opacity:0.5;"/>
    </defs>
    <g clip-path="url(#p400aea1b63)">
     <use style="fill:#008000;fill-opacity:0.5;stroke:#008000;stroke-opacity:0.5;" x="496.922441" xlink:href="#mf7008ecf2a" y="254.877435"/>
     <use style="fill:#008000;fill-opacity:0.5;stroke:#008000;stroke-opacity:0.5;" x="497.511236" xlink:href="#mf7008ecf2a" y="360.886362"/>
     <use style="fill:#008000;fill-opacity:0.5;stroke:#008000;stroke-opacity:0.5;" x="366.589563" xlink:href="#mf7008ecf2a" y="240.65614"/>
     <use style="fill:#008000;fill-opacity:0.5;stroke:#008000;stroke-opacity:0.5;" x="93.43845" xlink:href="#mf7008ecf2a" y="94.707082"/>
     <use style="fill:#008000;fill-opacity:0.5;stroke:#008000;stroke-opacity:0.5;" x="263.609621" xlink:href="#mf7008ecf2a" y="217.775628"/>
     <use style="fill:#008000;fill-opacity:0.5;stroke:#008000;stroke-opacity:0.5;" x="219.285405" xlink:href="#mf7008ecf2a" y="363.324903"/>
     <use style="fill:#008000;fill-opacity:0.5;stroke:#008000;stroke-opacity:0.5;" x="311.2582" xlink:href="#mf7008ecf2a" y="92.902264"/>
     <use style="fill:#008000;fill-opacity:0.5;stroke:#008000;stroke-opacity:0.5;" x="496.877824" xlink:href="#mf7008ecf2a" y="187.990864"/>
     <use style="fill:#008000;fill-opacity:0.5;stroke:#008000;stroke-opacity:0.5;" x="494.241881" xlink:href="#mf7008ecf2a" y="92.802107"/>
     <use style="fill:#008000;fill-opacity:0.5;stroke:#008000;stroke-opacity:0.5;" x="429.906555" xlink:href="#mf7008ecf2a" y="299.354596"/>
     <use style="fill:#008000;fill-opacity:0.5;stroke:#008000;stroke-opacity:0.5;" x="379.717744" xlink:href="#mf7008ecf2a" y="191.733948"/>
     <use style="fill:#008000;fill-opacity:0.5;stroke:#008000;stroke-opacity:0.5;" x="436.515596" xlink:href="#mf7008ecf2a" y="227.772086"/>
     <use style="fill:#008000;fill-opacity:0.5;stroke:#008000;stroke-opacity:0.5;" x="172.682579" xlink:href="#mf7008ecf2a" y="194.701129"/>
     <use style="fill:#008000;fill-opacity:0.5;stroke:#008000;stroke-opacity:0.5;" x="256.902167" xlink:href="#mf7008ecf2a" y="146.418195"/>
     <use style="fill:#008000;fill-opacity:0.5;stroke:#008000;stroke-opacity:0.5;" x="92.515865" xlink:href="#mf7008ecf2a" y="287.632393"/>
     <use style="fill:#008000;fill-opacity:0.5;stroke:#008000;stroke-opacity:0.5;" x="256.417193" xlink:href="#mf7008ecf2a" y="109.503219"/>
     <use style="fill:#008000;fill-opacity:0.5;stroke:#008000;stroke-opacity:0.5;" x="306.57948" xlink:href="#mf7008ecf2a" y="126.050843"/>
     <use style="fill:#008000;fill-opacity:0.5;stroke:#008000;stroke-opacity:0.5;" x="294.024866" xlink:href="#mf7008ecf2a" y="362.830426"/>
     <use style="fill:#008000;fill-opacity:0.5;stroke:#008000;stroke-opacity:0.5;" x="408.352896" xlink:href="#mf7008ecf2a" y="363.51137"/>
     <use style="fill:#008000;fill-opacity:0.5;stroke:#008000;stroke-opacity:0.5;" x="388.779076" xlink:href="#mf7008ecf2a" y="93.932941"/>
     <use style="fill:#008000;fill-opacity:0.5;stroke:#008000;stroke-opacity:0.5;" x="143.901173" xlink:href="#mf7008ecf2a" y="154.615671"/>
     <use style="fill:#008000;fill-opacity:0.5;stroke:#008000;stroke-opacity:0.5;" x="133.216853" xlink:href="#mf7008ecf2a" y="194.329341"/>
     <use style="fill:#008000;fill-opacity:0.5;stroke:#008000;stroke-opacity:0.5;" x="209.73189" xlink:href="#mf7008ecf2a" y="93.039165"/>
     <use style="fill:#008000;fill-opacity:0.5;stroke:#008000;stroke-opacity:0.5;" x="409.701625" xlink:href="#mf7008ecf2a" y="210.053551"/>
     <use style="fill:#008000;fill-opacity:0.5;stroke:#008000;stroke-opacity:0.5;" x="359.792048" xlink:href="#mf7008ecf2a" y="169.746893"/>
     <use style="fill:#008000;fill-opacity:0.5;stroke:#008000;stroke-opacity:0.5;" x="240.435714" xlink:href="#mf7008ecf2a" y="262.145137"/>
     <use style="fill:#008000;fill-opacity:0.5;stroke:#008000;stroke-opacity:0.5;" x="469.758161" xlink:href="#mf7008ecf2a" y="237.224402"/>
     <use style="fill:#008000;fill-opacity:0.5;stroke:#008000;stroke-opacity:0.5;" x="497.106158" xlink:href="#mf7008ecf2a" y="296.290067"/>
     <use style="fill:#008000;fill-opacity:0.5;stroke:#008000;stroke-opacity:0.5;" x="152.523777" xlink:href="#mf7008ecf2a" y="131.918085"/>
     <use style="fill:#008000;fill-opacity:0.5;stroke:#008000;stroke-opacity:0.5;" x="92.471358" xlink:href="#mf7008ecf2a" y="246.05685"/>
     <use style="fill:#008000;fill-opacity:0.5;stroke:#008000;stroke-opacity:0.5;" x="312.373422" xlink:href="#mf7008ecf2a" y="194.75066"/>
     <use style="fill:#008000;fill-opacity:0.5;stroke:#008000;stroke-opacity:0.5;" x="289.037459" xlink:href="#mf7008ecf2a" y="170.923273"/>
     <use style="fill:#008000;fill-opacity:0.5;stroke:#008000;stroke-opacity:0.5;" x="328.696647" xlink:href="#mf7008ecf2a" y="177.845215"/>
     <use style="fill:#008000;fill-opacity:0.5;stroke:#008000;stroke-opacity:0.5;" x="120.558956" xlink:href="#mf7008ecf2a" y="137.366332"/>
     <use style="fill:#008000;fill-opacity:0.5;stroke:#008000;stroke-opacity:0.5;" x="159.034298" xlink:href="#mf7008ecf2a" y="98.506302"/>
     <use style="fill:#008000;fill-opacity:0.5;stroke:#008000;stroke-opacity:0.5;" x="292.610629" xlink:href="#mf7008ecf2a" y="108.352483"/>
    </g>
   </g>
   <g id="PathCollection_3">
    <defs>
     <path d="M -3 0 
L 3 0 
M 0 3 
L 0 -3 
" id="m33b1bf7549" style="stroke:#008000;stroke-opacity:0.5;stroke-width:1.5;"/>
    </defs>
    <g clip-path="url(#p400aea1b63)">
     <use style="fill:#008000;fill-opacity:0.5;stroke:#008000;stroke-opacity:0.5;stroke-width:1.5;" x="312.146039" xlink:href="#m33b1bf7549" y="269.382274"/>
     <use style="fill:#008000;fill-opacity:0.5;stroke:#008000;stroke-opacity:0.5;stroke-width:1.5;" x="312.748976" xlink:href="#m33b1bf7549" y="232.100029"/>
     <use style="fill:#008000;fill-opacity:0.5;stroke:#008000;stroke-opacity:0.5;stroke-width:1.5;" x="320.611811" xlink:href="#m33b1bf7549" y="213.368"/>
     <use style="fill:#008000;fill-opacity:0.5;stroke:#008000;stroke-opacity:0.5;stroke-width:1.5;" x="291.872669" xlink:href="#m33b1bf7549" y="250.251715"/>
     <use style="fill:#008000;fill-opacity:0.5;stroke:#008000;stroke-opacity:0.5;stroke-width:1.5;" x="326.47384" xlink:href="#m33b1bf7549" y="250.853015"/>
     <use style="fill:#008000;fill-opacity:0.5;stroke:#008000;stroke-opacity:0.5;stroke-width:1.5;" x="338.110803" xlink:href="#m33b1bf7549" y="290.298168"/>
     <use style="fill:#008000;fill-opacity:0.5;stroke:#008000;stroke-opacity:0.5;stroke-width:1.5;" x="298.6016" xlink:href="#m33b1bf7549" y="207.337594"/>
     <use style="fill:#008000;fill-opacity:0.5;stroke:#008000;stroke-opacity:0.5;stroke-width:1.5;" x="304.405691" xlink:href="#m33b1bf7549" y="180.957041"/>
     <use style="fill:#008000;fill-opacity:0.5;stroke:#008000;stroke-opacity:0.5;stroke-width:1.5;" x="306.346654" xlink:href="#m33b1bf7549" y="220.810627"/>
     <use style="fill:#008000;fill-opacity:0.5;stroke:#008000;stroke-opacity:0.5;stroke-width:1.5;" x="313.549313" xlink:href="#m33b1bf7549" y="205.0232"/>
     <use style="fill:#008000;fill-opacity:0.5;stroke:#008000;stroke-opacity:0.5;stroke-width:1.5;" x="205.442968" xlink:href="#m33b1bf7549" y="224.535699"/>
     <use style="fill:#008000;fill-opacity:0.5;stroke:#008000;stroke-opacity:0.5;stroke-width:1.5;" x="300.809043" xlink:href="#m33b1bf7549" y="154.533122"/>
     <use style="fill:#008000;fill-opacity:0.5;stroke:#008000;stroke-opacity:0.5;stroke-width:1.5;" x="310.862142" xlink:href="#m33b1bf7549" y="245.031371"/>
     <use style="fill:#008000;fill-opacity:0.5;stroke:#008000;stroke-opacity:0.5;stroke-width:1.5;" x="401.497294" xlink:href="#m33b1bf7549" y="231.122394"/>
     <use style="fill:#008000;fill-opacity:0.5;stroke:#008000;stroke-opacity:0.5;stroke-width:1.5;" x="312.15786" xlink:href="#m33b1bf7549" y="256.522128"/>
     <use style="fill:#008000;fill-opacity:0.5;stroke:#008000;stroke-opacity:0.5;stroke-width:1.5;" x="382.552637" xlink:href="#m33b1bf7549" y="210.20445"/>
     <use style="fill:#008000;fill-opacity:0.5;stroke:#008000;stroke-opacity:0.5;stroke-width:1.5;" x="307.910554" xlink:href="#m33b1bf7549" y="211.968448"/>
     <use style="fill:#008000;fill-opacity:0.5;stroke:#008000;stroke-opacity:0.5;stroke-width:1.5;" x="324.265199" xlink:href="#m33b1bf7549" y="188.344537"/>
     <use style="fill:#008000;fill-opacity:0.5;stroke:#008000;stroke-opacity:0.5;stroke-width:1.5;" x="304.553327" xlink:href="#m33b1bf7549" y="188.54079"/>
     <use style="fill:#008000;fill-opacity:0.5;stroke:#008000;stroke-opacity:0.5;stroke-width:1.5;" x="308.055328" xlink:href="#m33b1bf7549" y="199.994246"/>
     <use style="fill:#008000;fill-opacity:0.5;stroke:#008000;stroke-opacity:0.5;stroke-width:1.5;" x="207.981769" xlink:href="#m33b1bf7549" y="240.204327"/>
     <use style="fill:#008000;fill-opacity:0.5;stroke:#008000;stroke-opacity:0.5;stroke-width:1.5;" x="317.632852" xlink:href="#m33b1bf7549" y="199.454459"/>
    </g>
   </g>
   <g id="matplotlib.axis_1">
    <g id="xtick_1">
     <g id="line2d_1">
      <defs>
       <path d="M 0 0 
L 0 3.5 
" id="m59f8381d27" style="stroke:#000000;stroke-width:0.8;"/>
      </defs>
      <g>
       <use style="stroke:#000000;stroke-width:0.8;" x="72" xlink:href="#m59f8381d27" y="378"/>
      </g>
     </g>
     <g id="text_1">
      <!-- $-4$ -->
      <defs>
       <path d="M 65.90625 23 
C 67.59375 23 69.40625 23 69.40625 25 
C 69.40625 27 67.59375 27 65.90625 27 
L 11.796875 27 
C 10.09375 27 8.296875 27 8.296875 25 
C 8.296875 23 10.09375 23 11.796875 23 
z
" id="CMSY10-0"/>
       <path d="M 33.59375 64.40625 
C 33.59375 66.5 33.5 66.5 31.703125 66.5 
L 2 19.59375 
L 2 17 
L 27.796875 17 
L 27.796875 7.140625 
C 27.796875 3.5 27.59375 2.5 20.59375 2.5 
L 18.703125 2.5 
L 18.703125 0 
C 21.90625 0 27.296875 0 30.703125 0 
C 34.09375 0 39.5 0 42.703125 0 
L 42.703125 2.5 
L 40.796875 2.5 
C 33.796875 2.5 33.59375 3.5 33.59375 7.140625 
L 33.59375 17 
L 43.796875 17 
L 43.796875 19.59375 
L 33.59375 19.59375 
z
M 28.09375 57.859375 
L 28.09375 19.59375 
L 4 19.59375 
z
" id="CMR17-52"/>
      </defs>
      <g transform="translate(64.42426 393.517984)scale(0.12 -0.12)">
       <use transform="scale(0.996264)" xlink:href="#CMSY10-0"/>
       <use transform="translate(77.487468 0)scale(0.996264)" xlink:href="#CMR17-52"/>
      </g>
     </g>
    </g>
    <g id="xtick_2">
     <g id="line2d_2">
      <g>
       <use style="stroke:#000000;stroke-width:0.8;" x="112.581818" xlink:href="#m59f8381d27" y="378"/>
      </g>
     </g>
     <g id="text_2">
      <!-- $-3$ -->
      <defs>
       <path d="M 22.09375 33.703125 
C 31 33.703125 34.90625 25.96875 34.90625 17.03125 
C 34.90625 5 28.5 0.390625 22.703125 0.390625 
C 17.40625 0.390625 8.796875 3.03125 6.09375 10.828125 
C 6.59375 10.625 7.09375 10.625 7.59375 10.625 
C 10 10.625 11.796875 12.21875 11.796875 14.8125 
C 11.796875 17.703125 9.59375 19 7.59375 19 
C 5.90625 19 3.296875 18.203125 3.296875 14.46875 
C 3.296875 5.234375 12.296875 -2 22.90625 -2 
C 34 -2 42.5 6.71875 42.5 16.953125 
C 42.5 26.671875 34.5 33.703125 25 34.796875 
C 32.59375 36.375 39.90625 43.0625 39.90625 52.015625 
C 39.90625 59.6875 32 65.296875 23 65.296875 
C 13.90625 65.296875 5.90625 59.828125 5.90625 52.015625 
C 5.90625 48.59375 8.5 48 9.796875 48 
C 11.90625 48 13.703125 49.296875 13.703125 51.890625 
C 13.703125 54.46875 11.90625 55.765625 9.796875 55.765625 
C 9.40625 55.765625 8.90625 55.765625 8.5 55.578125 
C 11.40625 61.859375 19.296875 63 22.796875 63 
C 26.296875 63 32.90625 61.328125 32.90625 51.875 
C 32.90625 49.109375 32.5 44.1875 29.09375 39.84375 
C 26.09375 36 22.703125 36 19.40625 35.6875 
C 18.90625 35.6875 16.59375 35.453125 16.203125 35.453125 
C 15.5 35.359375 15.09375 35.265625 15.09375 34.5 
C 15.09375 33.796875 15.203125 33.703125 17.203125 33.703125 
z
" id="CMR17-51"/>
      </defs>
      <g transform="translate(105.006078 393.517984)scale(0.12 -0.12)">
       <use transform="scale(0.996264)" xlink:href="#CMSY10-0"/>
       <use transform="translate(77.487468 0)scale(0.996264)" xlink:href="#CMR17-51"/>
      </g>
     </g>
    </g>
    <g id="xtick_3">
     <g id="line2d_3">
      <g>
       <use style="stroke:#000000;stroke-width:0.8;" x="153.163636" xlink:href="#m59f8381d27" y="378"/>
      </g>
     </g>
     <g id="text_3">
      <!-- $-2$ -->
      <defs>
       <path d="M 41.703125 15.453125 
L 39.90625 15.453125 
C 38.90625 8.375 38.09375 7.171875 37.703125 6.5625 
C 37.203125 5.765625 30 5.765625 28.59375 5.765625 
L 9.40625 5.765625 
C 13 9.671875 20 16.75 28.5 24.953125 
C 34.59375 30.734375 41.703125 37.53125 41.703125 47.421875 
C 41.703125 59.21875 32.296875 66 21.796875 66 
C 10.796875 66 4.09375 56.3125 4.09375 47.34375 
C 4.09375 43.4375 7 42.9375 8.203125 42.9375 
C 9.203125 42.9375 12.203125 43.546875 12.203125 47.03125 
C 12.203125 50.109375 9.59375 51 8.203125 51 
C 7.59375 51 7 50.90625 6.59375 50.703125 
C 8.5 59.21875 14.296875 63.40625 20.40625 63.40625 
C 29.09375 63.40625 34.796875 56.515625 34.796875 47.421875 
C 34.796875 38.734375 29.703125 31.25 24 24.75 
L 4.09375 2.28125 
L 4.09375 0 
L 39.296875 0 
z
" id="CMR17-50"/>
      </defs>
      <g transform="translate(145.587897 393.517984)scale(0.12 -0.12)">
       <use transform="scale(0.996264)" xlink:href="#CMSY10-0"/>
       <use transform="translate(77.487468 0)scale(0.996264)" xlink:href="#CMR17-50"/>
      </g>
     </g>
    </g>
    <g id="xtick_4">
     <g id="line2d_4">
      <g>
       <use style="stroke:#000000;stroke-width:0.8;" x="193.745455" xlink:href="#m59f8381d27" y="378"/>
      </g>
     </g>
     <g id="text_4">
      <!-- $-1$ -->
      <defs>
       <path d="M 26.59375 63.40625 
C 26.59375 65.5 26.5 65.5 25.09375 65.5 
C 21.203125 61.1875 15.296875 59.796875 9.703125 59.796875 
C 9.40625 59.796875 8.90625 59.796875 8.796875 59.5 
C 8.703125 59.296875 8.703125 59.09375 8.703125 57 
C 11.796875 57 17 57.59375 21 59.984375 
L 21 7.203125 
C 21 3.6875 20.796875 2.5 12.203125 2.5 
L 9.203125 2.5 
L 9.203125 0 
C 14 0 19 0 23.796875 0 
C 28.59375 0 33.59375 0 38.40625 0 
L 38.40625 2.5 
L 35.40625 2.5 
C 26.796875 2.5 26.59375 3.59375 26.59375 7.15625 
z
" id="CMR17-49"/>
      </defs>
      <g transform="translate(186.169715 393.517984)scale(0.12 -0.12)">
       <use transform="scale(0.996264)" xlink:href="#CMSY10-0"/>
       <use transform="translate(77.487468 0)scale(0.996264)" xlink:href="#CMR17-49"/>
      </g>
     </g>
    </g>
    <g id="xtick_5">
     <g id="line2d_5">
      <g>
       <use style="stroke:#000000;stroke-width:0.8;" x="234.327273" xlink:href="#m59f8381d27" y="378"/>
      </g>
     </g>
     <g id="text_5">
      <!-- $0$ -->
      <defs>
       <path d="M 42 31.640625 
C 42 37.75 41.90625 48.125 37.703125 56.109375 
C 34 63.109375 28.09375 65.59375 22.90625 65.59375 
C 18.09375 65.59375 12 63.40625 8.203125 56.203125 
C 4.203125 48.71875 3.796875 39.4375 3.796875 31.640625 
C 3.796875 25.953125 3.90625 17.28125 7 9.671875 
C 11.296875 -0.609375 19 -2 22.90625 -2 
C 27.5 -2 34.5 -0.109375 38.59375 9.375 
C 41.59375 16.28125 42 24.359375 42 31.640625 
z
M 22.90625 -0.40625 
C 16.5 -0.40625 12.703125 5.078125 11.296875 12.6875 
C 10.203125 18.5625 10.203125 27.15625 10.203125 32.75 
C 10.203125 40.4375 10.203125 46.828125 11.5 52.921875 
C 13.40625 61.390625 19 64 22.90625 64 
C 27 64 32.296875 61.296875 34.203125 53.125 
C 35.5 47.4375 35.59375 40.734375 35.59375 32.75 
C 35.59375 26.25 35.59375 18.265625 34.40625 12.375 
C 32.296875 1.484375 26.40625 -0.40625 22.90625 -0.40625 
z
" id="CMR17-48"/>
      </defs>
      <g transform="translate(231.400778 393.517984)scale(0.12 -0.12)">
       <use transform="scale(0.996264)" xlink:href="#CMR17-48"/>
      </g>
     </g>
    </g>
    <g id="xtick_6">
     <g id="line2d_6">
      <g>
       <use style="stroke:#000000;stroke-width:0.8;" x="274.909091" xlink:href="#m59f8381d27" y="378"/>
      </g>
     </g>
     <g id="text_6">
      <!-- $1$ -->
      <g transform="translate(271.982596 393.517984)scale(0.12 -0.12)">
       <use transform="scale(0.996264)" xlink:href="#CMR17-49"/>
      </g>
     </g>
    </g>
    <g id="xtick_7">
     <g id="line2d_7">
      <g>
       <use style="stroke:#000000;stroke-width:0.8;" x="315.490909" xlink:href="#m59f8381d27" y="378"/>
      </g>
     </g>
     <g id="text_7">
      <!-- $2$ -->
      <g transform="translate(312.564414 393.517984)scale(0.12 -0.12)">
       <use transform="scale(0.996264)" xlink:href="#CMR17-50"/>
      </g>
     </g>
    </g>
    <g id="xtick_8">
     <g id="line2d_8">
      <g>
       <use style="stroke:#000000;stroke-width:0.8;" x="356.072727" xlink:href="#m59f8381d27" y="378"/>
      </g>
     </g>
     <g id="text_8">
      <!-- $3$ -->
      <g transform="translate(353.146232 393.517984)scale(0.12 -0.12)">
       <use transform="scale(0.996264)" xlink:href="#CMR17-51"/>
      </g>
     </g>
    </g>
    <g id="xtick_9">
     <g id="line2d_9">
      <g>
       <use style="stroke:#000000;stroke-width:0.8;" x="396.654545" xlink:href="#m59f8381d27" y="378"/>
      </g>
     </g>
     <g id="text_9">
      <!-- $4$ -->
      <g transform="translate(393.72805 393.517984)scale(0.12 -0.12)">
       <use transform="scale(0.996264)" xlink:href="#CMR17-52"/>
      </g>
     </g>
    </g>
    <g id="xtick_10">
     <g id="line2d_10">
      <g>
       <use style="stroke:#000000;stroke-width:0.8;" x="437.236364" xlink:href="#m59f8381d27" y="378"/>
      </g>
     </g>
     <g id="text_10">
      <!-- $5$ -->
      <defs>
       <path d="M 11.40625 57.6875 
C 12.40625 57.28125 16.5 56 20.703125 56 
C 30 56 35.09375 61.109375 38 64.0625 
C 38 64.953125 38 65.5 37.40625 65.5 
C 37.296875 65.5 37.09375 65.5 36.296875 65.046875 
C 32.796875 63.40625 28.703125 62.078125 23.703125 62.078125 
C 20.703125 62.078125 16.203125 62.484375 11.296875 64.671875 
C 10.203125 65.171875 10 65.171875 9.90625 65.171875 
C 9.40625 65.171875 9.296875 65.0625 9.296875 63.078125 
L 9.296875 34.421875 
C 9.296875 32.640625 9.296875 32.140625 10.296875 32.140625 
C 10.796875 32.140625 11 32.34375 11.5 33.03125 
C 14.703125 37.515625 19.09375 39.40625 24.09375 39.40625 
C 27.59375 39.40625 35.09375 37.21875 35.09375 20.140625 
C 35.09375 16.953125 35.09375 11.171875 32.09375 6.578125 
C 29.59375 2.484375 25.703125 0.390625 21.40625 0.390625 
C 14.796875 0.390625 8.09375 5 6.296875 12.71875 
C 6.703125 12.609375 7.5 12.421875 7.90625 12.421875 
C 9.203125 12.421875 11.703125 13.125 11.703125 16.21875 
C 11.703125 18.90625 9.796875 20 7.90625 20 
C 5.59375 20 4.09375 18.59375 4.09375 15.796875 
C 4.09375 7.09375 11 -2 21.59375 -2 
C 31.90625 -2 41.703125 6.875 41.703125 19.75 
C 41.703125 31.71875 33.90625 41 24.203125 41 
C 19.09375 41 14.796875 39.109375 11.40625 35.53125 
z
" id="CMR17-53"/>
      </defs>
      <g transform="translate(434.309869 393.517984)scale(0.12 -0.12)">
       <use transform="scale(0.996264)" xlink:href="#CMR17-53"/>
      </g>
     </g>
    </g>
    <g id="xtick_11">
     <g id="line2d_11">
      <g>
       <use style="stroke:#000000;stroke-width:0.8;" x="477.818182" xlink:href="#m59f8381d27" y="378"/>
      </g>
     </g>
     <g id="text_11">
      <!-- $6$ -->
      <defs>
       <path d="M 10.59375 34 
C 10.59375 57.65625 21.796875 63 28.296875 63 
C 30.40625 63 35.5 62.640625 37.5 59 
C 35.90625 59 32.90625 59 32.90625 55.515625 
C 32.90625 52.828125 35.09375 51.921875 36.5 51.921875 
C 37.40625 51.921875 40.09375 52.3125 40.09375 55.625 
C 40.09375 61.78125 35.09375 65.296875 28.203125 65.296875 
C 16.296875 65.296875 3.796875 52.96875 3.796875 31 
C 3.796875 3.953125 15.09375 -2 23.09375 -2 
C 32.796875 -2 42 6.671875 42 20.046875 
C 42 32.515625 33.90625 41.59375 23.703125 41.59375 
C 17.59375 41.59375 13.09375 37.609375 10.59375 30.625 
z
M 23.09375 0.390625 
C 10.796875 0.390625 10.796875 18.75 10.796875 22.4375 
C 10.796875 29.625 14.203125 40 23.5 40 
C 25.203125 40 30.09375 40 33.40625 33.125 
C 35.203125 29.21875 35.203125 25.140625 35.203125 20.140625 
C 35.203125 14.75 35.203125 10.78125 33.09375 6.78125 
C 30.90625 2.671875 27.703125 0.390625 23.09375 0.390625 
z
" id="CMR17-54"/>
      </defs>
      <g transform="translate(474.891687 393.517984)scale(0.12 -0.12)">
       <use transform="scale(0.996264)" xlink:href="#CMR17-54"/>
      </g>
     </g>
    </g>
    <g id="xtick_12">
     <g id="line2d_12">
      <g>
       <use style="stroke:#000000;stroke-width:0.8;" x="518.4" xlink:href="#m59f8381d27" y="378"/>
      </g>
     </g>
     <g id="text_12">
      <!-- $7$ -->
      <defs>
       <path d="M 45.09375 61.578125 
L 45.09375 63.765625 
L 21.59375 63.765625 
C 9.90625 63.765625 9.703125 65.078125 9.296875 67 
L 7.5 67 
L 4.59375 48.34375 
L 6.40625 48.34375 
C 6.703125 50.234375 7.40625 55.3125 8.59375 57.203125 
C 9.203125 58 16.59375 58 18.296875 58 
L 40.296875 58 
L 29.203125 41.578125 
C 21.796875 30.53125 16.703125 15.609375 16.703125 2.578125 
C 16.703125 1.390625 16.703125 -2 20.296875 -2 
C 23.90625 -2 23.90625 1.390625 23.90625 2.671875 
L 23.90625 7.265625 
C 23.90625 23.5625 26.703125 34.3125 31.296875 41.1875 
z
" id="CMR17-55"/>
      </defs>
      <g transform="translate(515.473505 393.517984)scale(0.12 -0.12)">
       <use transform="scale(0.996264)" xlink:href="#CMR17-55"/>
      </g>
     </g>
    </g>
    <g id="text_13">
     <!-- \theta_{1} -->
     <defs>
      <path d="M 44.296875 50 
C 44.296875 60.15625 41.09375 70 32.90625 70 
C 18.90625 70 4 40.859375 4 19 
C 4 14.421875 5 -1 15.5 -1 
C 29.09375 -1 44.296875 27.4375 44.296875 50 
z
M 14 36 
C 15.5 41.859375 17.59375 50.21875 21.59375 57.265625 
C 24.90625 63.234375 28.40625 68 32.796875 68 
C 36.09375 68 38.296875 65.21875 38.296875 55.6875 
C 38.296875 52.09375 38 47.140625 35.09375 36 
z
M 34.40625 33.015625 
C 31.90625 23.28125 29.796875 17 26.203125 10.734375 
C 23.296875 5.671875 19.796875 1 15.59375 1 
C 12.5 1 10 3.390625 10 13.21875 
C 10 19.6875 11.59375 26.453125 13.203125 33.015625 
z
" id="CMMI12-18"/>
     </defs>
     <g transform="translate(288.773682 411.421671)scale(0.16 -0.16)">
      <use transform="translate(0 14.943915)scale(0.996264)" xlink:href="#CMMI12-18"/>
      <use transform="translate(45.45979 0)scale(0.697382)" xlink:href="#CMR17-49"/>
     </g>
    </g>
   </g>
   <g id="matplotlib.axis_2">
    <g id="ytick_1">
     <g id="line2d_13">
      <defs>
       <path d="M 0 0 
L -3.5 0 
" id="m35727cf1ac" style="stroke:#000000;stroke-width:0.8;"/>
      </defs>
      <g>
       <use style="stroke:#000000;stroke-width:0.8;" x="72" xlink:href="#m35727cf1ac" y="378"/>
      </g>
     </g>
     <g id="text_14">
      <!-- $-3$ -->
      <g transform="translate(49.84852 382.258992)scale(0.12 -0.12)">
       <use transform="scale(0.996264)" xlink:href="#CMSY10-0"/>
       <use transform="translate(77.487468 0)scale(0.996264)" xlink:href="#CMR17-51"/>
      </g>
     </g>
    </g>
    <g id="ytick_2">
     <g id="line2d_14">
      <g>
       <use style="stroke:#000000;stroke-width:0.8;" x="72" xlink:href="#m35727cf1ac" y="350.82"/>
      </g>
     </g>
     <g id="text_15">
      <!-- $-2$ -->
      <g transform="translate(49.84852 355.078992)scale(0.12 -0.12)">
       <use transform="scale(0.996264)" xlink:href="#CMSY10-0"/>
       <use transform="translate(77.487468 0)scale(0.996264)" xlink:href="#CMR17-50"/>
      </g>
     </g>
    </g>
    <g id="ytick_3">
     <g id="line2d_15">
      <g>
       <use style="stroke:#000000;stroke-width:0.8;" x="72" xlink:href="#m35727cf1ac" y="323.64"/>
      </g>
     </g>
     <g id="text_16">
      <!-- $-1$ -->
      <g transform="translate(49.84852 327.898992)scale(0.12 -0.12)">
       <use transform="scale(0.996264)" xlink:href="#CMSY10-0"/>
       <use transform="translate(77.487468 0)scale(0.996264)" xlink:href="#CMR17-49"/>
      </g>
     </g>
    </g>
    <g id="ytick_4">
     <g id="line2d_16">
      <g>
       <use style="stroke:#000000;stroke-width:0.8;" x="72" xlink:href="#m35727cf1ac" y="296.46"/>
      </g>
     </g>
     <g id="text_17">
      <!-- $0$ -->
      <g transform="translate(59.14701 300.718992)scale(0.12 -0.12)">
       <use transform="scale(0.996264)" xlink:href="#CMR17-48"/>
      </g>
     </g>
    </g>
    <g id="ytick_5">
     <g id="line2d_17">
      <g>
       <use style="stroke:#000000;stroke-width:0.8;" x="72" xlink:href="#m35727cf1ac" y="269.28"/>
      </g>
     </g>
     <g id="text_18">
      <!-- $1$ -->
      <g transform="translate(59.14701 273.538992)scale(0.12 -0.12)">
       <use transform="scale(0.996264)" xlink:href="#CMR17-49"/>
      </g>
     </g>
    </g>
    <g id="ytick_6">
     <g id="line2d_18">
      <g>
       <use style="stroke:#000000;stroke-width:0.8;" x="72" xlink:href="#m35727cf1ac" y="242.1"/>
      </g>
     </g>
     <g id="text_19">
      <!-- $2$ -->
      <g transform="translate(59.14701 246.358992)scale(0.12 -0.12)">
       <use transform="scale(0.996264)" xlink:href="#CMR17-50"/>
      </g>
     </g>
    </g>
    <g id="ytick_7">
     <g id="line2d_19">
      <g>
       <use style="stroke:#000000;stroke-width:0.8;" x="72" xlink:href="#m35727cf1ac" y="214.92"/>
      </g>
     </g>
     <g id="text_20">
      <!-- $3$ -->
      <g transform="translate(59.14701 219.178992)scale(0.12 -0.12)">
       <use transform="scale(0.996264)" xlink:href="#CMR17-51"/>
      </g>
     </g>
    </g>
    <g id="ytick_8">
     <g id="line2d_20">
      <g>
       <use style="stroke:#000000;stroke-width:0.8;" x="72" xlink:href="#m35727cf1ac" y="187.74"/>
      </g>
     </g>
     <g id="text_21">
      <!-- $4$ -->
      <g transform="translate(59.14701 191.998992)scale(0.12 -0.12)">
       <use transform="scale(0.996264)" xlink:href="#CMR17-52"/>
      </g>
     </g>
    </g>
    <g id="ytick_9">
     <g id="line2d_21">
      <g>
       <use style="stroke:#000000;stroke-width:0.8;" x="72" xlink:href="#m35727cf1ac" y="160.56"/>
      </g>
     </g>
     <g id="text_22">
      <!-- $5$ -->
      <g transform="translate(59.14701 164.818992)scale(0.12 -0.12)">
       <use transform="scale(0.996264)" xlink:href="#CMR17-53"/>
      </g>
     </g>
    </g>
    <g id="ytick_10">
     <g id="line2d_22">
      <g>
       <use style="stroke:#000000;stroke-width:0.8;" x="72" xlink:href="#m35727cf1ac" y="133.38"/>
      </g>
     </g>
     <g id="text_23">
      <!-- $6$ -->
      <g transform="translate(59.14701 137.638992)scale(0.12 -0.12)">
       <use transform="scale(0.996264)" xlink:href="#CMR17-54"/>
      </g>
     </g>
    </g>
    <g id="ytick_11">
     <g id="line2d_23">
      <g>
       <use style="stroke:#000000;stroke-width:0.8;" x="72" xlink:href="#m35727cf1ac" y="106.2"/>
      </g>
     </g>
     <g id="text_24">
      <!-- $7$ -->
      <g transform="translate(59.14701 110.458992)scale(0.12 -0.12)">
       <use transform="scale(0.996264)" xlink:href="#CMR17-55"/>
      </g>
     </g>
    </g>
    <g id="ytick_12">
     <g id="line2d_24">
      <g>
       <use style="stroke:#000000;stroke-width:0.8;" x="72" xlink:href="#m35727cf1ac" y="79.02"/>
      </g>
     </g>
     <g id="text_25">
      <!-- $8$ -->
      <defs>
       <path d="M 27.203125 35.375 
C 33.5 38.546875 39.90625 43.328125 39.90625 50.984375 
C 39.90625 60.015625 31.09375 65.296875 23 65.296875 
C 13.90625 65.296875 5.90625 58.734375 5.90625 49.6875 
C 5.90625 47.203125 6.5 42.921875 10.40625 39.140625 
C 11.40625 38.15625 15.59375 35.171875 18.296875 33.28125 
C 13.796875 30.984375 3.296875 25.53125 3.296875 14.59375 
C 3.296875 4.359375 13.09375 -2 22.796875 -2 
C 33.5 -2 42.5 5.65625 42.5 15.78125 
C 42.5 24.84375 36.40625 29.015625 32.40625 31.703125 
z
M 14.09375 44.09375 
C 13.296875 44.59375 9.296875 47.671875 9.296875 52.359375 
C 9.296875 58.421875 15.59375 63 22.796875 63 
C 30.703125 63 36.5 57.4375 36.5 50.96875 
C 36.5 41.703125 26.09375 36.421875 25.59375 36.421875 
C 25.5 36.421875 25.40625 36.421875 24.59375 37.03125 
z
M 32.5 23.734375 
C 34 22.640625 38.796875 19.375 38.796875 13.296875 
C 38.796875 5.953125 31.40625 0.390625 23 0.390625 
C 13.90625 0.390625 7 6.84375 7 14.6875 
C 7 22.546875 13.09375 29.09375 20 32.1875 
z
" id="CMR17-56"/>
      </defs>
      <g transform="translate(59.14701 83.278992)scale(0.12 -0.12)">
       <use transform="scale(0.996264)" xlink:href="#CMR17-56"/>
      </g>
     </g>
    </g>
    <g id="ytick_13">
     <g id="line2d_25">
      <g>
       <use style="stroke:#000000;stroke-width:0.8;" x="72" xlink:href="#m35727cf1ac" y="51.84"/>
      </g>
     </g>
     <g id="text_26">
      <!-- $9$ -->
      <defs>
       <path d="M 35.203125 29.125 
C 35.203125 7.25 26.09375 0.484375 18.59375 0.484375 
C 16.296875 0.484375 10.703125 0.484375 8.40625 4.59375 
C 11 4.1875 12.90625 5.578125 12.90625 8.09375 
C 12.90625 10.8125 10.703125 11.703125 9.296875 11.703125 
C 8.40625 11.703125 5.703125 11.296875 5.703125 7.90625 
C 5.703125 1.109375 11.59375 -2 18.796875 -2 
C 30.296875 -2 42 10.53125 42 32.390625 
C 42 59.640625 30.796875 65.296875 23.203125 65.296875 
C 13.296875 65.296875 3.796875 56.6875 3.796875 43.40625 
C 3.796875 31.109375 11.90625 22 22.09375 22 
C 30.5 22 34.203125 29.734375 35.203125 33 
z
M 22.296875 23.59375 
C 19.59375 23.59375 15.796875 24.09375 12.703125 30.03125 
C 10.59375 33.890625 10.59375 38.453125 10.59375 43.296875 
C 10.59375 49.15625 10.59375 53.203125 13.40625 57.5625 
C 14.796875 59.640625 17.40625 63 23.203125 63 
C 35 63 35 45.078125 35 41.125 
C 35 34.09375 31.796875 23.59375 22.296875 23.59375 
z
" id="CMR17-57"/>
      </defs>
      <g transform="translate(59.14701 56.098992)scale(0.12 -0.12)">
       <use transform="scale(0.996264)" xlink:href="#CMR17-57"/>
      </g>
     </g>
    </g>
    <g id="text_27">
     <!-- \theta_{2} -->
     <g transform="translate(42.453339 221.346318)rotate(-90)scale(0.16 -0.16)">
      <use transform="translate(0 14.943915)scale(0.996264)" xlink:href="#CMMI12-18"/>
      <use transform="translate(45.45979 0)scale(0.697382)" xlink:href="#CMR17-50"/>
     </g>
    </g>
   </g>
   <g id="LineCollection_1">
    <path clip-path="url(#p400aea1b63)" d="M 514.341818 258.742802 
L 510.283636 258.042255 
L 506.225455 256.642701 
L 502.167273 254.555999 
L 498.109091 251.836397 
L 494.050909 248.579472 
L 489.885203 244.818 
L 477.818182 233.262588 
L 473.76 229.808817 
L 469.701818 226.894002 
L 465.643636 224.683034 
L 461.585455 223.304486 
L 457.527273 222.840174 
L 453.469091 223.316875 
L 449.410909 224.700887 
L 445.352727 226.895889 
L 441.294545 229.744482 
L 436.141615 233.946 
L 429.12 239.85992 
L 425.061818 242.791011 
L 421.003636 244.983331 
L 416.945455 246.141873 
L 412.887273 246.009224 
L 408.829091 244.384084 
L 404.770909 241.137792 
L 400.712727 236.227721 
L 396.654545 229.706494 
L 393.259121 223.074 
L 391.969925 220.356 
L 388.39765 212.202 
L 384.48 202.47806 
L 381.898164 195.894 
L 376.363636 181.476927 
L 373.345613 174.15 
L 372.2671 171.432 
L 367.104698 160.56 
L 364.158354 155.124 
L 360.130909 149.672072 
L 356.072727 146.426401 
L 352.014545 145.619503 
L 347.956364 147.292 
L 343.898182 151.313307 
L 341.300136 155.124 
L 339.576888 157.842 
L 335.781818 164.971339 
L 332.653607 171.432 
L 330.051352 176.868 
L 327.493069 182.304 
L 323.042983 190.458 
L 319.549091 195.524565 
L 315.490909 198.538904 
L 311.432727 197.797156 
L 307.374545 192.510024 
L 304.415845 185.022 
L 303.316364 182.098028 
L 300.539747 171.432 
L 299.204949 165.996 
L 296.055677 149.688 
L 294.633801 141.534 
L 291.684805 122.508 
L 289.769312 108.918 
L 286.564155 84.456 
L 283.253864 57.276 
L 282.931406 54.558 
L 282.931406 54.558 
" style="fill:none;stroke:#0000ff;"/>
    <path clip-path="url(#p400aea1b63)" d="M 157.439012 54.558 
L 157.221818 55.03354 
L 156.559904 57.276 
L 155.742637 59.994 
L 154.908467 62.712 
L 154.056864 65.43 
L 153.187276 68.148 
L 153.163636 68.221096 
L 152.530878 70.866 
L 151.870008 73.584 
L 151.198104 76.302 
L 150.514886 79.02 
L 149.820066 81.738 
L 149.113346 84.456 
L 149.105455 84.486089 
L 148.538096 87.174 
L 147.956079 89.892 
L 147.365524 92.61 
L 146.766242 95.328 
L 146.15804 98.046 
L 145.540715 100.764 
L 145.047273 102.907633 
L 144.933959 103.482 
L 144.39334 106.2 
L 143.84535 108.918 
L 143.289836 111.636 
L 142.726642 114.354 
L 142.155609 117.072 
L 141.57657 119.79 
L 140.989357 122.508 
L 140.989091 122.509224 
L 140.455955 125.226 
L 139.915439 127.944 
L 139.367638 130.662 
L 138.812403 133.38 
L 138.249583 136.098 
L 137.679021 138.816 
L 137.100555 141.534 
L 136.930909 142.32403 
L 136.539542 144.252 
L 135.981321 146.97 
L 135.415374 149.688 
L 134.841539 152.406 
L 134.259651 155.124 
L 133.669539 157.842 
L 133.071027 160.56 
L 132.872727 161.452076 
L 132.470943 163.278 
L 131.865477 165.996 
L 131.251 168.714 
L 130.627308 171.432 
L 129.994192 174.15 
L 129.351438 176.868 
L 128.814545 179.107066 
L 128.695207 179.586 
L 128.011347 182.304 
L 127.316057 185.022 
L 126.609046 187.74 
L 125.890017 190.458 
L 125.158659 193.176 
L 124.756364 194.651476 
L 124.383931 195.894 
L 123.557518 198.612 
L 122.714619 201.33 
L 121.854734 204.048 
L 120.977345 206.766 
L 120.698182 207.619351 
L 119.977812 209.484 
L 118.905435 212.202 
L 117.805659 214.92 
L 116.677421 217.638 
L 116.64 217.726959 
L 115.190352 220.356 
L 113.638962 223.074 
L 112.581818 224.872061 
L 111.734749 225.792 
L 109.132223 228.51 
L 108.523636 229.123049 
L 104.465455 230.699603 
L 100.407273 229.946733 
L 98.245193 228.51 
L 96.349091 227.304267 
L 94.867459 225.792 
L 92.290909 223.273843 
L 92.131681 223.074 
L 89.910562 220.356 
L 88.232727 218.385401 
L 87.672381 217.638 
L 85.577234 214.92 
L 84.174545 213.165038 
L 83.427697 212.202 
L 81.255573 209.484 
L 80.116364 208.105805 
L 78.932677 206.766 
L 76.440564 204.048 
L 76.058182 203.642799 
L 73.42062 201.33 
L 72 200.133506 
" style="fill:none;stroke:#0000ff;"/>
    <path clip-path="url(#p400aea1b63)" d="M 227.462711 54.558 
L 227.127133 57.276 
L 226.791142 59.994 
L 226.454737 62.712 
L 226.210909 64.679931 
L 226.108529 65.43 
L 225.737002 68.148 
L 225.364633 70.866 
L 224.991418 73.584 
L 224.617355 76.302 
L 224.242441 79.02 
L 223.866672 81.738 
L 223.490046 84.456 
L 223.112561 87.174 
L 222.734212 89.892 
L 222.354997 92.61 
L 222.152727 94.05722 
L 221.939805 95.328 
L 221.483112 98.046 
L 221.024658 100.764 
L 220.564433 103.482 
L 220.102426 106.2 
L 219.638627 108.918 
L 219.173026 111.636 
L 218.705612 114.354 
L 218.236375 117.072 
L 218.094545 117.891449 
L 217.648759 119.79 
L 217.006862 122.508 
L 216.360567 125.226 
L 215.709829 127.944 
L 215.054602 130.662 
L 214.394839 133.38 
L 214.036364 134.84895 
L 213.511191 136.098 
L 212.356142 138.816 
L 211.184005 141.534 
L 209.994401 144.252 
L 209.978182 144.288779 
L 205.92 146.272152 
L 204.235076 144.252 
L 201.892953 141.534 
L 201.861818 141.498552 
L 200.834196 138.816 
L 199.773363 136.098 
L 198.692204 133.38 
L 197.803636 131.184489 
L 197.660582 130.662 
L 196.909934 127.944 
L 196.148251 125.226 
L 195.375288 122.508 
L 194.590794 119.79 
L 193.794507 117.072 
L 193.745455 116.905892 
L 193.13859 114.354 
L 192.483782 111.636 
L 191.820096 108.918 
L 191.147347 106.2 
L 190.465351 103.482 
L 189.773914 100.764 
L 189.687273 100.426049 
L 189.136552 98.046 
L 188.499507 95.328 
L 187.853624 92.61 
L 187.198718 89.892 
L 186.534599 87.174 
L 185.861071 84.456 
L 185.629091 83.528683 
L 185.183118 81.738 
L 184.497521 79.02 
L 183.801249 76.302 
L 183.094051 73.584 
L 182.375668 70.866 
L 181.645832 68.148 
L 181.570909 67.87141 
L 180.837163 65.43 
L 180.005336 62.712 
L 179.15731 59.994 
L 178.292605 57.276 
L 177.512727 54.869637 
L 177.382198 54.558 
" style="fill:none;stroke:#0000ff;"/>
   </g>
   <g id="LineCollection_2">
    <path clip-path="url(#p400aea1b63)" d="M 514.341818 258.053837 
L 510.283636 256.366488 
L 508.885654 255.69 
L 506.225455 254.184909 
L 504.377838 252.972 
L 501.03716 250.254 
L 498.109091 247.221371 
L 491.612576 239.382 
L 488.908464 236.664 
L 485.632458 233.946 
L 481.462868 231.228 
L 477.818182 229.399226 
L 475.783885 228.51 
L 473.76 227.755435 
L 469.701818 226.527884 
L 465.643636 225.658455 
L 461.585455 225.228377 
L 457.527273 225.183535 
L 453.469091 225.561783 
L 449.410909 226.473427 
L 445.352727 227.929026 
L 444.088838 228.51 
L 441.294545 230.056486 
L 439.439881 231.228 
L 435.847838 233.946 
L 429.12 239.784888 
L 425.061818 242.636107 
L 421.003636 244.442477 
L 416.945455 245.157505 
L 412.871119 244.818 
L 408.829091 243.372096 
L 404.770909 240.695242 
L 403.433907 239.382 
L 400.712727 236.462089 
L 399.005468 233.946 
L 396.654545 230.119061 
L 394.543795 225.792 
L 392.087894 220.356 
L 381.856323 195.894 
L 378.990191 187.74 
L 377.343885 182.304 
L 375.751206 176.868 
L 373.903977 171.432 
L 372.305455 167.468848 
L 371.507083 165.996 
L 369.834424 163.278 
L 367.828696 160.56 
L 364.189091 157.159302 
L 360.130909 154.825135 
L 356.072727 153.673237 
L 352.014545 153.523653 
L 347.956364 154.417539 
L 346.440008 155.124 
L 343.898182 156.538076 
L 342.27442 157.842 
L 339.520275 160.56 
L 337.466589 163.278 
L 335.710498 165.996 
L 334.169924 168.714 
L 330.09024 176.868 
L 327.51142 182.304 
L 323.042068 190.458 
L 319.549091 195.511749 
L 315.490909 198.525625 
L 311.432727 197.795737 
L 307.374545 192.536387 
L 304.417194 185.022 
L 303.316364 182.07892 
L 299.130987 165.996 
L 294.972393 146.97 
L 294.12541 141.534 
L 293.148769 133.38 
L 291.966574 122.508 
L 291.141818 116.763273 
L 290.237396 111.636 
L 289.045373 106.2 
L 287.61474 100.764 
L 285.927412 95.328 
L 283.981928 89.892 
L 282.906652 87.174 
L 280.400784 81.738 
L 278.967273 78.913222 
L 275.548453 73.584 
L 274.909091 72.605623 
L 270.850909 68.336793 
L 266.792727 65.655198 
L 266.04763 65.43 
L 262.734545 64.289574 
L 258.676364 64.123528 
L 254.618182 64.950072 
L 253.546665 65.43 
L 250.56 66.504262 
L 246.501818 68.800614 
L 242.443636 71.68256 
L 237.234966 76.302 
L 234.327273 79.202173 
L 230.269091 83.820817 
L 227.661388 87.174 
L 223.915556 92.61 
L 220.746026 98.046 
L 219.366594 100.764 
L 215.838329 108.918 
L 212.885746 117.072 
L 210.663422 122.508 
L 209.978182 124.005214 
L 209.071762 125.226 
L 205.92 128.806748 
L 201.861818 130.255642 
L 197.803636 129.149835 
L 196.412313 127.944 
L 193.737651 125.226 
L 192.292561 122.508 
L 191.045457 119.79 
L 189.687273 116.360365 
L 188.381924 111.636 
L 183.397145 92.61 
L 181.570909 86.574646 
L 178.953517 79.02 
L 176.816817 73.584 
L 173.454545 66.203978 
L 171.238973 62.712 
L 169.396364 59.806675 
L 165.338182 56.004731 
L 161.28 55.309735 
L 157.221818 57.898262 
L 154.011857 62.712 
L 153.163636 63.867629 
L 151.344872 68.148 
L 148.991084 73.584 
L 144.663366 87.174 
L 142.003042 98.046 
L 140.848878 103.482 
L 139.608746 111.636 
L 138.677209 119.79 
L 136.930909 137.08936 
L 136.330452 141.534 
L 135.34965 146.97 
L 134.066666 152.406 
L 132.505487 157.842 
L 130.769383 163.278 
L 125.230986 179.586 
L 123.689586 185.022 
L 122.473206 190.458 
L 121.586159 195.894 
L 120.050541 206.766 
L 119.427202 209.484 
L 118.572225 212.202 
L 117.40932 214.92 
L 115.823092 217.638 
L 113.740839 220.356 
L 111.061739 223.074 
L 107.701408 225.792 
L 103.443971 228.51 
L 100.407273 230.121171 
L 96.349091 231.937355 
L 90.612355 233.946 
L 88.232727 234.660999 
L 84.174545 235.65926 
L 78.8406 236.664 
L 76.058182 237.096806 
L 72 237.570669 
L 72 237.570669 
" style="fill:none;stroke:#ff0000;stroke-dasharray:3.7,1.6;stroke-dashoffset:0;"/>
   </g>
   <g id="LineCollection_3">
    <path clip-path="url(#p400aea1b63)" d="M 258.676364 345.574613 
L 262.734545 346.186984 
L 270.850909 347.08874 
L 278.967273 347.659787 
L 287.083636 347.975988 
L 295.2 348.077243 
L 303.316364 347.975988 
L 311.432727 347.659787 
L 319.549091 347.08874 
L 327.665455 346.186984 
L 343.898182 343.657696 
L 348.277655 342.666 
L 352.014545 341.962717 
L 356.072727 341.028444 
L 360.130909 339.893557 
L 364.189091 338.907247 
L 376.363636 335.075485 
L 377.84482 334.512 
L 380.421818 333.675781 
L 388.538182 330.544347 
L 400.712727 325.06233 
L 408.829091 320.749432 
L 416.945455 316.010657 
L 421.949474 312.768 
L 425.845171 310.05 
L 432.920525 304.614 
L 439.360011 299.178 
L 447.545082 291.024 
L 449.848304 288.306 
L 452.220552 285.588 
L 454.310416 282.87 
L 456.364627 280.152 
L 458.179957 277.434 
L 460.031531 274.716 
L 461.585455 271.835863 
L 463.19864 269.28 
L 464.59358 266.562 
L 465.760824 263.844 
L 467.124314 261.126 
L 468.236765 258.408 
L 470.900734 250.254 
L 471.645408 247.536 
L 472.247125 244.818 
L 473.099742 239.382 
L 473.571855 233.946 
L 473.723035 228.51 
L 473.571855 223.074 
L 473.099742 217.638 
L 472.247125 212.202 
L 471.645408 209.484 
L 470.900734 206.766 
L 468.236765 198.612 
L 467.124314 195.894 
L 465.643636 192.960812 
L 464.59358 190.458 
L 463.19864 187.74 
L 461.504167 185.022 
L 460.031531 182.304 
L 456.364627 176.868 
L 452.220552 171.432 
L 447.545082 165.996 
L 439.360011 157.842 
L 432.920525 152.406 
L 429.12 149.424813 
L 425.061818 146.416212 
L 421.003636 143.618518 
L 416.945455 141.009343 
L 408.829091 136.270568 
L 400.712727 131.95767 
L 388.538182 126.475653 
L 376.363636 121.944515 
L 372.305455 120.568691 
L 368.247273 119.35286 
L 364.189091 118.112753 
L 359.888827 117.072 
L 356.072727 115.991556 
L 352.014545 115.057283 
L 347.956364 114.275512 
L 343.898182 113.362304 
L 339.84 112.617231 
L 327.665455 110.833016 
L 319.549091 109.93126 
L 311.432727 109.360213 
L 303.316364 109.044012 
L 295.2 108.942757 
L 287.083636 109.044012 
L 278.967273 109.360213 
L 270.850909 109.93126 
L 262.734545 110.833016 
L 246.501818 113.362304 
L 242.122345 114.354 
L 238.385455 115.057283 
L 234.327273 115.991556 
L 230.269091 117.126443 
L 226.210909 118.112753 
L 214.036364 121.944515 
L 212.55518 122.508 
L 209.978182 123.344219 
L 201.861818 126.475653 
L 189.687273 131.95767 
L 181.570909 136.270568 
L 173.454545 141.009343 
L 168.450526 144.252 
L 164.554829 146.97 
L 157.479475 152.406 
L 151.039989 157.842 
L 142.854918 165.996 
L 140.551696 168.714 
L 138.179448 171.432 
L 136.089584 174.15 
L 134.035373 176.868 
L 132.220043 179.586 
L 130.368469 182.304 
L 128.814545 185.184137 
L 127.20136 187.74 
L 125.80642 190.458 
L 124.639176 193.176 
L 123.275686 195.894 
L 122.163235 198.612 
L 119.499266 206.766 
L 118.754592 209.484 
L 118.152875 212.202 
L 117.300258 217.638 
L 116.828145 223.074 
L 116.676965 228.51 
L 116.828145 233.946 
L 117.300258 239.382 
L 118.152875 244.818 
L 118.754592 247.536 
L 119.499266 250.254 
L 122.163235 258.408 
L 123.275686 261.126 
L 124.756364 264.059188 
L 125.80642 266.562 
L 127.20136 269.28 
L 128.895833 271.998 
L 130.368469 274.716 
L 134.035373 280.152 
L 138.179448 285.588 
L 142.854918 291.024 
L 151.039989 299.178 
L 157.479475 304.614 
L 161.28 307.595187 
L 165.338182 310.603788 
L 169.396364 313.401482 
L 173.454545 316.010657 
L 181.570909 320.749432 
L 189.687273 325.06233 
L 201.861818 330.544347 
L 214.036364 335.075485 
L 218.094545 336.451309 
L 222.152727 337.66714 
L 226.210909 338.907247 
L 230.511173 339.948 
L 234.327273 341.028444 
L 238.385455 341.962717 
L 242.443636 342.744488 
L 246.501818 343.657696 
L 250.56 344.402769 
L 258.676364 345.574613 
L 258.676364 345.574613 
" style="fill:none;stroke:#000000;stroke-dasharray:1,1.65;stroke-dashoffset:0;"/>
   </g>
   <g id="LineCollection_4">
    <path clip-path="url(#p400aea1b63)" d="M 266.792727 312.965977 
L 270.850909 313.586543 
L 278.967273 314.46587 
L 287.083636 314.952773 
L 295.2 315.108689 
L 303.316364 314.952773 
L 311.432727 314.46587 
L 319.549091 313.586543 
L 331.723636 311.621628 
L 339.84 309.766847 
L 343.898182 308.766945 
L 352.014545 306.326355 
L 360.130909 303.420711 
L 369.868968 299.178 
L 372.305455 298.036288 
L 376.363636 295.90519 
L 380.421818 293.585669 
L 384.578015 291.024 
L 388.632478 288.306 
L 392.596364 285.405983 
L 396.654545 282.154629 
L 399.008065 280.152 
L 401.889292 277.434 
L 407.047419 271.998 
L 411.385769 266.562 
L 415.029755 261.126 
L 417.987378 255.69 
L 419.292015 252.972 
L 420.358773 250.254 
L 422.964097 242.1 
L 423.538686 239.382 
L 423.968052 236.664 
L 424.265669 233.946 
L 424.440701 231.228 
L 424.498464 228.51 
L 424.440701 225.792 
L 424.265669 223.074 
L 423.968052 220.356 
L 423.538686 217.638 
L 422.964097 214.92 
L 422.225784 212.202 
L 420.358773 206.766 
L 419.292015 204.048 
L 417.987378 201.33 
L 415.029755 195.894 
L 411.385769 190.458 
L 407.047419 185.022 
L 401.889292 179.586 
L 396.654545 174.865371 
L 395.826171 174.15 
L 392.36295 171.432 
L 388.538182 168.648354 
L 384.48 165.932844 
L 380.150053 163.278 
L 375.295533 160.56 
L 372.305455 158.983712 
L 368.247273 157.053986 
L 360.130909 153.599289 
L 352.014545 150.693645 
L 343.898182 148.253055 
L 335.781818 146.272163 
L 331.723636 145.398372 
L 323.607273 144.054023 
L 319.549091 143.433457 
L 311.432727 142.55413 
L 303.316364 142.067227 
L 295.2 141.911311 
L 287.083636 142.067227 
L 278.967273 142.55413 
L 270.850909 143.433457 
L 258.676364 145.398372 
L 250.56 147.253153 
L 246.501818 148.253055 
L 238.385455 150.693645 
L 230.269091 153.599289 
L 220.531032 157.842 
L 218.094545 158.983712 
L 214.036364 161.11481 
L 209.978182 163.434331 
L 205.821985 165.996 
L 201.767522 168.714 
L 197.803636 171.614017 
L 193.745455 174.865371 
L 191.391935 176.868 
L 188.510708 179.586 
L 183.352581 185.022 
L 179.014231 190.458 
L 175.370245 195.894 
L 172.412622 201.33 
L 171.107985 204.048 
L 170.041227 206.766 
L 167.435903 214.92 
L 166.861314 217.638 
L 166.431948 220.356 
L 166.134331 223.074 
L 165.959299 225.792 
L 165.901536 228.51 
L 165.959299 231.228 
L 166.134331 233.946 
L 166.431948 236.664 
L 166.861314 239.382 
L 167.435903 242.1 
L 168.174216 244.818 
L 170.041227 250.254 
L 171.107985 252.972 
L 172.412622 255.69 
L 175.370245 261.126 
L 179.014231 266.562 
L 183.352581 271.998 
L 188.510708 277.434 
L 193.745455 282.154629 
L 194.573829 282.87 
L 198.03705 285.588 
L 201.861818 288.371646 
L 205.92 291.087156 
L 210.249947 293.742 
L 215.104467 296.46 
L 218.094545 298.036288 
L 222.152727 299.966014 
L 230.269091 303.420711 
L 238.385455 306.326355 
L 246.501818 308.766945 
L 254.618182 310.747837 
L 258.676364 311.621628 
L 266.792727 312.965977 
L 266.792727 312.965977 
" style="fill:none;stroke:#000000;stroke-dasharray:1,1.65;stroke-dashoffset:0;"/>
   </g>
   <g id="LineCollection_5">
    <path clip-path="url(#p400aea1b63)" d="M 278.967273 291.561441 
L 283.025455 291.989333 
L 287.083636 292.28593 
L 291.141818 292.460362 
L 295.2 292.517927 
L 299.258182 292.460362 
L 303.316364 292.28593 
L 307.374545 291.989333 
L 311.432727 291.561441 
L 319.549091 290.3841 
L 323.607273 289.617694 
L 331.723636 287.632858 
L 335.781818 286.436487 
L 343.898182 283.54736 
L 347.956364 281.84994 
L 352.014545 279.913065 
L 356.695833 277.434 
L 361.235757 274.716 
L 365.235878 271.998 
L 368.776999 269.28 
L 372.305455 266.226058 
L 374.840608 263.844 
L 377.374986 261.126 
L 380.421818 257.336814 
L 381.688674 255.69 
L 383.474947 252.972 
L 386.438459 247.536 
L 387.582763 244.818 
L 389.340622 239.382 
L 389.979498 236.664 
L 390.42234 233.946 
L 390.68278 231.228 
L 390.768729 228.51 
L 390.68278 225.792 
L 390.42234 223.074 
L 389.979498 220.356 
L 389.340622 217.638 
L 387.582763 212.202 
L 386.438459 209.484 
L 384.48 205.867957 
L 383.474947 204.048 
L 381.688674 201.33 
L 377.374986 195.894 
L 374.840608 193.176 
L 371.948707 190.458 
L 368.247273 187.32267 
L 364.189091 184.282019 
L 360.130909 181.602906 
L 356.072727 179.231211 
L 351.512959 176.868 
L 347.956364 175.17006 
L 343.898182 173.47264 
L 338.240638 171.432 
L 335.781818 170.583513 
L 331.723636 169.387142 
L 323.607273 167.402306 
L 319.549091 166.6359 
L 311.432727 165.458559 
L 307.374545 165.030667 
L 303.316364 164.73407 
L 299.258182 164.559638 
L 295.2 164.502073 
L 291.141818 164.559638 
L 287.083636 164.73407 
L 283.025455 165.030667 
L 278.967273 165.458559 
L 270.850909 166.6359 
L 266.792727 167.402306 
L 258.676364 169.387142 
L 254.618182 170.583513 
L 246.501818 173.47264 
L 242.443636 175.17006 
L 238.385455 177.106935 
L 233.704167 179.586 
L 229.164243 182.304 
L 225.164122 185.022 
L 221.623001 187.74 
L 218.094545 190.793942 
L 215.559392 193.176 
L 213.025014 195.894 
L 209.978182 199.683186 
L 208.711326 201.33 
L 206.925053 204.048 
L 203.961541 209.484 
L 202.817237 212.202 
L 201.059378 217.638 
L 200.420502 220.356 
L 199.97766 223.074 
L 199.71722 225.792 
L 199.631271 228.51 
L 199.71722 231.228 
L 199.97766 233.946 
L 200.420502 236.664 
L 201.059378 239.382 
L 202.817237 244.818 
L 203.961541 247.536 
L 205.92 251.152043 
L 206.925053 252.972 
L 208.711326 255.69 
L 213.025014 261.126 
L 215.559392 263.844 
L 218.451293 266.562 
L 222.152727 269.69733 
L 226.210909 272.737981 
L 230.269091 275.417094 
L 234.327273 277.788789 
L 238.887041 280.152 
L 242.443636 281.84994 
L 246.501818 283.54736 
L 252.159362 285.588 
L 254.618182 286.436487 
L 258.676364 287.632858 
L 266.792727 289.617694 
L 270.850909 290.3841 
L 278.967273 291.561441 
L 278.967273 291.561441 
" style="fill:none;stroke:#000000;stroke-dasharray:1,1.65;stroke-dashoffset:0;"/>
   </g>
   <g id="LineCollection_6">
    <path clip-path="url(#p400aea1b63)" d="M 287.083636 269.521786 
L 291.141818 269.800011 
L 295.2 269.891829 
L 299.258182 269.800011 
L 303.316364 269.521786 
L 305.415784 269.28 
L 307.374545 269.067164 
L 311.432727 268.439135 
L 315.490909 267.598689 
L 319.394984 266.562 
L 319.549091 266.521624 
L 323.607273 265.255994 
L 327.291839 263.844 
L 327.665455 263.697629 
L 331.723636 261.873635 
L 333.170951 261.126 
L 335.781818 259.696087 
L 337.87788 258.408 
L 339.84 257.093854 
L 341.763213 255.69 
L 343.898182 253.941351 
L 345.014458 252.972 
L 347.73782 250.254 
L 347.956364 250.003768 
L 350.064578 247.536 
L 351.954261 244.818 
L 352.014545 244.714786 
L 353.562401 242.1 
L 354.817252 239.382 
L 355.754947 236.664 
L 356.072727 235.352104 
L 356.433733 233.946 
L 356.849144 231.228 
L 356.986235 228.51 
L 356.849144 225.792 
L 356.433733 223.074 
L 356.072727 221.667896 
L 355.754947 220.356 
L 354.817252 217.638 
L 353.562401 214.92 
L 352.014545 212.305214 
L 351.954261 212.202 
L 350.064578 209.484 
L 347.956364 207.016232 
L 347.73782 206.766 
L 345.014458 204.048 
L 343.898182 203.078649 
L 341.763213 201.33 
L 339.84 199.926146 
L 337.87788 198.612 
L 335.781818 197.323913 
L 333.170951 195.894 
L 331.723636 195.146365 
L 327.665455 193.322371 
L 327.291839 193.176 
L 323.607273 191.764006 
L 319.549091 190.498376 
L 319.394984 190.458 
L 315.490909 189.421311 
L 311.432727 188.580865 
L 307.374545 187.952836 
L 305.415784 187.74 
L 303.316364 187.498214 
L 299.258182 187.219989 
L 295.2 187.128171 
L 291.141818 187.219989 
L 287.083636 187.498214 
L 284.984216 187.74 
L 283.025455 187.952836 
L 278.967273 188.580865 
L 274.909091 189.421311 
L 271.005016 190.458 
L 270.850909 190.498376 
L 266.792727 191.764006 
L 263.108161 193.176 
L 262.734545 193.322371 
L 258.676364 195.146365 
L 257.229049 195.894 
L 254.618182 197.323913 
L 252.52212 198.612 
L 250.56 199.926146 
L 248.636787 201.33 
L 246.501818 203.078649 
L 245.385542 204.048 
L 242.66218 206.766 
L 242.443636 207.016232 
L 240.335422 209.484 
L 238.445739 212.202 
L 238.385455 212.305214 
L 236.837599 214.92 
L 235.582748 217.638 
L 234.645053 220.356 
L 234.327273 221.667896 
L 233.966267 223.074 
L 233.550856 225.792 
L 233.413765 228.51 
L 233.550856 231.228 
L 233.966267 233.946 
L 234.327273 235.352104 
L 234.645053 236.664 
L 235.582748 239.382 
L 236.837599 242.1 
L 238.385455 244.714786 
L 238.445739 244.818 
L 240.335422 247.536 
L 242.443636 250.003768 
L 242.66218 250.254 
L 245.385542 252.972 
L 246.501818 253.941351 
L 248.636787 255.69 
L 250.56 257.093854 
L 252.52212 258.408 
L 254.618182 259.696087 
L 257.229049 261.126 
L 258.676364 261.873635 
L 262.734545 263.697629 
L 263.108161 263.844 
L 266.792727 265.255994 
L 270.850909 266.521624 
L 271.005016 266.562 
L 274.909091 267.598689 
L 278.967273 268.439135 
L 283.025455 269.067164 
L 284.984216 269.28 
L 287.083636 269.521786 
" style="fill:none;stroke:#000000;stroke-dasharray:1,1.65;stroke-dashoffset:0;"/>
   </g>
   <g id="LineCollection_7">
    <path clip-path="url(#p400aea1b63)" d="M 283.025455 253.409881 
L 287.083636 254.139551 
L 291.141818 254.568677 
L 295.2 254.710294 
L 299.258182 254.568677 
L 303.316364 254.139551 
L 307.374545 253.409881 
L 309.097231 252.972 
L 311.432727 252.34397 
L 315.490909 250.90492 
L 316.970794 250.254 
L 319.549091 249.00039 
L 322.059478 247.536 
L 323.607273 246.499352 
L 325.793719 244.818 
L 327.665455 243.091165 
L 328.637329 242.1 
L 330.78594 239.382 
L 331.723636 237.817782 
L 332.377426 236.664 
L 333.466879 233.946 
L 334.107597 231.228 
L 334.319043 228.51 
L 334.107597 225.792 
L 333.466879 223.074 
L 332.377426 220.356 
L 331.723636 219.202218 
L 330.78594 217.638 
L 328.637329 214.92 
L 327.665455 213.928835 
L 325.793719 212.202 
L 323.607273 210.520648 
L 322.059478 209.484 
L 319.549091 208.01961 
L 316.970794 206.766 
L 315.490909 206.11508 
L 311.432727 204.67603 
L 309.097231 204.048 
L 307.374545 203.610119 
L 303.316364 202.880449 
L 299.258182 202.451323 
L 295.2 202.309706 
L 291.141818 202.451323 
L 287.083636 202.880449 
L 283.025455 203.610119 
L 281.302769 204.048 
L 278.967273 204.67603 
L 274.909091 206.11508 
L 273.429206 206.766 
L 270.850909 208.01961 
L 268.340522 209.484 
L 266.792727 210.520648 
L 264.606281 212.202 
L 262.734545 213.928835 
L 261.762671 214.92 
L 259.61406 217.638 
L 258.676364 219.202218 
L 258.022574 220.356 
L 256.933121 223.074 
L 256.292403 225.792 
L 256.080957 228.51 
L 256.292403 231.228 
L 256.933121 233.946 
L 258.022574 236.664 
L 258.676364 237.817782 
L 259.61406 239.382 
L 261.762671 242.1 
L 262.734545 243.091165 
L 264.606281 244.818 
L 266.792727 246.499352 
L 268.340522 247.536 
L 270.850909 249.00039 
L 273.429206 250.254 
L 274.909091 250.90492 
L 278.967273 252.34397 
L 281.302769 252.972 
L 283.025455 253.409881 
" style="fill:none;stroke:#000000;stroke-dasharray:1,1.65;stroke-dashoffset:0;"/>
   </g>
   <g id="patch_3">
    <path d="M 72 378 
L 72 51.84 
" style="fill:none;stroke:#000000;stroke-linecap:square;stroke-linejoin:miter;stroke-width:0.8;"/>
   </g>
   <g id="patch_4">
    <path d="M 518.4 378 
L 518.4 51.84 
" style="fill:none;stroke:#000000;stroke-linecap:square;stroke-linejoin:miter;stroke-width:0.8;"/>
   </g>
   <g id="patch_5">
    <path d="M 72 378 
L 518.4 378 
" style="fill:none;stroke:#000000;stroke-linecap:square;stroke-linejoin:miter;stroke-width:0.8;"/>
   </g>
   <g id="patch_6">
    <path d="M 72 51.84 
L 518.4 51.84 
" style="fill:none;stroke:#000000;stroke-linecap:square;stroke-linejoin:miter;stroke-width:0.8;"/>
   </g>
   <g id="legend_1">
    <g id="patch_7">
     <path d="M 352.607406 131.863369 
L 511.4 131.863369 
Q 513.4 131.863369 513.4 129.863369 
L 513.4 58.84 
Q 513.4 56.84 511.4 56.84 
L 352.607406 56.84 
Q 350.607406 56.84 350.607406 58.84 
L 350.607406 129.863369 
Q 350.607406 131.863369 352.607406 131.863369 
z
" style="fill:#ffffff;opacity:0.8;stroke:#cccccc;stroke-linejoin:miter;"/>
    </g>
    <g id="line2d_26">
     <path d="M 354.607406 64.622687 
L 374.607406 64.622687 
" style="fill:none;stroke:#0000ff;"/>
    </g>
    <g id="text_28">
     <!-- Original limit-state function -->
     <defs>
      <path d="M 38.90625 74.21875 
C 18 74.21875 3.796875 58.84375 3.796875 36.109375 
C 3.796875 13.359375 18 -2 39 -2 
C 47.796875 -2 55.703125 0.6875 61.59375 5.671875 
C 69.5 12.359375 74.203125 23.625 74.203125 35.5 
C 74.203125 58.953125 60.296875 74.21875 38.90625 74.21875 
z
M 38.90625 66 
C 54.703125 66 64.90625 54.046875 64.90625 35.703125 
C 64.90625 18.171875 54.40625 6.203125 39 6.203125 
C 23.5 6.203125 13.09375 18.171875 13.09375 36.109375 
C 13.09375 54.046875 23.5 66 38.90625 66 
z
" id="Nimbus_Sans_L_Regular-79"/>
      <path d="M 6.90625 52.484375 
L 6.90625 0 
L 15.296875 0 
L 15.296875 27.203125 
C 15.296875 34.703125 17.203125 39.609375 21.203125 42.5 
C 23.796875 44.40625 26.296875 45 32.09375 45 
L 32.09375 53.625 
C 30.703125 53.8125 30 53.8125 28.90625 53.8125 
C 23.5 53.8125 19.40625 50.625 14.59375 42.90625 
L 14.59375 52.484375 
z
" id="Nimbus_Sans_L_Regular-114"/>
      <path d="M 15 52.484375 
L 6.703125 52.484375 
L 6.703125 0 
L 15 0 
z
M 15 73 
L 6.59375 73 
L 6.59375 62.484375 
L 15 62.484375 
z
" id="Nimbus_Sans_L_Regular-105"/>
      <path d="M 41.203125 52.203125 
L 41.203125 44.59375 
C 37 50.8125 31.90625 53.71875 25.203125 53.71875 
C 11.90625 53.71875 2.90625 42.0625 2.90625 25 
C 2.90625 16.375 5.203125 9.34375 9.5 4.3125 
C 13.40625 -0.109375 19 -2.703125 24.5 -2.703125 
C 31.09375 -2.703125 35.703125 0.09375 40.40625 6.703125 
L 40.40625 4.03125 
C 40.40625 -3 39.5 -7.265625 37.40625 -10.140625 
C 35.203125 -13.1875 30.90625 -14.984375 25.796875 -14.984375 
C 22 -14.984375 18.59375 -14 16.296875 -12.234375 
C 14.40625 -10.75 13.59375 -9.375 13.09375 -6.34375 
L 4.59375 -6.34375 
C 5.5 -16.140625 13.203125 -22 25.5 -22 
C 33.296875 -22 40 -19.484375 43.40625 -15.296875 
C 47.40625 -10.484375 48.90625 -3.890625 48.90625 8.40625 
L 48.90625 52.203125 
z
M 26.09375 46 
C 35.09375 46 40.40625 38.359375 40.40625 25.203125 
C 40.40625 12.625 35 5 26.203125 5 
C 17.09375 5 11.59375 12.75 11.59375 25.5 
C 11.59375 38.15625 17.203125 46 26.09375 46 
z
" id="Nimbus_Sans_L_Regular-103"/>
      <path d="M 7 52.484375 
L 7 0 
L 15.40625 0 
L 15.40625 28.953125 
C 15.40625 39.671875 21 46.6875 29.59375 46.6875 
C 36.203125 46.6875 40.40625 42.671875 40.40625 36.359375 
L 40.40625 0 
L 48.703125 0 
L 48.703125 39.671875 
C 48.703125 48.390625 42.203125 54 32.09375 54 
C 24.296875 54 19.296875 50.984375 14.703125 43.6875 
L 14.703125 52.484375 
z
" id="Nimbus_Sans_L_Regular-110"/>
      <path d="M 53.5 5.203125 
C 52.59375 5 52.203125 5 51.703125 5 
C 48.796875 5 47.203125 6.484375 47.203125 9.078125 
L 47.203125 39.765625 
C 47.203125 49.015625 40.40625 54 27.5 54 
C 19.90625 54 13.59375 51.8125 10.09375 47.90625 
C 7.703125 45.203125 6.703125 42.21875 6.5 37.03125 
L 14.90625 37.03125 
C 15.59375 43.390625 19.40625 46.28125 27.203125 46.28125 
C 34.703125 46.28125 38.90625 43.484375 38.90625 38.515625 
L 38.90625 36.328125 
C 38.90625 32.828125 36.796875 31.34375 30.203125 30.546875 
C 18.40625 29.0625 16.59375 28.65625 13.40625 27.359375 
C 7.296875 24.875 4.203125 20.1875 4.203125 13.421875 
C 4.203125 3.96875 10.796875 -2 21.40625 -2 
C 28 -2 33.296875 0.296875 39.203125 5.703125 
C 39.796875 0.390625 42.40625 -2 47.796875 -2 
C 49.5 -2 50.796875 -1.8125 53.5 -1.09375 
z
M 38.90625 16.75 
C 38.90625 13.953125 38.09375 12.265625 35.59375 9.984375 
C 32.203125 6.890625 28.09375 5.3125 23.203125 5.3125 
C 16.703125 5.3125 12.90625 8.390625 12.90625 13.65625 
C 12.90625 19.140625 16.59375 21.921875 25.5 23.21875 
C 34.296875 24.40625 36.09375 24.8125 38.90625 26.09375 
z
" id="Nimbus_Sans_L_Regular-97"/>
      <path d="M 15.203125 73 
L 6.796875 73 
L 6.796875 -0.03125 
L 15.203125 -0.03125 
z
" id="Nimbus_Sans_L_Regular-108"/>
      <path d="M 7 52.484375 
L 7 0 
L 15.40625 0 
L 15.40625 32.953125 
C 15.40625 40.578125 20.90625 46.6875 27.703125 46.6875 
C 33.90625 46.6875 37.40625 42.875 37.40625 36.15625 
L 37.40625 0 
L 45.796875 0 
L 45.796875 32.953125 
C 45.796875 40.578125 51.296875 46.6875 58.09375 46.6875 
C 64.203125 46.6875 67.796875 42.78125 67.796875 36.15625 
L 67.796875 0 
L 76.203125 0 
L 76.203125 39.375 
C 76.203125 48.78125 70.796875 54 61 54 
C 54 54 49.796875 51.890625 44.90625 45.984375 
C 41.796875 51.59375 37.59375 54 30.796875 54 
C 23.796875 54 19.203125 51.390625 14.703125 45.078125 
L 14.703125 52.484375 
z
" id="Nimbus_Sans_L_Regular-109"/>
      <path d="M 25.40625 52.8125 
L 16.796875 52.8125 
L 16.796875 67 
L 8.5 67 
L 8.5 52.8125 
L 1.40625 52.8125 
L 1.40625 46 
L 8.5 46 
L 8.5 6.3125 
C 8.5 1 12.09375 -2 18.59375 -2 
C 20.59375 -2 22.59375 -1.8125 25.40625 -1.296875 
L 25.40625 5.71875 
C 24.296875 5.40625 23 5.3125 21.40625 5.3125 
C 17.796875 5.3125 16.796875 6.3125 16.796875 10.015625 
L 16.796875 46 
L 25.40625 46 
z
" id="Nimbus_Sans_L_Regular-116"/>
      <path d="M 28.40625 31.203125 
L 4.59375 31.203125 
L 4.59375 24 
L 28.40625 24 
z
" id="Nimbus_Sans_L_Regular-45"/>
      <path d="M 43.796875 37.921875 
C 43.703125 48.203125 36.90625 54 24.796875 54 
C 12.59375 54 4.703125 47.71875 4.703125 38.0625 
C 4.703125 29.890625 8.90625 26.015625 21.296875 23.03125 
L 29.09375 21.140625 
C 34.90625 19.734375 37.203125 17.65625 37.203125 13.875 
C 37.203125 9 32.296875 5.703125 25 5.703125 
C 20.5 5.703125 16.703125 7 14.59375 9.1875 
C 13.296875 10.6875 12.703125 12.171875 12.203125 15.84375 
L 3.40625 15.84375 
C 3.796875 3.765625 10.59375 -2 24.296875 -2 
C 37.5 -2 45.90625 4.453125 45.90625 14.515625 
C 45.90625 22.28125 41.5 26.578125 31.09375 29.0625 
L 23.09375 30.953125 
C 16.296875 32.53125 13.40625 34.734375 13.40625 38.40625 
C 13.40625 43.1875 17.703125 46.28125 24.5 46.28125 
C 31.203125 46.28125 34.796875 43.390625 35 37.921875 
z
" id="Nimbus_Sans_L_Regular-115"/>
      <path d="M 51.296875 23.890625 
C 51.296875 31.78125 50.703125 36.53125 49.203125 40.375 
C 45.796875 48.859375 37.796875 54 28 54 
C 13.40625 54 4 42.84375 4 25.703125 
C 4 8.546875 13.09375 -2 27.796875 -2 
C 39.796875 -2 48.09375 4.84375 50.203125 16.3125 
L 41.796875 16.3125 
C 39.5 9.34375 34.796875 5.703125 28.09375 5.703125 
C 22.796875 5.703125 18.296875 8.125 15.5 12.578125 
C 13.5 15.59375 12.796875 18.640625 12.703125 23.890625 
z
M 12.90625 31 
C 13.59375 40.265625 19.5 46.28125 27.90625 46.28125 
C 36.09375 46.28125 42.40625 39.53125 42.40625 31 
C 42.40625 31 42.40625 31 42.296875 31 
z
" id="Nimbus_Sans_L_Regular-101"/>
      <path d="M 25.796875 52 
L 17.09375 52 
L 17.09375 60.25 
C 17.09375 63.78125 19.09375 65.59375 22.90625 65.59375 
C 23.59375 65.59375 23.90625 65.59375 25.796875 65.59375 
L 25.796875 72.5 
C 23.90625 72.90625 22.796875 73 21.09375 73 
C 13.40625 73 8.796875 68.5625 8.796875 60.984375 
L 8.796875 52 
L 1.796875 52 
L 1.796875 45.1875 
L 8.796875 45.1875 
L 8.796875 -0.40625 
L 17.09375 -0.40625 
L 17.09375 45.1875 
L 25.796875 45.1875 
z
" id="Nimbus_Sans_L_Regular-102"/>
      <path d="M 48.203125 0.515625 
L 48.203125 53 
L 39.90625 53 
L 39.90625 23.109375 
C 39.90625 12.34375 34.296875 5.3125 25.59375 5.3125 
C 19 5.3125 14.796875 9.328125 14.796875 15.671875 
L 14.796875 53 
L 6.5 53 
L 6.5 12.375 
C 6.5 3.625 13 -2 23.203125 -2 
C 30.90625 -2 35.796875 0.703125 40.703125 7.625 
L 40.703125 0.515625 
z
" id="Nimbus_Sans_L_Regular-117"/>
      <path d="M 47.09375 34.9375 
C 46.703125 40.03125 45.59375 43.328125 43.59375 46.21875 
C 40 51.109375 33.703125 54 26.40625 54 
C 12.296875 54 3.09375 42.84375 3.09375 25.5 
C 3.09375 8.65625 12.09375 -2 26.296875 -2 
C 38.796875 -2 46.703125 5.46875 47.703125 18.234375 
L 39.296875 18.234375 
C 37.90625 9.875 33.59375 5.703125 26.5 5.703125 
C 17.296875 5.703125 11.796875 13.171875 11.796875 25.5 
C 11.796875 38.53125 17.203125 46.28125 26.296875 46.28125 
C 33.296875 46.28125 37.703125 42.203125 38.703125 34.9375 
z
" id="Nimbus_Sans_L_Regular-99"/>
      <path d="M 27.203125 54 
C 12.5 54 3.59375 43.53125 3.59375 25.984375 
C 3.59375 8.453125 12.40625 -2 27.296875 -2 
C 42 -2 51 8.453125 51 25.59375 
C 51 43.625 42.296875 54 27.203125 54 
z
M 27.296875 46.28125 
C 36.703125 46.28125 42.296875 38.625 42.296875 25.703125 
C 42.296875 13.453125 36.5 5.703125 27.296875 5.703125 
C 18 5.703125 12.296875 13.359375 12.296875 25.984375 
C 12.296875 38.53125 18 46.28125 27.296875 46.28125 
z
" id="Nimbus_Sans_L_Regular-111"/>
     </defs>
     <g transform="translate(382.607406 68.122687)scale(0.1 -0.1)">
      <use transform="scale(0.996264)" xlink:href="#Nimbus_Sans_L_Regular-79"/>
      <use transform="translate(77.50837 0)scale(0.996264)" xlink:href="#Nimbus_Sans_L_Regular-114"/>
      <use transform="translate(112.176977 0)scale(0.996264)" xlink:href="#Nimbus_Sans_L_Regular-105"/>
      <use transform="translate(134.293762 0)scale(0.996264)" xlink:href="#Nimbus_Sans_L_Regular-103"/>
      <use transform="translate(189.685439 0)scale(0.996264)" xlink:href="#Nimbus_Sans_L_Regular-105"/>
      <use transform="translate(211.802223 0)scale(0.996264)" xlink:href="#Nimbus_Sans_L_Regular-110"/>
      <use transform="translate(267.1939 0)scale(0.996264)" xlink:href="#Nimbus_Sans_L_Regular-97"/>
      <use transform="translate(322.585577 0)scale(0.996264)" xlink:href="#Nimbus_Sans_L_Regular-108"/>
      <use transform="translate(372.397531 0)scale(0.996264)" xlink:href="#Nimbus_Sans_L_Regular-108"/>
      <use transform="translate(394.514315 0)scale(0.996264)" xlink:href="#Nimbus_Sans_L_Regular-105"/>
      <use transform="translate(416.6311 0)scale(0.996264)" xlink:href="#Nimbus_Sans_L_Regular-109"/>
      <use transform="translate(499.61953 0)scale(0.996264)" xlink:href="#Nimbus_Sans_L_Regular-105"/>
      <use transform="translate(521.736314 0)scale(0.996264)" xlink:href="#Nimbus_Sans_L_Regular-116"/>
      <use transform="translate(549.431484 0)scale(0.996264)" xlink:href="#Nimbus_Sans_L_Regular-45"/>
      <use transform="translate(582.606713 0)scale(0.996264)" xlink:href="#Nimbus_Sans_L_Regular-115"/>
      <use transform="translate(632.419914 0)scale(0.996264)" xlink:href="#Nimbus_Sans_L_Regular-116"/>
      <use transform="translate(660.115084 0)scale(0.996264)" xlink:href="#Nimbus_Sans_L_Regular-97"/>
      <use transform="translate(715.506761 0)scale(0.996264)" xlink:href="#Nimbus_Sans_L_Regular-116"/>
      <use transform="translate(743.20193 0)scale(0.996264)" xlink:href="#Nimbus_Sans_L_Regular-101"/>
      <use transform="translate(826.288777 0)scale(0.996264)" xlink:href="#Nimbus_Sans_L_Regular-102"/>
      <use transform="translate(853.983946 0)scale(0.996264)" xlink:href="#Nimbus_Sans_L_Regular-117"/>
      <use transform="translate(909.375623 0)scale(0.996264)" xlink:href="#Nimbus_Sans_L_Regular-110"/>
      <use transform="translate(964.7673 0)scale(0.996264)" xlink:href="#Nimbus_Sans_L_Regular-99"/>
      <use transform="translate(1014.580501 0)scale(0.996264)" xlink:href="#Nimbus_Sans_L_Regular-116"/>
      <use transform="translate(1042.27567 0)scale(0.996264)" xlink:href="#Nimbus_Sans_L_Regular-105"/>
      <use transform="translate(1064.392455 0)scale(0.996264)" xlink:href="#Nimbus_Sans_L_Regular-111"/>
      <use transform="translate(1119.784132 0)scale(0.996264)" xlink:href="#Nimbus_Sans_L_Regular-110"/>
     </g>
    </g>
    <g id="line2d_27">
     <path d="M 354.607406 79.027361 
L 374.607406 79.027361 
" style="fill:none;stroke:#ff0000;stroke-dasharray:3.7,1.6;stroke-dashoffset:0;"/>
    </g>
    <g id="text_29">
     <!-- Surrogate limit-state function -->
     <defs>
      <path d="M 59.59375 52.109375 
C 59.5 66.484375 49.703125 74.8125 32.90625 74.8125 
C 16.90625 74.8125 7 66.5625 7 53.28125 
C 7 44.328125 11.703125 38.703125 21.296875 36.1875 
L 39.40625 31.359375 
C 48.59375 28.9375 52.796875 25.21875 52.796875 19.484375 
C 52.796875 15.546875 50.703125 11.53125 47.59375 9.328125 
C 44.703125 7.3125 40.09375 6.203125 34.203125 6.203125 
C 26.296875 6.203125 20.90625 8.125 17.40625 12.34375 
C 14.703125 15.5625 13.5 19.09375 13.59375 23.609375 
L 4.796875 23.609375 
C 4.90625 16.890625 6.203125 12.46875 9.09375 8.4375 
C 14.09375 1.609375 22.5 -2 33.59375 -2 
C 42.296875 -2 49.40625 0.015625 54.09375 3.625 
C 59 7.546875 62.09375 14.078125 62.09375 20.421875 
C 62.09375 29.46875 56.5 36.109375 46.59375 38.828125 
L 28.296875 43.765625 
C 19.5 46.171875 16.296875 48.984375 16.296875 54.625 
C 16.296875 62.0625 22.796875 67 32.59375 67 
C 44.203125 67 50.703125 61.671875 50.796875 52.109375 
z
" id="Nimbus_Sans_L_Regular-83"/>
     </defs>
     <g transform="translate(382.607406 82.527361)scale(0.1 -0.1)">
      <use transform="scale(0.996264)" xlink:href="#Nimbus_Sans_L_Regular-83"/>
      <use transform="translate(66.450031 0)scale(0.996264)" xlink:href="#Nimbus_Sans_L_Regular-117"/>
      <use transform="translate(121.841708 0)scale(0.996264)" xlink:href="#Nimbus_Sans_L_Regular-114"/>
      <use transform="translate(155.016938 0)scale(0.996264)" xlink:href="#Nimbus_Sans_L_Regular-114"/>
      <use transform="translate(188.192168 0)scale(0.996264)" xlink:href="#Nimbus_Sans_L_Regular-111"/>
      <use transform="translate(243.583845 0)scale(0.996264)" xlink:href="#Nimbus_Sans_L_Regular-103"/>
      <use transform="translate(298.975521 0)scale(0.996264)" xlink:href="#Nimbus_Sans_L_Regular-97"/>
      <use transform="translate(354.367198 0)scale(0.996264)" xlink:href="#Nimbus_Sans_L_Regular-116"/>
      <use transform="translate(382.062368 0)scale(0.996264)" xlink:href="#Nimbus_Sans_L_Regular-101"/>
      <use transform="translate(465.149215 0)scale(0.996264)" xlink:href="#Nimbus_Sans_L_Regular-108"/>
      <use transform="translate(487.265999 0)scale(0.996264)" xlink:href="#Nimbus_Sans_L_Regular-105"/>
      <use transform="translate(509.382783 0)scale(0.996264)" xlink:href="#Nimbus_Sans_L_Regular-109"/>
      <use transform="translate(592.371214 0)scale(0.996264)" xlink:href="#Nimbus_Sans_L_Regular-105"/>
      <use transform="translate(614.487998 0)scale(0.996264)" xlink:href="#Nimbus_Sans_L_Regular-116"/>
      <use transform="translate(642.183167 0)scale(0.996264)" xlink:href="#Nimbus_Sans_L_Regular-45"/>
      <use transform="translate(675.358397 0)scale(0.996264)" xlink:href="#Nimbus_Sans_L_Regular-115"/>
      <use transform="translate(725.171598 0)scale(0.996264)" xlink:href="#Nimbus_Sans_L_Regular-116"/>
      <use transform="translate(752.866767 0)scale(0.996264)" xlink:href="#Nimbus_Sans_L_Regular-97"/>
      <use transform="translate(808.258444 0)scale(0.996264)" xlink:href="#Nimbus_Sans_L_Regular-116"/>
      <use transform="translate(835.953614 0)scale(0.996264)" xlink:href="#Nimbus_Sans_L_Regular-101"/>
      <use transform="translate(919.04046 0)scale(0.996264)" xlink:href="#Nimbus_Sans_L_Regular-102"/>
      <use transform="translate(946.73563 0)scale(0.996264)" xlink:href="#Nimbus_Sans_L_Regular-117"/>
      <use transform="translate(1002.127307 0)scale(0.996264)" xlink:href="#Nimbus_Sans_L_Regular-110"/>
      <use transform="translate(1057.518984 0)scale(0.996264)" xlink:href="#Nimbus_Sans_L_Regular-99"/>
      <use transform="translate(1107.332184 0)scale(0.996264)" xlink:href="#Nimbus_Sans_L_Regular-116"/>
      <use transform="translate(1135.027354 0)scale(0.996264)" xlink:href="#Nimbus_Sans_L_Regular-105"/>
      <use transform="translate(1157.144138 0)scale(0.996264)" xlink:href="#Nimbus_Sans_L_Regular-111"/>
      <use transform="translate(1212.535815 0)scale(0.996264)" xlink:href="#Nimbus_Sans_L_Regular-110"/>
     </g>
    </g>
    <g id="PathCollection_4">
     <g>
      <use style="fill:#ff0000;fill-opacity:0.5;stroke:#ff0000;stroke-opacity:0.5;" x="364.607406" xlink:href="#md0ce796da9" y="94.307035"/>
     </g>
    </g>
    <g id="text_30">
     <!-- Support points: Initial -->
     <defs>
      <path d="M 5.40625 -22 
L 13.796875 -22 
L 13.796875 5 
C 18.203125 -0.421875 23.09375 -2.8125 29.90625 -2.8125 
C 43.40625 -2.8125 52.296875 8.15625 52.296875 24.984375 
C 52.296875 42.71875 43.703125 53.8125 29.796875 53.8125 
C 22.703125 53.8125 17 50.59375 13.09375 44.390625 
L 13.09375 52.328125 
L 5.40625 52.328125 
z
M 28.40625 46 
C 37.59375 46 43.59375 37.8125 43.59375 25.1875 
C 43.59375 13.171875 37.5 5 28.40625 5 
C 19.59375 5 13.796875 13.078125 13.796875 25.5 
C 13.796875 37.921875 19.59375 46 28.40625 46 
z
" id="Nimbus_Sans_L_Regular-112"/>
      <path d="M 21.40625 10.421875 
L 11 10.421875 
L 11 0 
L 21.40625 0 
z
M 21.40625 52.40625 
L 11 52.40625 
L 11 42 
L 21.40625 42 
z
" id="Nimbus_Sans_L_Regular-58"/>
      <path d="M 19.40625 73 
L 10 73 
L 10 -0.03125 
L 19.40625 -0.03125 
z
" id="Nimbus_Sans_L_Regular-73"/>
     </defs>
     <g transform="translate(382.607406 96.932035)scale(0.1 -0.1)">
      <use transform="scale(0.996264)" xlink:href="#Nimbus_Sans_L_Regular-83"/>
      <use transform="translate(66.450031 0)scale(0.996264)" xlink:href="#Nimbus_Sans_L_Regular-117"/>
      <use transform="translate(121.841708 0)scale(0.996264)" xlink:href="#Nimbus_Sans_L_Regular-112"/>
      <use transform="translate(177.233385 0)scale(0.996264)" xlink:href="#Nimbus_Sans_L_Regular-112"/>
      <use transform="translate(232.625062 0)scale(0.996264)" xlink:href="#Nimbus_Sans_L_Regular-111"/>
      <use transform="translate(288.016739 0)scale(0.996264)" xlink:href="#Nimbus_Sans_L_Regular-114"/>
      <use transform="translate(325.176067 0)scale(0.996264)" xlink:href="#Nimbus_Sans_L_Regular-116"/>
      <use transform="translate(380.566406 0)scale(0.996264)" xlink:href="#Nimbus_Sans_L_Regular-112"/>
      <use transform="translate(435.958083 0)scale(0.996264)" xlink:href="#Nimbus_Sans_L_Regular-111"/>
      <use transform="translate(491.34976 0)scale(0.996264)" xlink:href="#Nimbus_Sans_L_Regular-105"/>
      <use transform="translate(513.466545 0)scale(0.996264)" xlink:href="#Nimbus_Sans_L_Regular-110"/>
      <use transform="translate(568.858221 0)scale(0.996264)" xlink:href="#Nimbus_Sans_L_Regular-116"/>
      <use transform="translate(596.553391 0)scale(0.996264)" xlink:href="#Nimbus_Sans_L_Regular-115"/>
      <use transform="translate(646.366592 0)scale(0.996264)" xlink:href="#Nimbus_Sans_L_Regular-58"/>
      <use transform="translate(708.331413 0)scale(0.996264)" xlink:href="#Nimbus_Sans_L_Regular-73"/>
      <use transform="translate(736.026582 0)scale(0.996264)" xlink:href="#Nimbus_Sans_L_Regular-110"/>
      <use transform="translate(791.418259 0)scale(0.996264)" xlink:href="#Nimbus_Sans_L_Regular-105"/>
      <use transform="translate(813.535044 0)scale(0.996264)" xlink:href="#Nimbus_Sans_L_Regular-116"/>
      <use transform="translate(841.230213 0)scale(0.996264)" xlink:href="#Nimbus_Sans_L_Regular-105"/>
      <use transform="translate(863.346998 0)scale(0.996264)" xlink:href="#Nimbus_Sans_L_Regular-97"/>
      <use transform="translate(918.738675 0)scale(0.996264)" xlink:href="#Nimbus_Sans_L_Regular-108"/>
     </g>
    </g>
    <g id="PathCollection_5">
     <g>
      <use style="fill:#008000;fill-opacity:0.5;stroke:#008000;stroke-opacity:0.5;" x="364.607406" xlink:href="#mf7008ecf2a" y="108.711709"/>
     </g>
    </g>
    <g id="text_31">
     <!-- Support points: Stage 1 -->
     <defs>
      <path d="M 25.90625 50.59375 
L 25.90625 0 
L 34.703125 0 
L 34.703125 71.015625 
L 28.90625 71.015625 
C 25.796875 60.109375 23.796875 58.609375 10.203125 56.90625 
L 10.203125 50.59375 
z
" id="Nimbus_Sans_L_Regular-49"/>
     </defs>
     <g transform="translate(382.607406 111.336709)scale(0.1 -0.1)">
      <use transform="scale(0.996264)" xlink:href="#Nimbus_Sans_L_Regular-83"/>
      <use transform="translate(66.450031 0)scale(0.996264)" xlink:href="#Nimbus_Sans_L_Regular-117"/>
      <use transform="translate(121.841708 0)scale(0.996264)" xlink:href="#Nimbus_Sans_L_Regular-112"/>
      <use transform="translate(177.233385 0)scale(0.996264)" xlink:href="#Nimbus_Sans_L_Regular-112"/>
      <use transform="translate(232.625062 0)scale(0.996264)" xlink:href="#Nimbus_Sans_L_Regular-111"/>
      <use transform="translate(288.016739 0)scale(0.996264)" xlink:href="#Nimbus_Sans_L_Regular-114"/>
      <use transform="translate(325.176067 0)scale(0.996264)" xlink:href="#Nimbus_Sans_L_Regular-116"/>
      <use transform="translate(380.566406 0)scale(0.996264)" xlink:href="#Nimbus_Sans_L_Regular-112"/>
      <use transform="translate(435.958083 0)scale(0.996264)" xlink:href="#Nimbus_Sans_L_Regular-111"/>
      <use transform="translate(491.34976 0)scale(0.996264)" xlink:href="#Nimbus_Sans_L_Regular-105"/>
      <use transform="translate(513.466545 0)scale(0.996264)" xlink:href="#Nimbus_Sans_L_Regular-110"/>
      <use transform="translate(568.858221 0)scale(0.996264)" xlink:href="#Nimbus_Sans_L_Regular-116"/>
      <use transform="translate(596.553391 0)scale(0.996264)" xlink:href="#Nimbus_Sans_L_Regular-115"/>
      <use transform="translate(646.366592 0)scale(0.996264)" xlink:href="#Nimbus_Sans_L_Regular-58"/>
      <use transform="translate(708.331413 0)scale(0.996264)" xlink:href="#Nimbus_Sans_L_Regular-83"/>
      <use transform="translate(774.781444 0)scale(0.996264)" xlink:href="#Nimbus_Sans_L_Regular-116"/>
      <use transform="translate(802.476614 0)scale(0.996264)" xlink:href="#Nimbus_Sans_L_Regular-97"/>
      <use transform="translate(857.868291 0)scale(0.996264)" xlink:href="#Nimbus_Sans_L_Regular-103"/>
      <use transform="translate(913.259968 0)scale(0.996264)" xlink:href="#Nimbus_Sans_L_Regular-101"/>
      <use transform="translate(996.346814 0)scale(0.996264)" xlink:href="#Nimbus_Sans_L_Regular-49"/>
     </g>
    </g>
    <g id="PathCollection_6">
     <g>
      <use style="fill:#008000;fill-opacity:0.5;stroke:#008000;stroke-opacity:0.5;stroke-width:1.5;" x="364.607406" xlink:href="#m33b1bf7549" y="123.116383"/>
     </g>
    </g>
    <g id="text_32">
     <!-- Support points: Stage 2 -->
     <defs>
      <path d="M 50.59375 8.71875 
L 13.296875 8.71875 
C 14.203125 14.53125 17.40625 18.234375 26.09375 23.34375 
L 36.09375 28.75 
C 46 34.15625 51.09375 41.453125 51.09375 50.171875 
C 51.09375 56.078125 48.703125 61.59375 44.5 65.390625 
C 40.296875 69.203125 35.09375 71 28.40625 71 
C 19.40625 71 12.703125 67.796875 8.796875 61.796875 
C 6.296875 57.984375 5.203125 53.578125 5 46.359375 
L 13.796875 46.359375 
C 14.09375 51.171875 14.703125 54.078125 15.90625 56.375 
C 18.203125 60.6875 22.796875 63.296875 28.09375 63.296875 
C 36.09375 63.296875 42.09375 57.578125 42.09375 49.96875 
C 42.09375 44.359375 38.796875 39.546875 32.5 35.953125 
L 23.296875 30.75 
C 8.5 22.34375 4.203125 15.625 3.40625 0 
L 50.59375 0 
z
" id="Nimbus_Sans_L_Regular-50"/>
     </defs>
     <g transform="translate(382.607406 125.741383)scale(0.1 -0.1)">
      <use transform="scale(0.996264)" xlink:href="#Nimbus_Sans_L_Regular-83"/>
      <use transform="translate(66.450031 0)scale(0.996264)" xlink:href="#Nimbus_Sans_L_Regular-117"/>
      <use transform="translate(121.841708 0)scale(0.996264)" xlink:href="#Nimbus_Sans_L_Regular-112"/>
      <use transform="translate(177.233385 0)scale(0.996264)" xlink:href="#Nimbus_Sans_L_Regular-112"/>
      <use transform="translate(232.625062 0)scale(0.996264)" xlink:href="#Nimbus_Sans_L_Regular-111"/>
      <use transform="translate(288.016739 0)scale(0.996264)" xlink:href="#Nimbus_Sans_L_Regular-114"/>
      <use transform="translate(325.176067 0)scale(0.996264)" xlink:href="#Nimbus_Sans_L_Regular-116"/>
      <use transform="translate(380.566406 0)scale(0.996264)" xlink:href="#Nimbus_Sans_L_Regular-112"/>
      <use transform="translate(435.958083 0)scale(0.996264)" xlink:href="#Nimbus_Sans_L_Regular-111"/>
      <use transform="translate(491.34976 0)scale(0.996264)" xlink:href="#Nimbus_Sans_L_Regular-105"/>
      <use transform="translate(513.466545 0)scale(0.996264)" xlink:href="#Nimbus_Sans_L_Regular-110"/>
      <use transform="translate(568.858221 0)scale(0.996264)" xlink:href="#Nimbus_Sans_L_Regular-116"/>
      <use transform="translate(596.553391 0)scale(0.996264)" xlink:href="#Nimbus_Sans_L_Regular-115"/>
      <use transform="translate(646.366592 0)scale(0.996264)" xlink:href="#Nimbus_Sans_L_Regular-58"/>
      <use transform="translate(708.331413 0)scale(0.996264)" xlink:href="#Nimbus_Sans_L_Regular-83"/>
      <use transform="translate(774.781444 0)scale(0.996264)" xlink:href="#Nimbus_Sans_L_Regular-116"/>
      <use transform="translate(802.476614 0)scale(0.996264)" xlink:href="#Nimbus_Sans_L_Regular-97"/>
      <use transform="translate(857.868291 0)scale(0.996264)" xlink:href="#Nimbus_Sans_L_Regular-103"/>
      <use transform="translate(913.259968 0)scale(0.996264)" xlink:href="#Nimbus_Sans_L_Regular-101"/>
      <use transform="translate(996.346814 0)scale(0.996264)" xlink:href="#Nimbus_Sans_L_Regular-50"/>
     </g>
    </g>
   </g>
  </g>
 </g>
 <defs>
  <clipPath id="p400aea1b63">
   <rect height="326.16" width="446.4" x="72" y="51.84"/>
  </clipPath>
 </defs>
</svg>
